<?xml version="1.0" encoding="UTF-8"?><svg id="_レイヤー_2" xmlns="http://www.w3.org/2000/svg" viewBox="0 0 520.5 225.69"><defs><style>.cls-1{fill:#fff;}</style></defs><g id="_ヘッダー"><g><path class="cls-1" d="m2.71,39.38l.08-.02c6.15-1.26,9.94-4.14,12.03-6.33,2.43-2.48,2.99-4.63,3.21-5.64h-9.72c-1.46,0-3.81.16-5.49.47h-.07s-1.16-2.06-1.16-2.06l.19.02c3.24.26,6.41.34,7.13.34h9.42c.29-1.5.46-2.92.46-3.9,0-.81-.07-1.26-.19-1.66h-10.16c-1.48,0-3.85.16-5.53.47h-.07s-1.16-2.06-1.16-2.06l.19.02c3.28.26,6.4.34,7.17.34h9.92v-4.92h-6.56c-1.44,0-3.87.17-5.53.47h-.07s-1.11-2.06-1.11-2.06h.18c3.28.28,6.37.36,7.13.36h5.96v-3.93h-9.1c-1.45,0-3.81.16-5.49.47h-.07s-1.16-2.06-1.16-2.06l.19.02c3.24.26,6.4.34,7.13.34h12.67c.58-1.18,1.43-3.03,2.2-5.31.29-.8.34-1.04.47-2.6v-.15s3.85,2.09,3.85,2.09c.25.17.44.32.44.69,0,.4-.32.6-.47.7l-.36.15c-.35.14-.86.33-.99.4-1.66,1.5-2.4,2.2-4.19,4.02h8.88l1.43-1.64c.4-.44.54-.59.76-.59.34,0,.78.36.97.55l1.55,1.55c.5.5.5.7.5.8,0,.38-.27.57-.79.57h-15.94v3.93h8.5l.56-1.03c.39-.6.62-.65.82-.65.21,0,.46.11.87.41l1.59,1.21c.22.16.47.39.47.72,0,.37-.26.57-.74.57h-12.07v4.92h13.7l1.21-1.76c.06-.06.11-.12.17-.19.19-.21.4-.46.64-.46s.51.23.71.39l.12.1,2.03,1.77c.32.32.51.51.51.81,0,.42-.39.57-.75.57h-19.9l1.82.45c.42.1.89.28.89.7,0,.54-.73.89-1.04,1.02-.08,1.13-.16,2.05-.45,3.4h13.21l1.38-1.73c.39-.47.5-.6.77-.6.21,0,.5.19.76.37.05.03.09.06.1.07l2.21,1.77.09.09c.21.2.42.41.42.68,0,.36-.29.57-.79.57h-17.03c3.14,5.29,9.61,8.7,16.55,8.7.6,0,1.09-.04,1.61-.08h.18s.13.45.13.45l-.08.04c-2.22,1.07-2.76,2.08-3.15,2.82l-.03.07-.11.05c-1.42-.27-5.76-1.1-10.02-4.14-2.65-1.92-4.62-4.58-5.86-7.89h-.63c-.81,2.88-2.38,6.52-7.29,9.36-3.17,1.8-6.89,2.89-10.75,3.15h-.11s0-.52,0-.52ZM15.49,6.93c-1.18,0-1.72-1.08-2.2-2.03-.76-1.48-1.38-2.37-2.67-3.14l-.08-.05.24-.49h.07c5.08.44,6.2,3.14,6.2,4.15,0,1.07-.81,1.56-1.56,1.56Z"/><path class="cls-1" d="m67.95,40.21c-.92,0-1.26-.34-1.26-1.26,0-1.4.04-5.29.09-9.1.04-3.34.08-6.62.08-8.11-1.76,3.02-6.45,9.77-15.25,14.29l-.09.04-.26-.46.07-.05c6.15-4.53,11.75-11.25,14.31-17.15h-2.08c-1.56,0-3.94.22-5.53.51h-.07s-1.11-2.06-1.11-2.06h.18c3.72.31,7.1.32,7.13.32h2.69c0-1.72,0-1.96.04-4.12,0-1,0-2.36-.04-3.34h-1.97c-1.45,0-3.8.16-5.49.47h-.07s-1.16-2.06-1.16-2.06l.19.02c3.24.26,6.4.34,7.13.34h1.36c-.09-5.2-.31-6.07-.81-7.52l-.06-.18,4.05,1.08c.37.08.8.22.8.57,0,.66-1.19,1.4-1.63,1.65v4.4h6.09l1.56-1.77c.43-.47.54-.55.8-.55.28,0,.67.33.8.46l1.93,1.89c.19.19.38.37.38.64,0,.37-.26.57-.75.57h-10.82c0,3.2,0,3.67.08,7.45h9.41l1.16-1.85c.09-.13.4-.56.73-.56.27,0,.65.35.8.5l1.81,1.89c.22.22.42.41.42.71,0,.53-.54.53-.75.53h-13.02c2.53,7.23,8.16,12.76,14.72,14.47l.08.02v.4l-.06.02c-2.14.8-2.74,1.54-3.26,2.37l-.05.08-.08-.05c-5.58-3.11-10.23-9.56-11.83-16.27.17,10.81.25,14.99.5,18.2,0,.09.01.22.02.34.01.13.02.26.02.35,0,1.68-1.36,1.86-1.95,1.86Zm-21.46-8c-.46,0-.96-.33-.96-1.26,0-.11.02-.48.05-.83.02-.31.04-.6.04-.68l.16-9.5c.08-4.76.1-5.94.1-7.7,0-1.11-.04-4.91-.51-7.12l-.04-.21,3.5,1.77h4.26s.56-.95.56-.95c.19-.33.43-.52.69-.52.19,0,.42.1.71.32l1.6,1.34s.09.09.14.13c.16.14.32.29.32.46,0,.35-.36.6-1.57,1.43l-.1.07c.02,1.38.15,5.8.26,9.69.09,2.93.17,5.7.17,6.7,0,.89-1.04,1.43-1.78,1.43-.28,0-.45-.05-.57-.18-.23-.24-.24-.73-.18-1.75h-5.08v5.79c0,.75-.46,1.56-1.73,1.56Zm6.82-8.58V7.92h-5.09v15.71h5.09Z"/><path class="cls-1" d="m100.83,37.04c-.18,0-4.37-.02-5.99-1.87-1.39-1.6-1.66-4.3-1.66-8.14,0-.62.2-8.56.24-9.76l.05-1.38c.07-2.06.19-5.51.19-6.38,0-3.24-1.06-3.65-2.66-4.28l-.13-.05.02-.14c.31-.35.74-.67,1.83-.67,1.7,0,4.02,1.95,4.02,3.06,0,.32-.15,1.18-.26,1.88l-.06.34c-.93,5-1.44,12.99-1.44,17.98,0,1.51,0,5.05.78,6.1.71.94,1.96,1.4,3.8,1.4,4.99,0,13.71-4.23,17.09-7.57l.08-.08.23.3-.03.06c-2.83,5.34-9.59,9.21-16.09,9.21Z"/><path class="cls-1" d="m134.67,32.84c-.84,0-5.1-.42-7.1-8.8-.31-1.23-.36-1.93-.63-5.84l-.17-2.49c-.24-3.28-.37-4.23-1.9-6.63l-.1-.16h.19c2.12.09,4.54,2.33,4.54,4.23,0,.45,0,.57-.24,1.74-.25,1.4-.28,2.54-.28,3.38,0,2.57.62,7.91,2.96,9.76l.08.06c.16.12.47.36.74.36.39,0,.72-.28.87-.55,2.75-4.31,3.24-5.02,5.57-8.43l.59-.86c.03-.07.24-.4.36-.56l.05-.07.56.28-.04.09c-.6,1.19-4.8,9.84-4.96,10.23-.15.5-.27.93-.27,1.44,0,.13.07.52.14.9.07.41.14.79.14.94,0,.45-.29.98-1.1.98Zm21.36-6.52c-.32,0-.47-.11-1.46-.94-1.32-1.13-2.2-1.3-4.78-1.8l-.08-.02-.09-.1v-.37h.09c.48-.08,2.43-.38,3.32-.52l.36-.05c.44-.05.96-.26.96-.9s-1.6-7.23-7.33-9.38l-.24-.09.24-.1c.23-.09.76-.25,1.28-.25.84,0,2.88.53,4.63,2.51,3.16,3.58,4.34,7.73,4.34,9.5,0,1.18-.52,2.5-1.22,2.5Z"/><path class="cls-1" d="m171.72,38.3l.07-.04c10.9-6.86,13.2-18.83,13.2-20.9,0-1.1-.27-1.3-.93-1.8-1.74.11-2.89.21-3.54.27l-.37.03c-.09,0-2.23.26-2.23.26h0c-.58,0-1.09-.12-2.26-.79-1.71,2.23-3.59,4.25-5.59,6.01-1.2,1.01-2.4,1.8-3.68,2.42l-.08.04-.26-.45.06-.05c6.68-5.71,11.4-16.08,11.4-17.34,0-.52,0-.92-2.26-1.93l-.2-.09.2-.09c.47-.22.97-.44,2.02-.44,2.08,0,4.4,1.75,4.4,2.94,0,.51-.11.62-.98,1.49-.85.9-1.14,1.27-2,2.82-.82,1.54-1.5,2.51-1.9,3.09l-.13.18c.45.08.92.14,1.59.14,1.98,0,13.24-.87,15.45-1.46.13-.03.39-.13.69-.25.66-.25,1.18-.44,1.4-.44.59,0,2.71.87,2.8.91.56.2.87.62.87,1.16,0,.96-.56.96-1.91.96-.22,0-.82-.01-1.42-.02-.6-.01-1.2-.02-1.42-.02l-.93.04c-2.02.1-3.38.16-6.83.41.63.39,2.06,1.35,2.06,1.94,0,.34-.15.45-.76.9-.2.13-.5.89-.7,1.58-4.16,12.99-9.93,16.8-15.54,18.98l-.09.04-.19-.52Z"/><path class="cls-1" d="m212.91,22.62c-.33,0-.61,0-1.67-1.28-1.05-1.2-1.27-2.38-1.27-3.16,0-.54.03-1.11.36-1.72l.11-.2.08.21c.53,1.48,1.44,2.52,2.43,2.78.59.17.99.17,4.79.17,1.39,0,15.12-.1,18.01-.43.82-.09.86-.09,1.35-.29.28-.09.55-.14.86-.14.04,0,4.1.38,4.1,1.78,0,1.13-1.21,1.13-2.38,1.13-.3,0-1.31-.05-2.4-.11-1.27-.07-2.7-.15-3.19-.15-2.67,0-14.78.22-16.85.43-1.09.09-2.1.3-2.94.6l-.13.05c-.72.26-.93.34-1.23.34Z"/><path class="cls-1" d="m273.71,37.58c-.9,0-1.69-1.2-2.2-2.21-.4-.75-.44-.93-.44-1.77,0-1.6,0-2.14-.13-3.13-.12-.84-.71-3.66-1.15-5.72-.19-.89-.35-1.64-.42-2.04-2.58.6-8.49,2.04-10.15,2.89l-.65.32c-1.21.59-1.4.68-1.68.68-.84,0-2.8-1.56-3.32-2.86-.32-.73-.26-1.66-.22-2.28l.02-.27.16.21c1.38,1.83,2.75,2.02,3.27,2.02s.83-.04,3.16-.51c1.43-.29,7.58-1.53,9.1-1.83-.31-1.57-1.3-6.52-1.55-7.71-4.4,1.01-5.4,1.48-6.91,2.19-.37.18-.51.24-.76.24-.91,0-2.74-1.28-3.44-2.63-.39-.68-.3-1.47-.27-1.73l.02-.21.15.15c1.12,1.17,2.85,1.6,3.67,1.6.52,0,1.05-.09,2.13-.3.8-.17,4.15-.81,5.06-.97-1.25-6.36-1.38-6.88-4.84-7.26l-.25-.03.2-.15c.53-.41,1.43-1.1,2.47-1.1.94,0,3.29.56,3.88.92.2.12.48.35.48.9,0,.17-.08.56-.16.98-.07.35-.14.71-.14.82,0,.46.17,2.24.58,4.48,2.12-.4,5.21-.99,6.75-1.82l.37-.19c.68-.36.8-.42,1.01-.42.31,0,2.01.48,2.34.71.43.23.64.57.64,1.03,0,.5-.25,1.09-1.43,1.09-2.35.04-3.84.12-9.39,1.27.51,2.81.99,5.34,1.51,7.71.4-.09,1.13-.24,1.98-.42,1.87-.4,4.43-.94,5.1-1.14.47-.17,2.36-.94,2.74-1.11.36-.14.59-.18.9-.18,1.1,0,2.75.28,3.45.7.35.21.52.57.52,1.07,0,1.02-.73,1.05-1.95,1.09-.35,0-.69.01-1.02.02-.32.01-.64.02-.96.02-3.1.08-6.99.85-10.42,1.57.25,1.11.91,4.13,1.46,6.7.37,1.73.7,3.25.84,3.86l.12.46c.32,1.2.66,2.52.66,2.92,0,.99-.47,1.35-.92,1.35Z"/><path class="cls-1" d="m309.25,36.56c-6.06,0-7.53-.67-8.81-1.54-.91-.6-1.96-1.84-1.96-3.32,0-.53.26-2.24,1.42-3.78,1.5-1.9,3.42-3.63,5.85-5.27-.48-2.52-1.22-3.97-3.57-3.97-2.12,0-4.03,1.61-5.12,3.12-1.58,2.27-1.78,2.56-2.36,2.56-1.02,0-1.1-1.18-1.1-1.54,0-.98.36-1.24.96-1.68,2.05-1.47,5.05-6.42,6.74-9.22l-.61.11c-1.66.29-2.34.42-3.39.42-3.3,0-3.66-2.27-3.82-3.24l-.04-.24.2.14c1.24.89,2.15,1.34,3.74,1.34,2.05,0,4.28-.39,5.14-.56l.07-.19c.59-1.06,2.17-3.86,2.17-4.47,0-.79-.62-1.09-2.37-1.75l-.15-.05.11-.11c.37-.37.77-.59,1.71-.59,1.94,0,3.66,1.26,3.66,2.26,0,.22,0,.51-.58,1.34-.3.45-1.54,2.27-2.05,2.98.95-.23,2.02-.56,4.36-1.53.16-.08.74-.29,1.12-.29.72,0,2.14.38,2.14,1.26,0,.73-.74.98-1.63,1.22-2.79.69-4.32.98-7.53,1.56-1.51,2.17-3.27,4.69-4.48,6.91.92-.55,2.07-1.15,3.74-1.15,3.66,0,4.49,2.57,4.98,4.15,1.95-1.09,4.09-2.25,8.5-4.26.52-.24.78-.45.78-.95,0-.46-.41-.82-1.08-1.36l-.16-.13.19-.05c.33-.08.46-.08.67-.08.83,0,4.06,1,4.06,3.22,0,.9-.49.97-1.94,1.2l-.14.02c-2.04.27-7.38,2.48-10.5,4,.22,1.16.47,2.77.47,4.94,0,1.02-.14,3.38-1.42,3.38-.81,0-1.26-.8-1.26-2.26,0-.06.02-.41.04-.87.04-.82.08-1.96.08-2.29,0-.27-.01-.95-.1-1.71-2.85,1.89-5.82,5.04-5.82,7.27,0,2.56,3.92,2.94,6.26,2.94,2.21,0,4.58-.39,6.18-.72.7-.12.94-.16,1.3-.16,1.31,0,2.42.69,2.42,1.5,0,.14-.06.86-1.2,1.1-.97.19-3.21.4-5.86.4Z"/><path class="cls-1" d="m1.7,80.88h.17c3.29.23,5.82.36,7.13.36h24.04l1.9-2.29c.33-.42.56-.59.81-.59s.4.15.8.54l2.61,2.61c.19.19.39.38.39.69,0,.24-.13.53-.75.53H8.4c-1.45,0-3.8.16-5.49.47h-.07s-1.14-2.32-1.14-2.32Z"/><path class="cls-1" d="m44.63,100.68l.05-.03c2.42-1.56,10.53-7.45,13.5-17.49,1.56-5.33,1.92-10.76,2.06-14.9.04-.65.04-1.25.04-1.93,0-1.36-.09-1.72-.25-2.25l-.05-.17,4.73,1.07c.6.12.94.21.94.7,0,.62-.64.8-1.06.92l-.06.02c.47,8.32,2.85,16.65,6.21,21.76,3.26,4.97,7.73,8.44,12.28,9.5l.1.02-.14.47h-.07c-2.15.05-3.86,1.59-4.49,2.25l-.06.06-.07-.05c-12.03-8.4-14.15-21.82-14.62-33.86-.09,0-.17.03-.29.06l-.2.05c-.67,11.49-1.62,27.17-18.37,34.28l-.12.05-.07-.54Z"/><path class="cls-1" d="m112.21,97.48c-4.25,0-13.58-3.04-13.58-12.06,0-6.74,4.87-10.8,8.97-14.05-2.27.63-4.97,1.29-7.56,1.91-4.98,1.22-6.4,2.04-8.35,3.17l-.1.06c-.28.19-.72.41-1.21.41-.66,0-2.74-1.08-2.74-3.58,0-.6.11-.92.29-1.36l.07-.17.11.14c1.23,1.67,1.42,1.92,2.68,1.92,1.12,0,2.19-.28,6.57-1.48,5.89-1.58,17.88-4.12,18.42-4.12.63,0,2.94.72,2.94,1.98,0,.52-.28,1.14-1.62,1.14-.19,0-.73-.03-1.26-.06-.5-.03-.98-.06-1.13-.06-4.52,0-6.69,1.12-8.89,3.05-4.94,4.31-5.32,9.27-5.32,10.68,0,6.6,6.31,8.74,10.08,9.42l.15.03c.99.18,1.59.29,2.15,1.01.29.38.46.79.46,1.14,0,.55-.39.86-1.1.86Zm3.44-15.88c-.5,0-.77-.45-1.05-.93-1.38-2.55-4-4.65-4.89-5.25l.06-.18c1.22.11,2.49.56,3.76,1.33,2.54,1.59,3.05,2.59,3.05,3.69,0,.85-.34,1.34-.94,1.34Zm4.76-1.84c-.46,0-.75-.41-1.12-.93l-.08-.11c-1.35-1.94-3.29-3.36-5.17-4.73l.07-.18c2.96.45,7.12,2.23,7.12,4.78,0,1.12-.68,1.18-.82,1.18Z"/><path class="cls-1" d="m144.21,99.36c-2.65,0-5.15-1.06-6.67-2.83-1.27-1.55-1.46-3.96-1.46-5.26,0-1.03.15-2.41.43-3.9-3.46-1.53-5.15-3.21-5.15-5.14,0-1.77.91-2.48,4.3-5.14.33-.25.38-.38.38-.58,0-.1,0-.28-.35-.52-2.99-1.96-3.26-2.18-3.67-2.87-.38-.63-.45-1.17-.45-1.85v-.26l.17.2c2,2.25,5.66,3.3,7.25,3.67,1.01-4.42,1.21-6.71,1.21-7.08,0-1.51-1.38-2.56-2.12-3.12l-.17-.13.38-.1c.27-.07.57-.16,1.01-.16,2.09,0,4.14,2.14,4.14,3.38,0,.37-.03.56-.69,2.04l-.09.21c-.44,1.07-1.03,2.52-1.81,5.45.92.51,1.06,1.22,1.06,1.61,0,.68-.37.82-.98.82-.2,0-.44-.02-.72-.03l-.13.57c-.34,1.45-1.06,4.46-1.59,7.4,1.09.2,2.03.3,2.96.3,1.54.04,2.74,1.06,2.74,1.9,0,.69-.64.82-1.9.82-1.82,0-3.31-.48-4.11-.74l-.09-.03c-.09.65-.18,1.44-.18,2.59,0,1.23.11,3.02,1.06,4.34,1.06,1.53,3.03,2.48,5.16,2.48,4.06,0,6.26-3.14,6.26-6.1s-2.23-7.66-6.36-10.8l-.08-.06.32-.39.07.05c3.25,2.01,8.69,5.36,8.69,11.48s-6.37,7.78-8.82,7.78Zm-6.49-21.7c-.53,0-.93.06-1.5.41-1.53.89-3.15,2.67-3.15,4.19,0,1.78,2.1,2.63,3.74,3.11.64-4.07,1.16-6.33,1.51-7.7-.22,0-.42-.02-.6-.02Z"/><path class="cls-1" d="m166.08,102.59l.09-.02c5.83-1.37,12.68-3.35,20.08-9.53,6.06-5.04,8.55-8.98,9.27-10.27h-9.89c-2.18,2.02-3.76,3.35-5.37,4.51,1.44.45,5.77,2.31,5.77,4.98,0,1.04-.86,1.69-1.65,1.69-.85,0-1.07-.54-1.46-1.53l-.05-.12c-.66-1.54-1.78-3.13-3.23-4.59-.97.68-2.09,1.4-3.25,2.06-3.69,2.12-6.94,3.45-9.92,4.05l-.09.02-.13-.52.08-.03c2.19-.94,4.26-1.98,6.01-3,6.09-3.64,11.47-9.36,12.06-10,2.42-2.59,2.6-3.21,3.07-4.88l.03-.12.12.04,3.22,1.85c.07.04.48.32.48.69,0,.68-.48.74-1.77.91-.5.58-1.16,1.41-2.6,2.78h9.04l1.4-1.06c.39-.31.46-.32.62-.32.18,0,.29.08.54.27l2.53,1.94c.39.31.55.46.55.72,0,.82-.69.95-2.96,1.39-3.54,4.07-8.91,9.65-14.11,12.89-2.49,1.55-9.25,5.2-18.32,5.78h-.1s-.06-.56-.06-.56Zm-2.78-15.98l.1-.04c4.11-1.44,11.25-5.33,14.42-7.6,3.31-2.34,8.29-6.96,12.03-12.03h-10.47c-1.2,1.54-1.8,2.26-3.35,3.9.05.02.11.04.19.07.23.08.64.22,1.47.53,1.14.41,3.81,1.59,3.81,3.75,0,1.04-.78,1.6-1.52,1.6-.91,0-1.37-.63-1.98-1.95l-.12-.25c-.86-1.79-1-2.09-2.32-3.26-3.77,3.88-7.79,6.05-9.96,7.22l-.24.13-.26-.51.07-.05c1.6-1.15,6.58-5.26,10.38-10.3,2.94-3.92,3.12-5.01,3.38-6.52l.02-.14.13.05,3.14,1.76c.34.21.52.33.52.69,0,.7-.66.83-1.67,1.04-.18.33-.34.54-.5.75-.06.08-.12.16-.19.25h9.82l1.79-1.23c.43-.3.5-.32.62-.32.16,0,.18.01.49.23l2.53,1.67c.29.19.47.39.47.73,0,.81-.33.96-3.48,1.56-3.45,4.27-9.44,9.78-13.3,12.24-4.67,2.97-12.76,6.34-15.74,6.55h-.07s-.24-.55-.24-.55Z"/><path class="cls-1" d="m227.15,100.64c-.76,0-1.03-.59-1.53-1.66-.86-1.72-3.25-5.32-5.86-7.93l-5.68-5.64c-.41-.41-1.35-1.47-1.35-2.59,0-.98.41-1.54,1.43-2.67l.32-.34c6.74-7.32,9.01-9.79,9.75-11.08.35-.58.35-.92.35-1.07,0-.59-.14-.78-1.45-2.53l-.23-.31.23.03c1.5.19,2.22.51,2.52.69,1.03.6,1.93,2.17,1.93,3.37,0,.64-.19.79-1,1.45-1.82,1.41-8.28,7.95-10.87,10.82-.73.86-.73,1.32-.73,1.57,0,.9.66,1.54,2.63,3.44l.1.09c1.64,1.56,3.28,3.12,4.96,4.68,1,.93,5.99,5.67,5.99,7.51,0,.63-.53,2.18-1.5,2.18Z"/><path class="cls-1" d="m259.27,96.51l.08-.03c11.55-3.98,12.45-12.26,12.45-14.7,0-6.67-6.31-10.66-12.42-10.66-.69,0-.97.06-1.27.14,1.67,1.45,1.85,2.57,1.85,3s-.1.62-.62,1.72l-1.07,2.23c-4.18,8.78-4.72,9.91-6.89,13.14l-.06.08c-.99,1.41-1.76,2.23-2.27,2.43-.27.14-.58.17-.8.17-.94,0-1.26-.45-2.3-1.94l-.1-.14c-.27-.38-.48-.57-1.02-1.02-1.61-1.32-2.16-2.75-2.16-5.51,0-7.72,6.4-15.7,17.1-15.7,7.06,0,14.66,3.92,14.66,12.54,0,7.76-6.29,14.01-14.97,14.86h-.09s-.11-.61-.11-.61Zm-3.2-24.91c-4.44.39-11.1,6.15-11.1,14.01,0,2.97,1.89,5.62,3.38,5.62.2,0,.47-.03.69-.25.87-.87,1.59-2.2,2.3-3.49l3.44-6.53c1.14-2.13,2.35-5.27,2.35-6.91,0-1.27-.71-2.07-1.06-2.45h0Z"/><path class="cls-1" d="m291.59,99.04c-.53,0-.76-.32-1.36-1.16-.24-.35-.58-.79-1.54-1.62-.2-.16-1.35-1.04-2.51-1.89-.65.97-1.08,1.44-1.66,1.44-.95,0-2.33-.97-2.92-1.84-.43-.7-.37-1.53-.34-1.98v-.18s.3.21.3.21c1.23.9,1.26.92,1.6.92.2,0,.25-.01.9-.54,2.52-1.92,5.72-4.13,7.45-5.32-.04-.37-.06-1.6-.08-2.81-.02-1.15-.04-2.28-.04-2.67,0-.34.04-1.77.07-2.74-.94.3-2.71.84-4.21.84-1.03,0-3.16-.87-3.7-2.95l-.07-.29.23.18c.96.76,1.49,1.18,3.46,1.18,1.15,0,3.24-.67,4.34-1.09.04-.76.16-3.51.16-4.05,0-.9-.08-3.61-.43-4.31q-.19-.41-2.12-1.44l-.18-.1.19-.08c.47-.21.81-.37,1.72-.37,1.63,0,4.06.95,4.06,2.26,0,.38-.09.68-.29,1.31-.38,1.11-.81,2.58-1.1,6.01,2.21-.94,2.64-1.3,3.06-1.64.83-.66,1.01-.66,1.54-.66,1.28,0,1.86.55,1.86,1.06s-.28.8-1.02,1.13c-.11.04-.55.23-1.17.49-1.29.55-3.22,1.38-4.41,1.84-.08,1.86-.12,3.52-.12,4.21,0,.35.02.92.06,2.07l.05,1.43c3.21-2,7.06-4,11.38-4,4.07,0,8.18,2.1,8.18,6.78,0,5.05-4.48,7.7-8.9,7.7-4.65,0-6.21-2.09-7.72-4.12l-.07-.09.35-.21.05.04c1.14.89,2.97,2.34,6.38,2.34,2.64,0,7.1-1.18,7.1-5.62,0-5.08-5.58-5.14-5.82-5.14-2.5,0-7,1.22-10.94,3.9.12,1.27.16,2.67.2,4.07,0,.17.05.78.11,1.42.06.72.13,1.46.13,1.7,0,2.5-1.35,4.38-2.22,4.38Zm-4.16-4.85c.77.33,1.74.75,2.04.9.8.36.98.43,1.27.43.6,0,.78-.5.78-2.22v-1.16c0-1.53,0-1.78-.04-3.32-2.05,1.64-3.66,3.28-4.91,4.99.19.08.5.22.85.37Zm18.54-15.74l.05-.03c.46-.25,1.1-.59,2.54-1.83.75-.67.88-.85.88-1.16,0-1.25-2.84-2.5-5.58-3.71l-.28-.12.42-.1c.3-.07.59-.13,1.06-.13,6.81,0,8.3,4.52,8.3,6.26,0,.97-.79.98-.82.98-.42,0-.87-.2-1.04-.29-.84-.4-1.15-.47-1.63-.47-.93,0-1.86.29-3.77.95l-.13.05v-.4Z"/><path class="cls-1" d="m330.38,102.12c-.48,0-1.05-.2-1.05-1.18,0-.39.17-2.22.22-2.68.13-2.9.17-5.84.13-8.74-5.1,2.22-8.26,2.91-9.62,3.21l-.08.02-.06-.08-.16-.44.09-.04c6.76-2.8,12.78-6.27,17.9-10.32-1.27-1.07-3.14-2.83-5.06-5.94-1.3,1.29-6.91,6.65-11.48,7.81l-.12.03v-.39c4.7-3.1,11.09-9.62,12.26-12.55.09-.21.38-1.24.42-1.48l.02-.15,3.22,2.06.1.07c.18.12.42.28.42.62,0,.48-1.21.78-1.93.92-.26.35-.54.64-.77.88h9.99l1.01-.88c.24-.19.51-.41.79-.41.19,0,.49.21.75.41l1.98,1.81c.09.09.25.25.25.63,0,.57-.66.66-.95.7-.72.08-.97.21-1.29.42-1.52,1.61-3.53,3.74-6.11,5.84,2.26,1.35,8.36,4.29,18.49,4.34h.1v.32c-2.03,1.31-2.72,2.46-3.23,3.3l-.04.06h-.08c-9.44-2.21-14.82-5.46-16.74-6.81-2.62,1.99-5.61,3.86-8.66,5.39l1.19.77,14.69-.02.79-.83c.22-.26.37-.29.5-.29h0c.27,0,.46.06.83.37l1.59,1.2c.08.05.34.25.34.55,0,.25-.15.48-.4.61l-.08.05c-.2.13-.66.43-.76.53.03.87.03,1.65.07,2.89.04.76.26,4.6.26,5.46,0,1.09-.63,1.69-1.78,1.69-.41,0-.66-.07-.82-.25-.27-.28-.28-.8-.23-1.82h-15.23c0,.96-.06,2.32-1.69,2.32Zm16.93-3.55v-7.71h-15.24v7.71h15.24Zm-13.96-23.29c2.7,3.25,4.91,4.94,5.71,5.54,2.28-1.89,4.29-3.85,5.98-5.84h-11.4l-.29.29Zm-10.63-.94c-.98,0-1.6-.9-1.6-1.52,0-.89.7-1.47,2.22-2.75l.09-.08c2.06-1.69,2.32-3.19,2.45-3.92v-.08s.11-.07.11-.07h.28l.02.06c.22.57.3.97.35,1.7h11.76v-1.1c0-1.91-.6-3.12-.89-3.7l-.1-.2,4.56,1.17c.27.05.55.27.55.57,0,.33-.65.84-1.43,1.43l-.16.12c.04.07.03.47.02.87,0,.33-.02.65-.02.84h11.59l1.32-.89.09-.06c.35-.21.43-.26.78-.26.3,0,.67.24.76.33l2.45,2.76c.2.25.2.49.2.58,0,.83-.79.83-1.13.83-.46,0-1.71-.08-2.12-.13-.74.8-.99,1.05-3.41,3.12l-.06.06-.42-.36.03-.07c.3-.68,1.2-3.14,1.68-4.68h-26.04c-.26,3-2,5.42-3.92,5.42Z"/><path class="cls-1" d="m386.4,102.38c-.38-2.05-1.39-2.54-2.91-3.28l-.06-.03v-.43h.11c.5.05,2.45.18,2.79.18.96,0,1.43-.1,1.59-.34.2-.32.2-.54.2-2.65v-13.92h-2.26c-1.45,0-3.8.16-5.49.47h-.07s-1.16-2.06-1.16-2.06l.19.02c3.34.29,6.47.34,7.13.34h1.71v-3.76c-2.35,0-4.39.18-6.07.51h-.07s-1.16-2.06-1.16-2.06h.19c3.12.26,5.58.31,7.12.31,0-1.82.01-3.01.04-3.45h-2.43c-1.49,0-3.85.16-5.53.51l-.07.02-1.16-2.08h.19c3.38.26,6.56.31,7.17.31h4.41c1.97-3.87,3.04-6.82,3.1-8.55v-.16s3.11,1.62,3.11,1.62c.58.31.66.56.66.73,0,.65-.66.79-1.67,1l-.14.22c-1.21,1.54-2.84,3.63-4.09,5.13h4.95l1.14-1.09.19-.17c.24-.22.41-.38.66-.38.3,0,.58.24.88.5l1.37,1.07c.22.17.47.41.47.72,0,.57-.54.57-.75.57h-10.23c-.02.54,0,1.98,0,2.85v.6h3.95l1.09-1.05.15-.13c.26-.23.46-.41.64-.41.15,0,.36.12.88.49l1.46,1.03c.23.18.47.47.47.73,0,.38-.25.57-.74.57h-7.9v3.76h7.64l1.09-1.17c.22-.25.54-.55.8-.55s.67.31.88.5l1.29,1.16c.25.21.46.41.46.72,0,.21-.1.57-.75.57h-11.33c.1,1.05.64,4.22,3.38,7.82,1.94-2.37,3.13-4.39,3.55-6.01l.04-.14,2.7,2.02.09.06c.18.12.42.28.42.62s-.23.6-.63.7c-.12.05-.38.08-.74.13-.25.03-.55.07-.86.13-1.07,1.09-3.16,2.56-4.08,3.11,3.92,4.56,7.92,5.55,9.63,5.98l.08.02v.48h-.1c-1.49,0-2.83.55-3.89,1.6l-.06.06-.07-.06c-5.01-4.12-7.92-7.38-9.55-13.34.01,1.45.05,3.97.09,6.43.04,2.86.08,5.65.08,6.62,0,2.36-1.03,3.45-4.07,4.31l-.11.03-.02-.11Zm-14.78-.05c-1.26,0-1.26-.95-1.26-1.26s.06-1.19.11-2.05c.05-.82.1-1.63.1-1.91.15-3.83.21-10.62.21-15.89-2.49,6.3-5.32,9.72-7.53,12.01l-.04.04-.49-.14.07-.11c5.72-9.28,7.59-17.41,7.8-19.2-2.99,0-4.95.26-6.06.47h-.07s-1.11-2.06-1.11-2.06h.18c3.26.28,6.13.35,7.29.36,0-2.99-.05-6.55-.17-7.67-.17-1.33-.33-1.75-.59-2.38l-.09-.2,3.86,1.23c.33.12.63.27.63.7,0,.73-.95,1.17-1.33,1.32,0,.33-.01,1.02-.03,1.88-.02,1.54-.06,3.62-.06,5.14h1.96l.79-.87c.3-.35.51-.55.72-.55.25,0,.47.13.93.54l.9.82c.25.21.46.41.46.72,0,.36-.29.57-.79.57h-4.97v3.71c2.96,1.61,4.9,2.68,4.9,4.66,0,.99-.75,1.35-1.26,1.35-.91,0-1.18-.7-1.73-2.08-.27-.63-.83-1.67-1.91-3.1,0,2.02.07,6.75.13,11.33.06,4.63.12,8.99.12,10.52,0,.74,0,2.12-1.69,2.12Zm7.31-3.31c-.32,0-.56-.31-.77-.65l-2.01-2.92h.21c.2.03.38.04.56.04.91,0,1.63-.23,3.17-1.04,2.15-1.18,5.28-3.12,6.79-4.08l.09-.06.21.42-.05.05c-2.33,2.32-2.79,2.75-7.14,6.5-.26,1.18-.39,1.74-1.05,1.74Zm3.7-8.73c-1.01,0-1.27-.77-1.64-1.83-.22-.6-.82-2.28-2.26-3.88l-.06-.07.28-.28.06.02c2.08.61,5.1,2.65,5.1,4.48,0,.98-.75,1.56-1.48,1.56Zm2.88-20.3c-.97,0-1.2-.68-1.63-1.93-.02-.06-.61-2.02-2.18-3.83l-.02-.32v-.14l.13.04c4.81,1.62,5.18,3.9,5.18,4.57,0,.96-.59,1.6-1.48,1.6Z"/><path class="cls-1" d="m415.31,99.89c-.72,0-1.53-.9-1.89-1.51-1.98-3.39-2.38-6.74-2.38-11.06,0-1.27.1-2.68.3-4.1l1.38-9.42c.12-.74.26-1.89.26-3.12,0-2.3-.81-3.26-1.29-3.83l-.12-.14.16-.04c.11-.02.22-.02.33-.02,1.89,0,4.08,2.44,4.08,4.04,0,.34-.55,2.01-.69,2.4-.84,2.65-2.44,9.03-2.44,14.2,0,3.82.8,6.13,1.15,6.13.15,0,.35-.48.37-.6,1.29-4.01,1.96-5.66,3.73-10.05l.23-.57.51.32-.02.07c-.3,1.28-1.74,6.9-2.06,8.17-.62,2.49-.9,3.79-.9,4.92,0,.36.13,1.95.19,2.63.02.22.03.37.03.38,0,.33,0,1.22-.92,1.22Zm23.13-3.83c-2.21,0-9.11-.33-11.75-1.82-2.91-1.6-3.06-4.54-3.06-5.12s.08-.9.22-1.32l.09-.27.14.39c.79,2.11,1.31,3.51,3.08,4.34,2.49,1.14,6.35,1.19,7.1,1.19,1.55,0,2.27-.09,4.54-.39.35-.04.57-.04.74-.04.8,0,3.11.6,3.11,1.73,0,1.24-1.61,1.3-4.23,1.3Zm-8.61-20.11l.19-.16c3.66-2.96,4.25-3.64,4.27-3.78,0-.11-.5-.24-1.23-.24-1.19,0-4.5.5-8.31,1.84l-.09-.17c4.1-3.16,6.83-3.8,9.65-3.8,2.52,0,6.25.69,6.25,2.16,0,.83-.71.96-2.27,1.26-3.71.7-6.25,2.13-8.05,3.3l-.08.05-.33-.46Z"/><path class="cls-1" d="m8.7,163.86c-.94,0-1.13-.55-1.13-1,0-.14.02-.49.05-.82.02-.3.04-.58.04-.69.2-2.93.43-8.21.43-13.46,0-1.63,0-2.73-.11-3.57-3.66,2.44-6.82,2.88-7.86,3.02l-.11.02v-.48l.06-.02c5.63-2.25,8.91-5.92,10.66-8.6,1.85-2.85,3.3-6.06,4.42-9.82h-6.83c-1.49,0-3.85.16-5.53.51l-.07.02-1.16-2.12.19.02c3.64.34,7.03.34,7.17.34h24.04l.96-.96.17-.14c.25-.21.46-.4.63-.4.2,0,.56.22.7.32l1.99,1.64c.18.17.38.38.38.59,0,.59-.58.87-1.78,1.38-3,12.35-6.87,13.38-10.9,13.38h-.46s0-.09,0-.09c-.08-.96-.21-2.4-2.75-4.23l-.07-.05.2-.46.08.02c3.84,1.1,5.15,1.33,5.56,1.33,1.52,0,2.49-1.46,3.56-3.81.86-1.88,1.89-5.05,2.13-7.3h-14.87c-2.28,6.6-5.51,11.38-7.78,13.64-.97.97-1.56,1.41-2.17,1.86l2.92,1.77h19.43s.82-1.14.82-1.14c.49-.49.55-.55.85-.55.22,0,.83.49.84.49,0,0,1.86,1.51,1.95,1.58.28.22.37.3.37.47,0,.39-.41.58-.79.74-.05.03-.24.13-.44.23-.19.1-.38.19-.44.23l.04,6.71c0,.6.02,2.22.04,3.79.02,1.49.04,2.93.04,3.43,0,1.35-.68,2.04-2.03,2.04-.7,0-1-.39-1-1.3,0-.2,0-.6.07-1.15H10.79c.07.7.07,1.09-.11,1.49-.26.71-1.22,1.09-1.98,1.09Zm22.56-3.81v-13.13H10.78v13.13h20.48Z"/><path class="cls-1" d="m59.55,161.04c-.18,0-4.37-.02-5.99-1.87-1.39-1.6-1.66-4.3-1.66-8.14,0-.62.2-8.56.24-9.76l.05-1.38c.07-2.06.19-5.51.19-6.38,0-3.24-1.06-3.65-2.66-4.28l-.13-.05.02-.14c.31-.35.74-.67,1.83-.67,1.7,0,4.02,1.95,4.02,3.06,0,.32-.15,1.18-.26,1.88l-.06.34c-.93,5-1.44,12.99-1.44,17.98,0,1.51,0,5.05.78,6.1.71.94,1.96,1.4,3.8,1.4,4.99,0,13.71-4.23,17.09-7.57l.08-.08.23.3-.03.06c-2.83,5.34-9.59,9.21-16.09,9.21Z"/><path class="cls-1" d="m82.52,159.22l.19.02c3.24.26,6.4.34,7.13.34h9.19v-16.28c0-11.61-.21-15.12-.38-16.02-.13-.67-.29-1-.46-1.35l-.1-.2,4.43,1.13c.24.07.72.21.72.7s-.37.77-1.28,1.45l-.18.14c0,.5-.05.95-.05,1.6-.03.97-.04,4.29-.04,9.36h8.84l1.6-2.11c.35-.44.5-.55.72-.55.25,0,.7.31.88.45l2.63,2.15.1.1c.16.15.36.33.36.63,0,.42-.38.57-.74.57h-14.44c-.08,9.03-.08,10.97,0,18.25h13.7l1.56-2.03c.43-.51.59-.55.77-.55.27,0,.73.35.84.46l2.44,2.06c.22.17.47.37.47.72,0,.42-.38.57-.74.57h-31.43c-1.45,0-3.81.16-5.49.47h-.07s-1.16-2.06-1.16-2.06Z"/><path class="cls-1" d="m142.69,160.8c-.64,0-.69-.23-1.06-1.72-.32-1.23-2.4-3.86-3.3-4.88l.02-.29.03-.15.79.54c3.13,2.13,3.53,2.41,4.47,2.41.61,0,1.12-.4,1.51-1.18,2.55-5.02,2.83-10.37,2.83-12.43,0-1.85,0-4.38-2.62-4.38-.92,0-1.83.17-3.45.64l-.44,1.17c-3.19,7.84-6.2,15.24-8.71,18.75-.17.26-.44.56-.92.56-.67,0-1.02-1.28-1.02-1.82,0-.67,0-.71,1.42-2.89,3.29-5.11,5.13-9.52,7.43-15.06-3.03,1.04-4.26,1.57-5.65,2.44-.66.41-1.11.69-1.57.69-.86,0-3.34-1.33-3.34-3.86,0-.37.08-.63.25-1l.08-.18.1.17c.88,1.54,1.49,2.03,2.51,2.03.29,0,.63-.03,1.81-.4,1.13-.34,2.56-.73,3.98-1.12.9-.24,1.8-.49,2.62-.72l-.03-.04c.65-1.66,1.99-5.11,1.99-6.5,0-1.5-1.87-2.28-2.98-2.62l-.19-.06.13-.13c.36-.28.7-.54,1.62-.54,1.57,0,4.58,1.12,4.58,2.66,0,.4-.15.85-.45,1.33-1.08,1.92-1.55,3.12-2.42,5.3l-.02.06c1-.26,1.9-.39,2.75-.39,4.82,0,4.82,4.34,4.82,6.42,0,3.17-1.01,12.98-5.48,16.32-.77.56-1.66.86-2.1.86Zm19.92-12.4c-.19,0-.62-.23-1.2-.56-.25-.14-.46-.26-.55-.29-.64-.23-2.97-.63-4.52-.9-.56-.1-1.01-.17-1.23-.22l-.08-.02v-.46h.1c2.15-.08,3.73-.54,4.17-.72.28-.11.94-.43.94-1.11s-2.33-4.39-7.75-7.83l-.28-.18h.33c3.87,0,10.98,5.51,10.98,10.41,0,1.23-.3,1.86-.9,1.86Zm-1.88-11.64c-.3,0-.87-.5-1.53-1.1-.18-.17-.33-.3-.4-.36-1.86-1.45-3.59-2.23-5.18-2.87l-.24-.1.25-.09c.46-.17.8-.25,1.47-.25,1.91,0,6.58,1.28,6.58,3.66,0,.36-.23,1.1-.94,1.1Zm4.04-3.32c-.34,0-1.04-.61-1.79-1.29-.19-.17-.34-.31-.43-.37-1.35-.93-3.21-1.75-5.53-2.42v-.19c.7-.15,1.33-.24,2.15-.24,2.18,0,6.3.74,6.3,3.54,0,.6-.27.98-.7.98Z"/><path class="cls-1" d="m182.41,158.58c-.5,0-1,0-1.52-.02h-.1v-.72h.1c3.34-.15,9.76-1.28,12.91-3.23,2.58-1.58,4.11-4.01,4.11-6.51,0-3.29-2.85-5.78-6.62-5.78-4.3,0-9.77,3.06-13.29,6.09l-.23.2c-.84.72-.97.83-1.23.83-.75,0-2.66-1.41-2.66-3.18,0-.4.04-.65.25-1.12l.06-.14.1.11c.49.53,1.16,1.25,1.89,1.25.52,0,.92-.17,2.15-.91,3.59-2.16,7.92-4.37,12.77-4.37,6.69,0,9.06,3.98,9.06,7.38,0,4.89-4.66,10.12-17.74,10.12Z"/><path class="cls-1" d="m231.61,160c-1.07,0-4.18-.78-6.8-2.05-4.52-2.15-6.58-6.7-6.58-10.01,0-2.3.9-8.25,9.12-14.2-3.31.3-12.9,3.45-15.45,4.69-1.27.62-1.42.69-1.64.69-.35,0-2.78-.73-2.78-3.66,0-.72.12-1.11.33-1.52l.09-.18.09.18c.33.66,1.01,2.02,2.95,2.02.49,0,1.28-.12,1.74-.24l10.88-2.64c1.15-.29,9.66-1.96,10.08-2.04l.53-.12c.77-.18,1-.24,1.41-.24,1.46,0,3.06,1.04,3.06,1.98,0,.78-.5,1.18-1.5,1.18-.31,0-1.13-.04-1.92-.08-.73-.04-1.43-.08-1.68-.08-7.37,0-13.3,7.76-13.3,14.18s6.24,8.24,9.96,8.98c1.05.19,2.8.52,2.8,2.18,0,.61-.52.98-1.38.98Z"/><path class="cls-1" d="m254.97,156.84c-.84,0-5.1-.42-7.1-8.8-.31-1.23-.36-1.93-.63-5.84l-.17-2.49c-.24-3.28-.37-4.23-1.9-6.63l-.1-.16h.19c2.12.09,4.54,2.33,4.54,4.23,0,.45,0,.57-.24,1.74-.25,1.4-.28,2.54-.28,3.38,0,2.57.62,7.91,2.96,9.76l.08.06c.16.12.47.36.74.36.39,0,.72-.28.87-.55,2.75-4.31,3.24-5.02,5.57-8.43l.59-.86c.03-.07.24-.4.36-.56l.05-.07.56.28-.04.09c-.6,1.19-4.8,9.84-4.96,10.23-.15.5-.27.93-.27,1.44,0,.13.07.52.14.9.07.41.14.79.14.94,0,.45-.29.98-1.1.98Zm21.36-6.52c-.32,0-.47-.11-1.46-.94-1.32-1.13-2.2-1.3-4.78-1.8l-.08-.02-.09-.1v-.37h.09c.48-.08,2.43-.38,3.32-.52l.36-.05c.44-.05.96-.26.96-.9s-1.6-7.23-7.33-9.38l-.24-.09.24-.1c.23-.09.76-.25,1.28-.25.84,0,2.88.53,4.63,2.51,3.16,3.58,4.34,7.73,4.34,9.5,0,1.18-.52,2.5-1.22,2.5Z"/><path class="cls-1" d="m311.53,159.8c-2.85,0-6.7-.25-8.81-1.41-1.84-.98-2.93-2.62-2.93-4.37,0-1.32.5-2.26.77-2.77l.17-.31.02.35c.22,3.28.41,6.11,8.34,6.11,2.48,0,4.27-.29,4.46-.32l.19-.03c.66-.1.88-.13,1.15-.13,1.26,0,2.02.84,2.02,1.66,0,.45-.33.79-.88.9-.67.15-2.25.32-4.5.32Zm-24.24-.12c-.79,0-1.14-1.06-1.14-1.82,0-.72.09-.84,1.13-2.37l.17-.25c1.62-2.35,2.3-4.04,6.77-15.07l.5-1.23s.15-.43.16-.46c-1.72.38-4,.68-5.27.68-1.56,0-3.3-.95-3.97-2.17l-.11-.2.23.06c.59.15,1.96.52,4.05.52,1.79,0,3.65-.28,5.85-.88.18-.69,1.45-4.54,1.45-5.86s-.85-1.77-1.94-2.32l-.31-.16.34-.15c.29-.13.56-.26,1.09-.26,3.15,0,3.86,2.33,3.86,3.14,0,.19-.19.57-.66,1.29-.62,1.07-1.25,2.55-1.63,3.57,1.71-.66,2.54-1.13,3.22-1.5l.16-.09c.38-.26,1.55-.93,2.25-.93.5,0,1.42.33,1.42,1.14,0,.32-.06.57-.89,1.01-2.13,1.19-4.27,1.83-7.06,2.61.01.11-.05.26-.16.55l-.17.46c-3.84,10.75-7.77,19.18-8.16,19.93-.22.5-.62.77-1.17.77Zm21.16-15.66l.44-.37c2.17-1.82,2.98-2.5,2.98-2.95,0-.7-1.76-1.06-3.5-1.06-.85,0-1.58.06-2.22.11-.28.02-.54.04-.77.05l-.35.02.29-.2c1.91-1.34,4.11-1.62,5.62-1.62,4.19,0,6.14,1.97,6.14,3.3,0,.57-.34.86-1.02.86-.11,0-.42-.02-.71-.04-.25-.02-.5-.04-.57-.04-.22.01-3.44.65-5.86,2.22l-.06.04-.39-.32Z"/><path class="cls-1" d="m351.01,159.76c-3.86,0-6.61-.73-8.42-2.22-.6-.51-1.6-1.66-1.6-3.6,0-.97.22-1.85.65-2.61l.17-.29.02.34c.2,3.3.91,6.02,7.62,6.02,1.21,0,3.19-.08,5.78-.48.35-.04.54-.07.66-.09.13-.02.19-.03.27-.03.72,0,1.94.88,1.94,1.54,0,1.25-3.59,1.42-7.1,1.42Zm-22.48,0c-.8,0-1.22-.94-1.22-1.62,0-.52.04-.59,1.05-2.41l.2-.35c3.76-6.58,6.23-13.79,7.29-16.89-2.45.59-4.47.64-5.05.64-3.03,0-3.75-1.36-4.13-2.09l-.12-.22.24.08c.46.15,1.54.51,3.45.51,1.8,0,4.73-.51,6.33-1,.77-2.52,1.45-5.2,1.45-5.9,0-1.05-.74-1.51-1.96-2.25l-.19-.12.18-.08c.66-.2.97-.28,1.71-.28,2.42,0,3.18,2.1,3.18,2.7,0,.27-.06.46-.49,1.36-.82,1.68-1.13,2.49-1.56,3.62l-.08.2c1.65-.71,2.92-1.35,3.89-1.98l.09-.06c.64-.39.72-.44,1.28-.44.78,0,1.62.41,1.62,1.06,0,.44-.33.7-.69.92-.52.33-3.04,1.49-7.1,2.77l-.06.28c-3.7,10.17-5.94,16.3-7.96,20.18l-.09.18c-.39.75-.62,1.2-1.28,1.2Zm21.03-16.01l.06-.05c1.59-1.25,3.2-2.75,3.2-3.28,0-.71-1.49-.74-5.92-.85l-.86-.02.21-.17c1.78-1.43,5.03-1.5,5.66-1.5,2.41,0,5.98.95,5.98,2.98,0,1.1-.77,1.1-1.94,1.1-1.55,0-2.65.3-6.15,2.07l-.09.05-.16-.32Zm6.12-8.79c-.49,0-.63-.11-2.15-1.63-1.13-1.09-1.65-1.45-4.22-3.15l-.28-.18h.33c2.98,0,7.18,1.2,7.18,3.86,0,.51-.23,1.1-.86,1.1Zm3.6-3.68c-.52,0-.87-.31-1.31-.75-1.7-1.7-3.28-2.49-5.6-3.34l-.32-.12.33-.08c.52-.12.77-.16,1.5-.16,1.84,0,4.15.68,5.38,1.58.7.5.88,1.39.88,1.84,0,.65-.31,1.02-.86,1.02Z"/><path class="cls-1" d="m385.25,161.8c-1.32,0-4.72-.1-7.75-1.04-3.6-1.07-5.43-3.01-5.43-5.77s1.47-5.94,8.5-5.94c2.34,0,5.56.37,8.42.96.08.01.28.06.5.1.33.07.83.18.92.18.22,0,.22-.14.22-.18,0-.16-.13-.45-.3-.66-.77-1.1-2.74-3.94-4.56-6.78-4.44,1.62-8.29,1.98-9.4,1.98-1.81,0-4.17-1.17-4.77-2.91l-.08-.22.43.19c1.71.77,2.35,1.05,4.06,1.05s5.43-.63,8.73-1.79c-.65-1.15-1.48-2.7-2.75-5.46-1.95.6-4.54,1.22-5.59,1.22-1.42,0-3.45-1.08-4.44-2.36l-.2-.26.58.19c.82.28,1.83.63,3.18.63,1.97,0,4.24-.72,5.46-1.1l.2-.06c-.11-.26-.3-.72-.51-1.24-.49-1.2-1.16-2.85-1.4-3.25-.42-.75-1.39-1.08-3.13-1.08-.2,0-.41,0-.62.01h-.26s.18-.17.18-.17c1.1-1.1,1.55-1.55,3.15-1.55,1.3,0,3.17.54,3.3,1.57.03.23.08.66.13,1.12.07.63.15,1.35.19,1.56.11.59.47,1.7.72,2.36.07-.04.16-.07.26-.12.47-.21,1.17-.53,2.11-1.11l.12-.07c1.24-.74,1.92-1.14,2.57-1.14s1.5.42,1.5,1.1c0,.62-.37.81-1.26,1.25-2.43,1.16-3.04,1.44-4.59,1.97.65,1.64,1.24,2.9,2.71,5.37,1.23-.52,1.84-.87,3.63-1.92,1.08-.68,1.22-.73,1.93-.73,1.04,0,1.74.51,1.74.98,0,.6-.72.98-1.26,1.21-.56.28-3.02,1.37-4.97,2.16,1.71,2.65,3.18,4.33,4.74,6.12l.15.17c.07.08,1.82,1.98,1.82,2.83,0,.62-.31,2.94-1.22,2.94-.34,0-1.17-.51-2.14-1.13-.3-.19-.54-.34-.66-.4-2.19-1.08-6.65-2.19-10.31-2.19-2.28,0-6.1.56-6.1,4.34,0,4.02,5.83,4.62,9.3,4.62.32,0,1.24-.05,2.15-.1.88-.05,1.75-.1,2.05-.1,1.08,0,2.18.43,2.18,1.38,0,.79-.29,1.3-4.14,1.3Z"/><path class="cls-1" d="m433.13,159.8c-2.85,0-6.7-.25-8.81-1.41-1.84-.98-2.93-2.62-2.93-4.37,0-1.32.5-2.26.77-2.77l.17-.31.02.35c.22,3.28.41,6.11,8.34,6.11,2.48,0,4.27-.29,4.46-.32l.19-.03c.66-.1.88-.13,1.15-.13,1.26,0,2.02.84,2.02,1.66,0,.45-.33.79-.88.9-.67.15-2.25.32-4.5.32Zm-24.24-.12c-.79,0-1.14-1.06-1.14-1.82,0-.72.09-.84,1.13-2.37l.17-.25c1.62-2.35,2.3-4.04,6.77-15.07l.5-1.23s.15-.43.16-.46c-1.72.38-4,.68-5.27.68-1.56,0-3.3-.95-3.97-2.17l-.11-.2.23.06c.59.15,1.96.52,4.05.52,1.79,0,3.65-.28,5.85-.88.18-.69,1.45-4.54,1.45-5.86s-.86-1.77-1.94-2.33l-.31-.16.34-.15c.29-.13.56-.26,1.09-.26,3.15,0,3.86,2.33,3.86,3.14,0,.19-.19.57-.66,1.29-.62,1.06-1.25,2.54-1.63,3.57,1.71-.66,2.54-1.13,3.22-1.5l.16-.09c.38-.26,1.55-.93,2.25-.93.5,0,1.42.33,1.42,1.14,0,.32-.06.57-.89,1.01-2.14,1.19-4.27,1.83-7.06,2.61.01.11-.05.26-.16.55l-.17.46c-3.84,10.75-7.77,19.18-8.16,19.93-.22.5-.62.77-1.17.77Zm21.16-15.66l.44-.37c2.17-1.82,2.98-2.5,2.98-2.95,0-.7-1.76-1.06-3.5-1.06-.85,0-1.58.06-2.22.11-.28.02-.54.04-.77.05l-.35.02.29-.2c1.91-1.34,4.11-1.62,5.62-1.62,4.19,0,6.14,1.97,6.14,3.3,0,.57-.34.86-1.02.86-.11,0-.41-.02-.71-.04-.26-.02-.5-.04-.57-.04-.22.01-3.44.65-5.86,2.22l-.06.04-.39-.32Z"/><path class="cls-1" d="m457.37,156.84c-.84,0-5.1-.42-7.1-8.8-.31-1.22-.35-1.93-.63-5.83l-.18-2.5c-.24-3.28-.37-4.23-1.9-6.63l-.1-.16h.19c2.12.09,4.53,2.33,4.53,4.23,0,.45,0,.57-.24,1.74-.25,1.4-.28,2.54-.28,3.38,0,2.57.62,7.91,2.96,9.76l.08.06c.16.12.47.36.74.36.39,0,.72-.28.87-.55,2.75-4.31,3.24-5.02,5.57-8.43l.59-.86c.03-.07.24-.4.36-.56l.05-.07.56.28-.04.09c-.6,1.19-4.8,9.84-4.96,10.23-.15.5-.27.93-.27,1.44,0,.13.07.52.14.9.07.41.14.79.14.94,0,.45-.29.98-1.1.98Zm21.36-6.52c-.32,0-.47-.11-1.46-.94-1.33-1.13-2.2-1.3-4.78-1.8l-.08-.02-.09-.1v-.37h.09c.48-.08,2.43-.38,3.32-.52l.36-.05c.44-.05.96-.26.96-.9s-1.6-7.23-7.33-9.38l-.24-.09.24-.1c.23-.09.75-.25,1.28-.25.84,0,2.88.53,4.63,2.51,3.16,3.58,4.34,7.73,4.34,9.5,0,1.18-.52,2.5-1.22,2.5Z"/><path class="cls-1" d="m25.73,223.64c-1.5,0-5.19-1.38-6.4-1.93-3.47-1.53-5.02-4.62-5.02-7.01,0-1.82.83-6.42,8.39-10.2-3.89.22-11.47,2.57-15.48,4.85-.68.38-1.53.65-2.05.65-1.02,0-1.7-.62-1.7-1.54,0-.97.69-1.14,1.84-1.42,3.65-.91,6.84-3.59,13.18-8.92,2.75-2.35,5.34-5.26,5.34-6.02,0-.35-.29-.38-.38-.38-.22,0-3.72.97-4.88,1.55-.98.49-1.5.9-2.18,1.47-.58.47-.98.7-1.5.7-1.25,0-2.78-1.71-2.78-3.7,0-.46.08-.79.16-1.07l.06-.21.12.19c.82,1.27,1.76,1.71,2.32,1.71.5,0,.99-.15,1.89-.44,3.96-1.19,7.12-1.72,7.47-1.72,1.2,0,3.1,1.58,3.1,2.9,0,.58-.18.7-1.21,1.32-.67.42-1.07.73-1.62,1.15l-.21.16-.22.18c-6.25,5.08-7.55,6.14-11.67,8.83-.47.29-1.23.84-1.28.97,0,.09.08.13.14.13.12,0,.73-.15,1.45-.36,4.95-1.51,6.76-1.85,14.41-3.26l2.08-.38c.32-.06.71-.15,1.11-.25.76-.18,1.61-.39,2.22-.39.99,0,3.14,1.11,3.14,2.22,0,.41-.2.9-1.14.9-.33,0-1.24-.07-2.13-.14-.84-.07-1.7-.14-1.99-.14-5.01,0-9.79,2.3-12.8,6.16-.98,1.25-1.42,2.42-1.42,3.82,0,4.21,4.82,6.38,9.3,6.62,1.6.08,1.93,1.64,1.93,1.94,0,.95-.92,1.06-1.62,1.06Z"/><path class="cls-1" d="m51.89,223c-.77,0-1.03-.93-1.24-1.68-.28-1.08-.43-1.42-1.44-3.62l-.25-.56.35-.21.05.06c.51.6,1.52,1.46,1.69,1.48.19,0,.22-.24.22-.38,0-.65-.08-2.43-.17-4.14-.07-1.41-.13-2.76-.15-3.48-1.1,1.72-4.78,7.72-5.18,8.4-.25.4-.55.89-1.05.89-.56,0-.94-.67-.94-1.66,0-1.22.39-1.63.99-2.27,1.2-1.23,4.46-6.32,6.22-10.93.07-1.2.11-1.62.25-3.12v-.02c-.85.45-3.45,1.84-3.71,1.99-1.11.6-1.29.65-1.65.65-1.48,0-2.42-2.27-2.42-3.46,0-.24,0-.38.09-.6l.06-.16.11.13c.99,1.19,1.9,1.32,2.24,1.32.8,0,4.58-1.52,5.56-1.99-.03-.2.02-.77.09-1.46.16-1.6.37-3.79.37-4.2,0-1.97-.96-2.33-3.13-2.94l-.28-.08.26-.11c.44-.18,1.27-.53,2.36-.53,2.25,0,3.62,1.8,3.62,2.78,0,.39-.09.67-.37,1.48l-.16.48c-.2.52-.57,2.49-.78,3.68.51.13,1.42,1.01,1.42,1.52,0,.26-.04.32-.5,1.06l-.39.63c-.44.7-.85,1.54-1.19,2.42l-.03.58c-.03.44-.06.91-.07,1.26,3.66-5.1,8.95-10.17,12.17-10.17,2.12,0,3.54,1.65,3.54,4.1,0,1.16-.2,2.47-.26,2.9l-.02.12c-.53,3.27-1.16,7.68-1.16,10.14,0,2.97.59,3.78,2.74,3.78,3.18,0,7.51-2.45,8.61-3.38l.06-.05.39.26-.07.08c-1.51,1.88-2.96,3.27-4.3,4.14-1.6,1-3.2,1.54-4.61,1.54-2.29,0-3.62-1.63-4.08-2.32-.94-1.38-.94-3.51-.94-4.41,0-1.05.33-3.86.64-6.57.31-2.71.64-5.5.64-6.43,0-1.09-.31-2.38-1.78-2.38-2.8,0-8.11,5.38-11.68,10.44-.02,2.73-.02,4.13.38,8.25.16,1.92.16,2.13.16,2.69,0,1.04-.18,2.54-.57,3.52-.14.34-.42.54-.73.54Z"/><path class="cls-1" d="m95.89,222.8c-.64,0-.69-.23-1.06-1.72-.32-1.23-2.4-3.86-3.3-4.88l.02-.29.03-.15.79.54c3.13,2.13,3.53,2.41,4.47,2.41.61,0,1.12-.4,1.51-1.18,2.55-5.02,2.83-10.37,2.83-12.43,0-1.85,0-4.38-2.62-4.38-.92,0-1.83.17-3.45.64l-.44,1.17c-3.19,7.84-6.2,15.24-8.71,18.75-.17.26-.44.56-.92.56-.67,0-1.02-1.28-1.02-1.82,0-.67,0-.71,1.42-2.89,3.29-5.11,5.13-9.52,7.43-15.06-3.03,1.04-4.26,1.57-5.65,2.44-.66.41-1.11.69-1.57.69-.86,0-3.34-1.33-3.34-3.86,0-.37.08-.63.25-1l.08-.18.1.17c.88,1.54,1.49,2.03,2.51,2.03.29,0,.63-.03,1.81-.4,1.13-.34,2.56-.73,3.98-1.12.9-.24,1.8-.49,2.62-.72l-.03-.04c.65-1.66,1.99-5.11,1.99-6.5,0-1.5-1.87-2.28-2.98-2.62l-.19-.06.13-.13c.36-.28.7-.54,1.62-.54,1.57,0,4.58,1.12,4.58,2.66,0,.4-.15.85-.45,1.33-1.08,1.92-1.55,3.12-2.42,5.3l-.02.06c1-.26,1.9-.39,2.75-.39,4.82,0,4.82,4.34,4.82,6.42,0,3.17-1.01,12.98-5.48,16.32-.77.56-1.66.86-2.1.86Zm19.92-12.4c-.19,0-.62-.23-1.2-.56-.25-.14-.46-.26-.55-.29-.64-.23-2.97-.63-4.52-.9-.56-.1-1.01-.17-1.23-.22l-.08-.02v-.46h.1c2.15-.08,3.73-.54,4.17-.72.28-.11.94-.43.94-1.11s-2.33-4.39-7.75-7.83l-.28-.18h.33c3.87,0,10.98,5.51,10.98,10.41,0,1.23-.3,1.86-.9,1.86Zm-1.88-11.64c-.3,0-.87-.5-1.53-1.1-.18-.17-.33-.3-.4-.36-1.86-1.45-3.59-2.23-5.18-2.87l-.24-.1.25-.09c.46-.17.8-.25,1.47-.25,1.91,0,6.58,1.28,6.58,3.66,0,.36-.23,1.1-.94,1.1Zm4.04-3.32c-.34,0-1.04-.61-1.79-1.29-.19-.17-.34-.31-.43-.37-1.35-.93-3.21-1.75-5.53-2.42v-.19c.7-.15,1.33-.24,2.15-.24,2.18,0,6.3.74,6.3,3.54,0,.6-.27.98-.7.98Z"/><path class="cls-1" d="m142.02,223.76c-12.42,0-13.39-12.48-13.39-16.31,0-11.65,6.98-16.87,13.9-16.87.66,0,1.56,0,3.64.69,1.32.47,1.7.47,1.95.47.98,0,2.07-.41,3.08-1.14l.1-.08,3.18,8.04-1.76.76-.05-.07c-1.51-2.28-4.6-6.96-10.37-6.96-7.7,0-10.43,7.61-10.43,14.13,0,8.85,4.73,15.04,11.51,15.04,6.01,0,8.65-5.03,10.06-7.73l.05-.1,1.42.88-.04.08c-1.8,3.47-4.76,9.17-12.86,9.17Z"/><path class="cls-1" d="m175.89,222.94v-1.58h1.39c1.85,0,2.91-1.11,2.91-3.04v-10.61h-14.76v10.61c0,1.93,1.06,3.04,2.91,3.04h1.39v1.58h-11.81v-1.58h1.65c1.82,0,2.91-1.14,2.91-3.04v-22.32c0-1.9-1.09-3.04-2.91-3.04h-1.65v-1.62h11.81v1.62h-1.39c-1.85,0-2.91,1.11-2.91,3.04v10.13h14.76v-10.13c0-1.93-1.06-3.04-2.91-3.04h-1.39v-1.62h11.77v1.62h-1.6c-1.85,0-2.91,1.11-2.91,3.04v22.32c0,1.93,1.06,3.04,2.91,3.04h1.6v1.58h-11.77Z"/><path class="cls-1" d="m211.45,222.94v-1.58h1.6c1.47,0,1.66-.78,1.66-1.53,0-.2,0-.58-.29-1.43l-2.26-6.64h-12.8l-2.21,6.21c-.05.1-.34,1-.34,1.73,0,.77.21,1.66,1.88,1.66h.79v1.58h-8.67v-1.58h.92c1.6,0,2.98-1.11,3.6-2.9l9.63-27.18,3.17-.73,9.57,28.12c.41,1.22,1.32,2.68,3.35,2.68h1.43v1.58h-11.04Zm.18-12.76l-5.71-16.97-6,16.97h11.72Z"/><path class="cls-1" d="m225.55,222.94v-1.58h1.22c1.79,0,2.91-1.16,2.91-3.04v-22.32c0-1.93-1.06-3.04-2.91-3.04h-1.22v-1.62h11.6v1.62h-1.65c-1.85,0-2.91,1.11-2.91,3.04v22.32c0,1.87,1.12,3.04,2.91,3.04h2.28c2.83,0,5.2-.91,7.94-3.03,1.43-1.11,2.62-2.94,3.2-3.93l.05-.08,1.28.64-3.07,7.97h-21.63Z"/><path class="cls-1" d="m267.58,223.76c-6.74,0-13.99-5.2-13.99-16.61s7.25-16.57,13.99-16.57,13.95,5.19,13.95,16.57-7.23,16.61-13.95,16.61Zm0-31.6c-1.3,0-2.53.23-3.66.68-1.71.69-3.19,1.97-4.38,3.79-1.68,2.55-2.43,7.33-2.43,10.95,0,2.44.5,14.61,10.48,14.61,2.31,0,5.55-.75,7.91-4.34,1.67-2.58,2.52-6.18,2.52-10.69,0-3.52-.75-14.99-10.43-14.99Z"/><path class="cls-1" d="m309.67,222.94l-18.22-28.4v22.96c0,2.16,1.28,3.86,2.91,3.86h2.21v1.58h-11.68v-1.58h1.95c1.6,0,2.91-1.73,2.91-3.86v-21.11c0-2.14-1.68-3.43-3.3-3.43h-1.56v-1.62h7.88l16.67,25.9v-19.61c0-4.67-3.06-4.67-4.37-4.67h-.1v-1.62h10.69v1.62h-.74c-2.35,0-3.81,1.79-3.81,4.67v25.3h-1.43Z"/><path class="cls-1" d="m340.39,220.51l.08-.03c11.55-3.98,12.45-12.26,12.45-14.7,0-6.67-6.31-10.66-12.42-10.66-.69,0-.97.06-1.27.14,1.67,1.45,1.85,2.57,1.85,3s-.1.62-.62,1.72l-1.07,2.23c-4.18,8.78-4.72,9.91-6.89,13.14l-.06.08c-.99,1.41-1.76,2.23-2.27,2.43-.27.14-.58.17-.8.17-.94,0-1.26-.45-2.3-1.94l-.1-.14c-.27-.38-.48-.57-1.02-1.02-1.61-1.32-2.16-2.75-2.16-5.51,0-7.72,6.4-15.7,17.1-15.7,7.06,0,14.66,3.92,14.66,12.54,0,7.76-6.29,14.01-14.97,14.86h-.09s-.11-.61-.11-.61Zm-3.2-24.91c-4.44.39-11.1,6.15-11.1,14.01,0,2.97,1.89,5.62,3.38,5.62.2,0,.47-.03.69-.25.87-.87,1.59-2.2,2.3-3.49l3.44-6.53c1.14-2.13,2.35-5.27,2.35-6.91,0-1.27-.71-2.07-1.06-2.45h0Z"/><path class="cls-1" d="m382.25,225.69c-1.6,0-6.9-.04-8.12-.61-1.35-.67-1.35-2.2-1.35-3.96,0-4.22,0-5.5-.26-7.17l-.02-.15,3.5.99c.4.1.63.31.63.57,0,.53-.71,1.09-1.34,1.58l-.12.09c-.05,1.25-.09,4.82.2,5.52.22.47.63.58,1.42.63.97.04,5.4.17,6.06.17,3.24,0,4.89-.45,5.68-1.55.89-1.23,1.35-2.7,1.79-4.23l.02-.07h.39v.1c.18,3.61.35,3.94,1.36,4.34.22.11.32.28.32.52,0,.04-.02,1.11-1.64,2.06-1.36.79-4.15,1.17-8.52,1.17Zm-18.23-.65c-.69,0-1.39-.46-1.39-1.35s.46-1.31,1.33-2.01c.72-.55,2.47-2.17,3.1-5.36l.02-.08h.43l.05.51c.04.39.09.84.09,1.44,0,4.73-2.12,6.85-3.63,6.85Zm35.3-2.24c-1.06,0-1.3-.66-1.86-2.26-.96-2.75-2.56-4.55-3.24-5.32l-.06-.07v-.13s.23-.22.23-.22l.06.02c4.14,1.48,6.34,4.65,6.34,6.37,0,1.04-.52,1.6-1.48,1.6Zm-16.25-4.17c-.89,0-1.14-.56-1.7-1.79l-.07-.16c-.22-.52-1.46-2.66-2.71-3.35l-.08-.05.21-.41.07.02c.64.13,2.55.64,3.74,1.48,1.67,1.17,1.81,2.43,1.81,2.79,0,.88-.51,1.48-1.26,1.48Zm-11.34-6.28c-.59,0-.85-.26-.85-.83,0-.34.06-1.24.11-2.11.05-.8.1-1.58.1-1.85.12-2.8.17-7.53.17-9.42-2.17,4.26-5.5,7.78-10.17,10.75l-.08.05-.28-.42.07-.06c2.81-2.32,8.52-10.65,9.69-14.1h-1.37c-1.48,0-3.82.15-5.48.47h-.07s-1.16-2.06-1.16-2.06l.19.02c2.51.23,4.9.34,7.13.34h1.53c-.09-4.16-.13-4.64-.6-6.15l-.05-.17,3.57.86c.67.17.72.61.72.74,0,.48-.34.73-1.37,1.18.03.67.02,1.57,0,2.44,0,.38,0,.76,0,1.09h2.22l.86-1.37c.21-.34.5-.56.73-.56.31,0,.75.35.88.45l1.72,1.42.1.1c.16.15.36.33.36.63,0,.42-.38.57-.74.57h-6.14c-.04,1.14-.04,1.99-.04,3.94,1.97.22,6.06,1.56,6.06,4.22,0,.83-.44,1.39-1.09,1.39-.97,0-1.27-.47-2.54-2.45-.7-1.12-1.52-1.93-2.44-2.39,0,.98.05,3.62.09,5.57.02,1.2.04,2.15.04,2.31v3.48c0,1.72-1.31,1.91-1.87,1.91h-.02Zm23.76-.22c-.28,0-.5-.09-.67-.27-.3-.32-.35-.88-.34-1.32h-10.12c-.12.71-1.05,1.38-1.72,1.38-.79,0-1-.68-1-1.05,0-.12.04-.49.08-.88.05-.44.09-.92.09-1.1,0-.25.02-1.07.04-2.25.06-2.92.17-8.35.17-12.58,0-2.02,0-2.1-.34-5.28l-.02-.18,2.96,1.41h9.42s.95-1,.95-1c.2-.2.42-.43.73-.43s.63.22.79.33l1.42.93c.35.22.56.37.56.77,0,.6-.63.95-1.58,1.49l-.05.03c0,2.35.02,10.06.21,14.56.03.42.26,3.43.26,3.75,0,1.11-1.18,1.69-1.82,1.69Zm-1-2.82v-5.56h-10.16v5.56h10.16Zm0-6.79v-4.96h-10.16v4.96h10.16Zm0-6.19v-5.09h-10.16v5.09h10.16Z"/><path class="cls-1" d="m417.05,218.84c-.84,0-5.1-.42-7.1-8.8-.31-1.22-.35-1.93-.63-5.83l-.18-2.5c-.24-3.28-.37-4.23-1.9-6.63l-.1-.16h.19c2.12.09,4.54,2.33,4.54,4.23,0,.45,0,.57-.24,1.74-.25,1.4-.28,2.54-.28,3.38,0,2.57.62,7.91,2.96,9.76l.08.06c.16.12.47.36.74.36.39,0,.72-.28.87-.55,2.75-4.31,3.24-5.02,5.57-8.43l.59-.86c.03-.07.24-.4.36-.56l.05-.07.56.28-.04.09c-.6,1.19-4.8,9.84-4.96,10.23-.15.5-.27.93-.27,1.44,0,.13.07.52.14.9.07.41.14.79.14.94,0,.45-.29.98-1.1.98Zm21.36-6.52c-.32,0-.47-.11-1.46-.94-1.33-1.13-2.2-1.3-4.78-1.8l-.08-.02-.09-.1v-.37h.09c.48-.08,2.43-.38,3.32-.52l.36-.05c.44-.05.96-.26.96-.9s-1.6-7.23-7.33-9.38l-.24-.09.24-.1c.23-.09.75-.25,1.28-.25.84,0,2.88.53,4.63,2.51,3.16,3.58,4.34,7.73,4.34,9.5,0,1.18-.52,2.5-1.22,2.5Z"/><path class="cls-1" d="m472.01,221.48c-4.25,0-13.58-3.04-13.58-12.06,0-6.74,4.87-10.8,8.97-14.05-2.28.63-4.97,1.29-7.56,1.91-4.99,1.22-6.4,2.04-8.36,3.17l-.09.05c-.28.19-.72.41-1.21.41-.66,0-2.74-1.08-2.74-3.58,0-.64.14-.99.29-1.36l.07-.17.11.14c1.23,1.67,1.42,1.92,2.68,1.92,1.12,0,2.19-.28,6.57-1.48,5.89-1.58,17.88-4.12,18.42-4.12.63,0,2.94.72,2.94,1.98,0,.52-.28,1.14-1.62,1.14-.19,0-.74-.03-1.27-.06-.5-.03-.98-.06-1.13-.06-4.53,0-6.69,1.12-8.89,3.05-4.94,4.31-5.33,9.27-5.33,10.68,0,6.6,6.31,8.74,10.08,9.42l.15.03c.99.18,1.59.29,2.15,1.01.29.38.46.79.46,1.14,0,.55-.39.86-1.1.86Zm3.44-15.88c-.51,0-.77-.45-1.05-.93-1.38-2.55-4-4.65-4.89-5.25l.06-.18c1.22.11,2.49.56,3.76,1.33,2.54,1.59,3.05,2.59,3.05,3.69,0,.85-.34,1.34-.94,1.34Zm4.76-1.84c-.46,0-.75-.41-1.12-.92l-.08-.12c-1.35-1.95-3.29-3.36-5.17-4.73l.07-.18c2.96.45,7.12,2.23,7.12,4.78,0,1.12-.68,1.18-.82,1.18Z"/><path class="cls-1" d="m496.32,224.79l.07-.05c6.75-4.49,7.56-8.61,7.92-10.92-.7.4-1.37.75-2.23.75-1.9,0-4.82-2.71-4.82-6.3,0-2.83,2.23-5.22,4.86-5.22.92,0,1.62.29,2.3.59,0-.29-.02-.49-.03-.66,0-.13-.01-.24-.01-.35v-3.53c-4.12.34-8.26.83-13.38,2.86-.08.03-.25.1-.44.18-.55.24-.99.42-1.16.42-.81,0-3.22-2.01-3.22-3.86,0-.2,0-.41.12-.9l.05-.2.13.17c1.19,1.57,1.99,1.88,2.88,1.88.55,0,1.81-.24,2.18-.32,2.06-.36,9.08-1.43,12.83-1.75v-.37c-.06-1.49-.16-4.99-.54-5.65-.51-.99-1.48-1.42-2.59-1.92l-.18-.08.3-.17c.44-.25,1.05-.58,1.8-.58s2.13.63,3.01,1.22c.6.43.69.83.69,1.16,0,.18-.21,1.12-.25,1.23-.23,1.04-.35,3.77-.39,5.02.82-.06,2.73-.14,4.59-.22,2.08-.09,4.24-.19,4.93-.25.26-.04,1.68-.16,1.81-.16,1.59,0,2.94,1.14,2.94,1.86,0,.53-.55.86-1.06.86-.18,0-.53-.04-.72-.13-1.89-.42-4.31-.63-7.35-.63-1.58,0-3.29.06-5.22.19-.08,1.72-.08,3.11-.08,3.79,0,.8,0,1.4.04,2.44.37.66,1.28,2.31,1.28,5.36,0,2.19-.55,7.73-5.6,11.76-2.23,1.73-4.15,2.46-5.19,2.85l-.08.03-.2-.4Zm5.09-19.98c-.9,0-2.66,1.18-2.66,3.34,0,2.36,1.94,4.26,3.54,4.26,1.89,0,2.1-2.31,2.1-3.3,0-2.93-.95-4.3-2.98-4.3Z"/></g></g></svg>