<?xml version="1.0" encoding="UTF-8"?><svg id="_レイヤー_2" xmlns="http://www.w3.org/2000/svg" viewBox="0 0 727.52 193.15"><defs><style>.cls-1{fill:#fff;}.cls-2{fill:#f77237;}</style></defs><g id="_レイヤー_8"><g><circle class="cls-2" cx="79" cy="109.86" r="79"/><g><path class="cls-1" d="m54.95,70.3c0,4.92.7,14.43,10.29,20.08-.68.55-1.95,1.9-2.5,2.71-5.39-3.26-8.15-8.18-9.58-12.84-1.95,5.83-5.08,10.16-9.61,12.87-.57-.65-2.03-1.93-2.84-2.53,5.42-2.74,8.52-7.76,9.95-14.61l1.59.29c-.18-.99-.29-1.93-.36-2.81h-5.94v-3.15h9.01Z"/><path class="cls-1" d="m72.93,77.59c-1.38.99-2.89,1.88-4.4,2.6-.36-.76-1.17-1.93-1.82-2.6,4.43-1.95,8.57-5.65,10.52-8.73h3.23c2.76,3.83,6.9,6.8,11.02,8.26-.78.81-1.46,1.93-2.01,2.84-1.43-.68-2.94-1.54-4.38-2.53v2.06h-12.16v-1.9Zm-4.61,4.06h21.54v2.87h-11.67c-.76,1.54-1.61,3.15-2.4,4.61,2.5-.08,5.18-.18,7.84-.29-.81-.94-1.69-1.88-2.55-2.66l2.73-1.43c2.32,2.03,4.74,4.74,5.96,6.69l-2.89,1.75c-.26-.5-.62-1.04-1.04-1.62-6.12.34-12.55.6-16.98.81l-.42-3.02,3.93-.13c.7-1.46,1.43-3.18,1.98-4.71h-6.04v-2.87Zm15.65-5c-2.01-1.51-3.8-3.2-5-4.82-1.12,1.59-2.79,3.28-4.77,4.82h9.77Z"/><path class="cls-1" d="m113.12,85.64c-.99,1.43-2.01,3.02-2.92,4.12h5.89v2.66h-22.04v-2.66h5.08c-.39-1.17-1.25-2.92-2.16-4.19l2.37-1.02h-3.99v-2.66h7.92v-2.58h-4.79v-1.28c-1.22.89-2.55,1.72-3.88,2.42-.39-.73-1.25-1.85-1.93-2.5,4.43-2.16,8.6-6.07,10.52-9.19h3.2c2.81,3.93,7.01,7.21,11.12,8.88-.78.78-1.48,1.82-2.06,2.79-1.3-.68-2.66-1.54-3.96-2.47v1.35h-4.98v2.58h8.02v2.66h-8.02v5.21h2.84l-1.69-.7c.86-1.22,1.9-3.12,2.47-4.51l2.97,1.09Zm-13.62-1.09c.99,1.33,2.01,3.1,2.4,4.3l-2.14.91h3.52v-5.21h-3.78Zm10.24-7.94c-1.93-1.56-3.65-3.26-4.79-4.82-1.12,1.56-2.73,3.26-4.61,4.82h9.4Z"/><path class="cls-1" d="m22.25,133.4h4.14v-11.7h-3.49v-2.37c1.93-.36,3.26-.86,4.48-1.61h2.84v15.68h3.62v3.1h-11.59v-3.1Z"/><path class="cls-1" d="m37.6,133.4h4.14v-11.7h-3.49v-2.37c1.93-.36,3.26-.86,4.48-1.61h2.84v15.68h3.62v3.1h-11.59v-3.1Z"/><path class="cls-1" d="m52.19,139.96c2.03-.75,3.15-2.11,3.13-3.57h-.23c-1.25,0-2.4-.81-2.4-2.27,0-1.38,1.12-2.27,2.47-2.27,1.77,0,2.76,1.41,2.76,3.78,0,3.05-1.77,5.37-4.92,6.41l-.81-2.08Z"/><path class="cls-1" d="m60.42,127.01c0-6.35,2.58-9.66,6.54-9.66s6.51,3.33,6.51,9.66-2.55,9.85-6.51,9.85-6.54-3.46-6.54-9.85Zm9.43,0c0-5.21-1.22-6.67-2.89-6.67s-2.92,1.46-2.92,6.67,1.25,6.85,2.92,6.85,2.89-1.62,2.89-6.85Z"/><path class="cls-1" d="m75.77,127.01c0-6.35,2.58-9.66,6.54-9.66s6.51,3.33,6.51,9.66-2.55,9.85-6.51,9.85-6.54-3.46-6.54-9.85Zm9.43,0c0-5.21-1.22-6.67-2.89-6.67s-2.92,1.46-2.92,6.67,1.25,6.85,2.92,6.85,2.89-1.62,2.89-6.85Z"/><path class="cls-1" d="m91.11,127.01c0-6.35,2.58-9.66,6.54-9.66s6.51,3.33,6.51,9.66-2.55,9.85-6.51,9.85-6.54-3.46-6.54-9.85Zm9.43,0c0-5.21-1.22-6.67-2.89-6.67s-2.92,1.46-2.92,6.67,1.25,6.85,2.92,6.85,2.89-1.62,2.89-6.85Z"/><path class="cls-1" d="m135.95,135.12c0,1.69-.36,2.55-1.46,3.05-1.04.52-2.6.57-4.92.57-.16-.86-.68-2.29-1.12-3.1,1.48.1,3.18.08,3.7.08.5-.03.68-.18.68-.62v-6.3h-15.73v9.95h-3.13v-22.66h21.98v19.04Zm-18.86-9.4h6.15v-6.56h-6.15v6.56Zm15.73,0v-6.56h-6.51v6.56h6.51Z"/></g><path class="cls-2" d="m198.49,110.83h-19.5v-10.13h19.5v-20.56h10.52v20.56h19.5v10.13h-19.5v20.46h-10.52v-20.46Z"/><rect class="cls-2" x="257" y="40.86" width="176" height="65" rx="9" ry="9"/><g><path class="cls-1" d="m280.12,64.6h4.53l6.2,19.3h-4.04l-1.35-4.95h-6.25l-1.35,4.95h-3.91l6.17-19.3Zm-.08,11.36h4.58l-.57-2.11c-.6-2.01-1.12-4.22-1.67-6.3h-.13c-.49,2.11-1.07,4.3-1.64,6.3l-.57,2.11Z"/><path class="cls-1" d="m299.35,65.56h13.13c.75,0,1.85-.03,2.29-.05-.03.6-.08,1.64-.08,2.4v13.49c0,.91.05,2.29.1,3.07h-3.78c.03-.42.03-.86.03-1.35h-11.88c-1.02,0-2.5.08-3.36.16v-3.72c.91.08,2.08.16,3.25.16h12.01v-10.78h-11.69c-1.09,0-2.5.05-3.23.1v-3.62c.96.1,2.32.16,3.2.16Z"/><path class="cls-1" d="m324.7,72h13.99c1.22,0,2.37-.1,3.05-.16v4.09c-.62-.03-1.95-.13-3.05-.13h-13.99c-1.49,0-3.23.05-4.19.13v-4.09c.94.08,2.84.16,4.19.16Z"/><path class="cls-1" d="m364.97,67.86c-.89,2.03-2.34,4.82-4.09,7.16,2.58,2.24,5.73,5.57,7.27,7.45l-2.97,2.58c-1.69-2.34-4.12-5-6.56-7.37-2.76,2.92-6.23,5.63-9.79,7.32l-2.68-2.81c4.19-1.56,8.23-4.74,10.68-7.48,1.72-1.95,3.31-4.53,3.88-6.38h-8.83c-1.09,0-2.53.16-3.07.18v-3.7c.7.1,2.29.18,3.07.18h9.19c1.12,0,2.16-.16,2.68-.34l2.14,1.59c-.21.29-.68,1.09-.91,1.62Z"/></g><g><path class="cls-1" d="m389.45,82.86c0,1.15-.27,1.7-1.01,2.02-.77.34-1.89.37-3.54.37-.11-.56-.5-1.47-.8-2,1.12.06,2.46.05,2.82.05.38,0,.51-.13.51-.46v-2.32h-6.85c-.42,1.79-1.22,3.54-2.71,4.79-.29-.4-1.06-1.1-1.47-1.38,2.42-2.06,2.64-5.12,2.64-7.55v-5.27h10.4v11.77Zm-2.02-4.19v-1.95h-6.42c-.02.61-.05,1.28-.11,1.95h6.53Zm-6.42-5.71v1.95h6.42v-1.95h-6.42Z"/><path class="cls-1" d="m392.55,82.54c3.09-2.95,5.12-4.96,5.12-6.67,0-1.17-.64-1.87-1.78-1.87-.86,0-1.57.58-2.18,1.23l-1.28-1.28c1.09-1.17,2.15-1.81,3.76-1.81,2.24,0,3.73,1.42,3.73,3.6,0,2.02-1.86,4.1-3.97,6.31.59-.06,1.38-.13,1.94-.13h2.59v1.98h-7.94v-1.36Z"/><path class="cls-1" d="m416.94,70.87v14.41h-2.08v-.85h-9.62v.85h-1.99v-14.41h13.69Zm-2.08,11.78v-9.83h-9.62v9.83h9.62Zm-1.55-7.94v6.08h-6.53v-6.08h6.53Zm-1.92,1.66h-2.82v2.77h2.82v-2.77Z"/></g><rect class="cls-2" x="257" y="122.86" width="176" height="65" rx="9" ry="9"/><g><path class="cls-1" d="m277.37,146.6h6.38c3.96,0,6.98,1.17,6.98,4.77,0,1.77-.99,3.59-2.63,4.17v.13c2.08.5,3.62,1.95,3.62,4.56,0,3.88-3.23,5.68-7.48,5.68h-6.88v-19.3Zm6.1,7.87c2.45,0,3.52-.99,3.52-2.53,0-1.69-1.15-2.37-3.46-2.37h-2.29v4.9h2.24Zm.44,8.46c2.63,0,4.06-.94,4.06-2.94,0-1.88-1.41-2.68-4.06-2.68h-2.68v5.63h2.68Z"/><path class="cls-1" d="m298.73,147.56h13.13c.76,0,1.85-.03,2.29-.05-.03.6-.08,1.64-.08,2.4v13.49c0,.91.05,2.29.1,3.07h-3.78c.03-.42.03-.86.03-1.35h-11.88c-1.02,0-2.5.08-3.36.16v-3.72c.91.08,2.08.16,3.26.16h12.01v-10.78h-11.69c-1.09,0-2.5.05-3.23.1v-3.62c.96.1,2.32.16,3.2.16Z"/><path class="cls-1" d="m324.08,154h13.99c1.22,0,2.37-.1,3.05-.16v4.09c-.62-.03-1.95-.13-3.05-.13h-13.99c-1.49,0-3.23.05-4.19.13v-4.09c.94.08,2.84.16,4.19.16Z"/><path class="cls-1" d="m364.36,149.86c-.89,2.03-2.34,4.82-4.09,7.16,2.58,2.24,5.73,5.57,7.27,7.45l-2.97,2.58c-1.69-2.34-4.12-5-6.56-7.37-2.76,2.92-6.23,5.63-9.79,7.32l-2.68-2.81c4.19-1.56,8.23-4.74,10.68-7.48,1.72-1.95,3.31-4.53,3.88-6.38h-8.83c-1.09,0-2.53.16-3.07.18v-3.7c.7.1,2.29.18,3.07.18h9.19c1.12,0,2.16-.16,2.68-.34l2.14,1.59c-.21.29-.68,1.09-.91,1.62Z"/></g><g><path class="cls-2" d="m518.59,10.22v3.1h-22.08v-3.1h22.08Z"/><path class="cls-2" d="m529.79,12.82v7.85c0,1.08-.17,1.7-.86,2.11-.67.38-1.56.43-2.93.43-.07-.62-.38-1.63-.67-2.23.77.02,1.56.02,1.8.02.29,0,.36-.1.36-.38v-7.54l-3.41.36c-.05,3.17-.38,7.18-1.99,9.75-.41-.38-1.37-1.01-1.92-1.25,1.39-2.28,1.63-5.5,1.68-8.23l-1.39.14-.29-2.28,1.68-.14v-7.39h2.18c.26-1.03.55-2.3.65-3.26l3.05.48c-.36.98-.74,1.97-1.08,2.78h3.14v6.6l1.01-.12.07,2.18-1.08.12Zm-5.71-1.61c1.08-.1,2.23-.22,3.41-.34v-4.63h-3.41v4.97Zm1.9-4.42c.58.91,1.08,2.14,1.22,2.98l-1.8.72c-.12-.82-.55-2.09-1.08-3.02l1.66-.67Zm.53,12.43h-1.63v-5.47h1.63v5.47Zm15.31-7.8c-.7,3.05-1.9,5.47-3.5,7.34,1.32.94,2.9,1.66,4.78,2.06-.6.55-1.32,1.63-1.7,2.35-1.99-.55-3.65-1.42-5.02-2.57-1.39,1.1-3.02,1.94-4.82,2.59-.31-.7-.98-1.8-1.51-2.38,1.66-.48,3.17-1.22,4.44-2.21-1.01-1.34-1.82-2.9-2.45-4.7l2.21-.5h-2.93v-2.5h1.01c-.43-.43-1.46-1.27-1.99-1.58,1.7-1.32,1.87-3.07,1.87-4.54V1.65h7.63v5.3c0,.41-.02.65.02.72.05.1.14.12.24.12h.38c.12,0,.24-.02.31-.1.1-.05.14-.19.19-.5.05-.34.07-1.08.1-1.99.46.38,1.34.84,2.04,1.06-.07.98-.17,2.04-.34,2.47-.17.46-.46.79-.82.96-.34.19-.86.29-1.3.29h-1.25c-.58,0-1.22-.19-1.61-.6-.38-.38-.55-.91-.55-2.4v-2.86h-2.54v.72c0,2.04-.38,4.54-2.35,6.07h7.2l.46-.1,1.8.6Zm-7.49,1.99c.48,1.3,1.13,2.47,1.97,3.5.89-1.01,1.61-2.18,2.11-3.5h-4.08Z"/></g><g><path class="cls-2" d="m630.01,2.78v2.42h-20.98v-2.42h8.88V.77h2.9v2.02h9.19Zm-.77,17.4c0,1.32-.26,2.09-1.2,2.52-.89.43-2.16.46-3.89.46-.07-.55-.29-1.3-.55-1.92h-6.19v1.08h-2.5v-6.46h9.17v4.66c.82.02,1.56.02,1.82,0,.36-.02.46-.1.46-.38v-5.35h-13.58v8.42h-2.78v-10.8h19.25v7.78Zm-3.17-14.06v5.28h-13.11v-5.28h13.11Zm-2.9,1.9h-7.49v1.46h7.49v-1.46Zm-1.61,9.75h-4.15v1.56h4.15v-1.56Z"/><path class="cls-2" d="m639.78,16.13c-.31-.77-.89-1.92-1.44-3v10.06h-2.64v-8.98c-.65,1.87-1.44,3.6-2.3,4.8-.24-.79-.86-1.9-1.3-2.59,1.42-1.92,2.74-5.21,3.38-8.07h-2.81v-2.64h3.02V.79h2.64v4.92h2.62v2.64h-2.62v1.22c.67.89,2.57,3.74,3,4.42l-1.56,2.14Zm12.72-2.86c-.14-.31-.31-.67-.53-1.03-.6,1.85-1.42,3.55-2.47,5.06,1.51,1.49,3.34,2.69,5.47,3.41-.65.6-1.56,1.75-1.99,2.54-2.09-.86-3.86-2.14-5.35-3.72-1.61,1.58-3.6,2.86-6.07,3.74-.29-.65-.98-1.73-1.46-2.28,2.45-.79,4.37-2.04,5.83-3.58-1.01-1.46-1.82-3.12-2.5-4.92-.34.34-.7.65-1.03.94-.41-.53-1.32-1.34-1.94-1.8,1.44-1.15,2.78-3,3.55-4.68l2.57,1.06c-.7,1.39-1.63,2.78-2.64,3.91l1.82-.5c.48,1.32,1.13,2.57,1.92,3.7.7-1.18,1.22-2.47,1.56-3.84l2.47.5c-.74-1.22-1.78-2.57-2.74-3.67l2.21-1.25c1.44,1.51,3.05,3.55,3.72,5.02l-2.4,1.39Zm1.97-6.53h-13.25v-2.62h5.18V.79h2.81v3.34h5.26v2.62Z"/><path class="cls-2" d="m678.37,19.73v2.81h-21.58v-2.81h9.26v-4.82h-6.5v-2.76h6.5v-4.22h-4.97c-.7,1.32-1.44,2.54-2.23,3.48-.58-.46-1.85-1.32-2.57-1.7,1.87-2.02,3.43-5.33,4.25-8.59l2.95.65c-.34,1.15-.72,2.28-1.13,3.38h3.7V.81h3v4.32h8.09v2.78h-8.09v4.22h7.18v2.76h-7.18v4.82h9.31Z"/><path class="cls-2" d="m690.61,16.44c-3.17,1.42-6.72,2.93-9.43,4.06l-.96-3.05c.91-.31,1.99-.7,3.19-1.18l-.48-14.02,2.98-.12.43,12.98c1.2-.5,2.42-1.01,3.62-1.49l.65,2.81Zm9.94,6.75c-.91-1.56-2.71-3.77-4.49-5.79-1.75,2.5-4.13,4.42-7.3,5.83-.41-.62-1.58-1.92-2.28-2.52,7.61-2.88,10.08-8.69,10.97-18.55l3.14.29c-.5,4.92-1.37,8.93-2.93,12.19,1.99,2.06,4.22,4.49,5.33,6.17l-2.45,2.38Zm-9-12.31c-.6-1.66-2.14-4.18-3.58-5.95l2.59-1.3c1.56,1.75,3.07,4.1,3.79,5.76l-2.81,1.49Z"/><path class="cls-2" d="m716.58,5.42v3.77l.48-.55c2.59,1.3,6.36,3.36,8.18,4.85l-2.11,2.62c-1.39-1.22-4.13-2.98-6.55-4.37v11.4h-3.07V5.42h-8.67v-2.88h21.39v2.88h-9.65Z"/></g><g><path class="cls-2" d="m462.77,77.1h4.14v-11.7h-3.49v-2.37c1.93-.36,3.26-.86,4.48-1.61h2.84v15.68h3.62v3.1h-11.59v-3.1Z"/><path class="cls-2" d="m478.12,77.1h4.14v-11.7h-3.49v-2.37c1.93-.36,3.26-.86,4.48-1.61h2.84v15.68h3.62v3.1h-11.59v-3.1Z"/><path class="cls-2" d="m492.71,83.66c2.03-.75,3.15-2.11,3.12-3.57h-.23c-1.25,0-2.4-.81-2.4-2.27,0-1.38,1.12-2.27,2.47-2.27,1.77,0,2.76,1.41,2.76,3.78,0,3.05-1.77,5.37-4.92,6.41l-.81-2.08Z"/><path class="cls-2" d="m500.94,70.72c0-6.36,2.58-9.66,6.54-9.66s6.51,3.33,6.51,9.66-2.55,9.85-6.51,9.85-6.54-3.46-6.54-9.85Zm9.43,0c0-5.21-1.22-6.67-2.89-6.67s-2.92,1.46-2.92,6.67,1.25,6.85,2.92,6.85,2.89-1.62,2.89-6.85Z"/><path class="cls-2" d="m516.29,70.72c0-6.36,2.58-9.66,6.54-9.66s6.51,3.33,6.51,9.66-2.55,9.85-6.51,9.85-6.54-3.46-6.54-9.85Zm9.43,0c0-5.21-1.22-6.67-2.89-6.67s-2.92,1.46-2.92,6.67,1.25,6.85,2.92,6.85,2.89-1.62,2.89-6.85Z"/><path class="cls-2" d="m531.63,70.72c0-6.36,2.58-9.66,6.54-9.66s6.51,3.33,6.51,9.66-2.55,9.85-6.51,9.85-6.54-3.46-6.54-9.85Zm9.43,0c0-5.21-1.22-6.67-2.89-6.67s-2.92,1.46-2.92,6.67,1.25,6.85,2.92,6.85,2.89-1.62,2.89-6.85Z"/><path class="cls-2" d="m576.47,78.82c0,1.69-.36,2.55-1.46,3.05-1.04.52-2.6.57-4.92.57-.16-.86-.68-2.29-1.12-3.1,1.49.1,3.18.08,3.7.08.5-.03.68-.18.68-.62v-6.3h-15.73v9.95h-3.12v-22.66h21.98v19.04Zm-18.86-9.4h6.15v-6.56h-6.15v6.56Zm15.73,0v-6.56h-6.51v6.56h6.51Z"/></g><g><path class="cls-2" d="m617.53,75.41c0-2.32,1.54-3.8,3.31-4.74v-.11c-1.46-1.07-2.55-2.45-2.55-4.43,0-3.1,2.47-5.08,5.81-5.08s5.6,2.03,5.6,5.11c0,1.85-1.25,3.36-2.47,4.22v.13c1.75.99,3.23,2.37,3.23,4.9,0,2.92-2.58,5.16-6.49,5.16-3.67,0-6.43-2.13-6.43-5.16Zm9.35-.13c0-1.88-1.8-2.55-4.27-3.57-1.02.81-1.77,1.95-1.77,3.28,0,1.74,1.43,2.87,3.23,2.87,1.64,0,2.81-.91,2.81-2.58Zm-.31-8.86c0-1.56-.94-2.66-2.55-2.66-1.3,0-2.34.83-2.34,2.37,0,1.72,1.51,2.53,3.52,3.31.89-.94,1.38-1.95,1.38-3.02Z"/><path class="cls-2" d="m633.04,83.66c2.03-.75,3.15-2.11,3.13-3.57h-.23c-1.25,0-2.4-.81-2.4-2.27,0-1.38,1.12-2.27,2.47-2.27,1.77,0,2.76,1.41,2.76,3.78,0,3.05-1.77,5.37-4.92,6.41l-.81-2.08Z"/><path class="cls-2" d="m641.35,75.41c0-2.32,1.54-3.8,3.31-4.74v-.11c-1.46-1.07-2.55-2.45-2.55-4.43,0-3.1,2.47-5.08,5.81-5.08s5.6,2.03,5.6,5.11c0,1.85-1.25,3.36-2.47,4.22v.13c1.75.99,3.23,2.37,3.23,4.9,0,2.92-2.58,5.16-6.49,5.16-3.67,0-6.43-2.13-6.43-5.16Zm9.35-.13c0-1.88-1.8-2.55-4.27-3.57-1.02.81-1.77,1.95-1.77,3.28,0,1.74,1.43,2.87,3.23,2.87,1.64,0,2.81-.91,2.81-2.58Zm-.31-8.86c0-1.56-.94-2.66-2.55-2.66-1.3,0-2.34.83-2.34,2.37,0,1.72,1.51,2.53,3.52,3.31.89-.94,1.38-1.95,1.38-3.02Z"/><path class="cls-2" d="m656.62,70.72c0-6.36,2.58-9.66,6.54-9.66s6.51,3.33,6.51,9.66-2.55,9.85-6.51,9.85-6.54-3.46-6.54-9.85Zm9.43,0c0-5.21-1.22-6.67-2.89-6.67s-2.92,1.46-2.92,6.67,1.25,6.85,2.92,6.85,2.89-1.62,2.89-6.85Z"/><path class="cls-2" d="m671.96,70.72c0-6.36,2.58-9.66,6.54-9.66s6.51,3.33,6.51,9.66-2.55,9.85-6.51,9.85-6.54-3.46-6.54-9.85Zm9.43,0c0-5.21-1.22-6.67-2.89-6.67s-2.92,1.46-2.92,6.67,1.25,6.85,2.92,6.85,2.89-1.62,2.89-6.85Z"/><path class="cls-2" d="m716.79,78.82c0,1.69-.36,2.55-1.46,3.05-1.04.52-2.6.57-4.92.57-.16-.86-.68-2.29-1.12-3.1,1.48.1,3.18.08,3.7.08.5-.03.68-.18.68-.62v-6.3h-15.73v9.95h-3.13v-22.66h21.98v19.04Zm-18.86-9.4h6.15v-6.56h-6.15v6.56Zm15.73,0v-6.56h-6.51v6.56h6.51Z"/></g><g><path class="cls-2" d="m478.29,146.62h-8.67v-3.2h12.81v2.34c-4.38,5.34-5.08,9.12-5.39,16.44h-3.88c.34-6.49,1.54-10.58,5.13-15.58Z"/><path class="cls-2" d="m485.04,165.66c2.03-.75,3.15-2.11,3.12-3.57h-.23c-1.25,0-2.4-.81-2.4-2.27,0-1.38,1.12-2.27,2.47-2.27,1.77,0,2.76,1.41,2.76,3.78,0,3.05-1.77,5.37-4.92,6.41l-.81-2.08Z"/><path class="cls-2" d="m502.1,146.62h-8.67v-3.2h12.82v2.34c-4.38,5.34-5.08,9.12-5.39,16.44h-3.88c.34-6.49,1.54-10.58,5.13-15.58Z"/><path class="cls-2" d="m508.62,152.72c0-6.36,2.58-9.66,6.54-9.66s6.51,3.33,6.51,9.66-2.55,9.85-6.51,9.85-6.54-3.46-6.54-9.85Zm9.43,0c0-5.21-1.22-6.67-2.89-6.67s-2.92,1.46-2.92,6.67,1.25,6.85,2.92,6.85,2.89-1.62,2.89-6.85Z"/><path class="cls-2" d="m523.96,152.72c0-6.36,2.58-9.66,6.54-9.66s6.51,3.33,6.51,9.66-2.55,9.85-6.51,9.85-6.54-3.46-6.54-9.85Zm9.43,0c0-5.21-1.22-6.67-2.89-6.67s-2.92,1.46-2.92,6.67,1.25,6.85,2.92,6.85,2.89-1.62,2.89-6.85Z"/><path class="cls-2" d="m568.79,160.82c0,1.69-.36,2.55-1.46,3.05-1.04.52-2.6.57-4.92.57-.16-.86-.68-2.29-1.12-3.1,1.49.1,3.18.08,3.7.08.5-.03.68-.18.68-.62v-6.3h-15.73v9.95h-3.12v-22.66h21.98v19.04Zm-18.86-9.4h6.15v-6.56h-6.15v6.56Zm15.73,0v-6.56h-6.51v6.56h6.51Z"/></g><g><path class="cls-2" d="m616.99,159.93l1.77-2.45c1.09,1.07,2.45,1.95,4.25,1.95,2.01,0,3.41-1.17,3.41-3.28s-1.3-3.26-3.26-3.26c-1.15,0-1.77.29-2.89,1.02l-1.75-1.12.52-9.38h10.31v3.2h-7.01l-.37,4.09c.78-.34,1.43-.52,2.32-.52,3.23,0,5.94,1.82,5.94,5.83s-3.18,6.54-6.75,6.54c-3.05,0-5.08-1.2-6.51-2.63Z"/><path class="cls-2" d="m633.04,165.66c2.03-.75,3.15-2.11,3.13-3.57h-.23c-1.25,0-2.4-.81-2.4-2.27,0-1.38,1.12-2.27,2.47-2.27,1.77,0,2.76,1.41,2.76,3.78,0,3.05-1.77,5.37-4.92,6.41l-.81-2.08Z"/><path class="cls-2" d="m640.8,159.93l1.77-2.45c1.09,1.07,2.45,1.95,4.25,1.95,2.01,0,3.41-1.17,3.41-3.28s-1.3-3.26-3.26-3.26c-1.15,0-1.77.29-2.89,1.02l-1.75-1.12.52-9.38h10.31v3.2h-7.01l-.36,4.09c.78-.34,1.43-.52,2.32-.52,3.23,0,5.94,1.82,5.94,5.83s-3.18,6.54-6.75,6.54c-3.05,0-5.08-1.2-6.51-2.63Z"/><path class="cls-2" d="m656.62,152.72c0-6.36,2.58-9.66,6.54-9.66s6.51,3.33,6.51,9.66-2.55,9.85-6.51,9.85-6.54-3.46-6.54-9.85Zm9.43,0c0-5.21-1.22-6.67-2.89-6.67s-2.92,1.46-2.92,6.67,1.25,6.85,2.92,6.85,2.89-1.62,2.89-6.85Z"/><path class="cls-2" d="m671.96,152.72c0-6.36,2.58-9.66,6.54-9.66s6.51,3.33,6.51,9.66-2.55,9.85-6.51,9.85-6.54-3.46-6.54-9.85Zm9.43,0c0-5.21-1.22-6.67-2.89-6.67s-2.92,1.46-2.92,6.67,1.25,6.85,2.92,6.85,2.89-1.62,2.89-6.85Z"/><path class="cls-2" d="m716.79,160.82c0,1.69-.36,2.55-1.46,3.05-1.04.52-2.6.57-4.92.57-.16-.86-.68-2.29-1.12-3.1,1.48.1,3.18.08,3.7.08.5-.03.68-.18.68-.62v-6.3h-15.73v9.95h-3.13v-22.66h21.98v19.04Zm-18.86-9.4h6.15v-6.56h-6.15v6.56Zm15.73,0v-6.56h-6.51v6.56h6.51Z"/></g><g><path class="cls-1" d="m389.94,164.74c0,1.15-.27,1.7-1.01,2.02-.77.34-1.89.37-3.54.37-.11-.56-.5-1.47-.8-2,1.12.06,2.46.05,2.82.05.38,0,.51-.13.51-.46v-2.32h-6.85c-.42,1.79-1.22,3.54-2.71,4.79-.29-.4-1.06-1.1-1.47-1.38,2.42-2.06,2.64-5.12,2.64-7.55v-5.27h10.4v11.77Zm-2.02-4.19v-1.95h-6.42c-.02.61-.05,1.28-.11,1.95h6.53Zm-6.42-5.71v1.95h6.42v-1.95h-6.42Z"/><path class="cls-1" d="m393.66,163.88h2.54v-7.19h-2.14v-1.46c1.18-.22,2-.53,2.75-.99h1.75v9.64h2.22v1.9h-7.12v-1.9Z"/><path class="cls-1" d="m416.47,152.75v14.41h-2.08v-.85h-9.62v.85h-1.99v-14.41h13.69Zm-2.08,11.78v-9.83h-9.62v9.83h9.62Zm-1.55-7.94v6.08h-6.53v-6.08h6.53Zm-1.92,1.66h-2.82v2.77h2.82v-2.77Z"/></g></g></g></svg>