<?xml version="1.0" encoding="UTF-8"?><svg id="_レイヤー_2" xmlns="http://www.w3.org/2000/svg" viewBox="0 0 153.27 36.78"><defs><style>.cls-1{fill:#fff;}</style></defs><g id="_レイヤー_1-2"><g><path class="cls-1" d="m7.67,9.73c-1.46-1.86-3.15-3.68-5.08-5.45,2.57.91,4.79,1.95,6.65,3.07-.68-2.07-1.37-4.14-2.07-6.21,2.03,1.57,3.7,3.22,5.02,4.9.37-2.02.95-4.04,1.74-6.05.79,2.01,1.37,4.03,1.74,6.05,1.32-1.69,2.99-3.33,5.02-4.9-.7,2.07-1.39,4.14-2.07,6.21,1.86-1.13,4.08-2.17,6.65-3.07-1.92,1.77-3.62,3.59-5.08,5.45-4.16-.54-8.36-.54-12.52,0Z"/><path class="cls-1" d="m22.61,11.34H5.25c-4.68,0-6.59,3.31-4.25,7.36l8.68,15.03c2.34,4.05,6.17,4.05,8.5,0l8.68-15.03c2.34-4.05.43-7.36-4.25-7.36ZM2.59,19.85c-.63,0-1.13-1.27-1.13-2.83s.51-2.83,1.13-2.83,1.13,1.27,1.13,2.83-.51,2.83-1.13,2.83Zm5.67,8.5c-.63,0-1.13-1.27-1.13-2.83s.51-2.83,1.13-2.83,1.13,1.27,1.13,2.83-.51,2.83-1.13,2.83Zm0-7.09c-.63,0-1.13-1.27-1.13-2.83s.51-2.83,1.13-2.83,1.13,1.27,1.13,2.83-.51,2.83-1.13,2.83Zm5.67,12.76c-.63,0-1.13-1.27-1.13-2.83s.51-2.83,1.13-2.83,1.13,1.27,1.13,2.83-.51,2.83-1.13,2.83Zm0-7.09c-.63,0-1.13-1.27-1.13-2.83s.51-2.83,1.13-2.83,1.13,1.27,1.13,2.83-.51,2.83-1.13,2.83Zm0-7.09c-.63,0-1.13-1.27-1.13-2.83s.51-2.83,1.13-2.83,1.13,1.27,1.13,2.83-.51,2.83-1.13,2.83Zm5.67,8.5c-.63,0-1.13-1.27-1.13-2.83s.51-2.83,1.13-2.83,1.13,1.27,1.13,2.83-.51,2.83-1.13,2.83Zm0-7.09c-.63,0-1.13-1.27-1.13-2.83s.51-2.83,1.13-2.83,1.13,1.27,1.13,2.83-.51,2.83-1.13,2.83Zm5.67-1.42c-.63,0-1.13-1.27-1.13-2.83s.51-2.83,1.13-2.83,1.13,1.27,1.13,2.83-.51,2.83-1.13,2.83Z"/><g><path class="cls-1" d="m38.87,7.77l-.67.2c-.2-.81-.66-1.21-1.4-1.21-.54,0-.96.23-1.25.69-.26.41-.39.95-.39,1.63,0,.79.17,1.39.5,1.8.29.35.66.53,1.13.53.77,0,1.26-.41,1.46-1.24l.66.22c-.34,1.05-1.05,1.57-2.11,1.57-.76,0-1.35-.29-1.78-.88-.38-.51-.56-1.18-.56-2,0-.94.25-1.67.74-2.21.42-.46.96-.69,1.61-.69.54,0,.99.15,1.36.45.33.27.57.64.71,1.12Z"/><path class="cls-1" d="m40.81,7.61c.33-.94,1.05-1.41,2.16-1.41,1.3,0,1.95.61,1.95,1.83v1.94c0,.73.04,1.36.13,1.87h-.64c-.05-.21-.09-.53-.12-.97-.48.73-1.15,1.1-1.99,1.1-.58,0-1.03-.17-1.34-.5-.26-.28-.39-.65-.39-1.09,0-1,.62-1.6,1.86-1.8.48-.08,1.09-.14,1.83-.18v-.3c0-.52-.11-.89-.34-1.09-.2-.18-.52-.27-.96-.27-.79,0-1.29.37-1.51,1.11l-.64-.23Zm3.45,1.28c-.55.01-1.11.07-1.68.18-.88.18-1.32.6-1.32,1.27,0,.36.11.63.34.83.2.18.48.26.82.26.74,0,1.35-.4,1.84-1.19v-1.34Z"/><path class="cls-1" d="m51.29,6.33l-1.94,2.08,2.11,3.42h-.77l-1.8-2.97-1.1,1.14v1.83h-.68V3.67h.68v5.58l2.67-2.92h.83Z"/><path class="cls-1" d="m57.46,9.14h-3.99c0,.77.19,1.36.56,1.78.31.34.71.52,1.19.52.79,0,1.31-.39,1.56-1.18l.64.24c-.38.98-1.12,1.48-2.21,1.48-.77,0-1.38-.29-1.82-.88-.39-.52-.59-1.18-.59-2,0-.93.25-1.67.76-2.21.43-.46.96-.69,1.6-.69.73,0,1.31.28,1.73.84.38.5.57,1.14.57,1.92v.18Zm-.68-.52c-.05-.64-.24-1.12-.56-1.45-.28-.28-.63-.42-1.06-.42-.49,0-.9.19-1.2.57-.27.33-.43.77-.47,1.3h3.29Z"/><path class="cls-1" d="m68.23,8.13c-.07.56-.2,1.07-.38,1.55-.17.43-.37.78-.6,1.03.27.3.53.49.77.59.2.08.47.12.81.12l-.17.55h-.16c-.4,0-.73-.07-.99-.21-.22-.11-.45-.31-.7-.59-.6.55-1.35.83-2.23.83-.78,0-1.41-.24-1.89-.73-.41-.42-.61-.94-.61-1.56s.16-1.1.49-1.51c.28-.34.71-.65,1.29-.91-.41-.64-.62-1.22-.62-1.75s.19-.94.57-1.27c.33-.29.72-.43,1.18-.43.54,0,.97.16,1.28.49.27.29.4.65.4,1.1,0,.5-.17.92-.52,1.25-.32.3-.81.56-1.48.78.71,1.08,1.44,2.06,2.21,2.93.37-.53.61-1.32.71-2.39l.63.16Zm-4.11-.48c-.54.28-.92.58-1.12.92-.18.29-.26.66-.26,1.1,0,.54.2.98.61,1.33.36.3.79.46,1.3.46.74,0,1.35-.22,1.83-.66-.86-.97-1.65-2.02-2.35-3.15Zm.32-.61c.65-.24,1.09-.5,1.32-.77.19-.23.28-.54.28-.91,0-.32-.11-.57-.32-.77-.19-.17-.43-.26-.72-.26-.34,0-.62.12-.84.37-.19.21-.28.48-.28.78,0,.27.05.53.14.77.08.21.22.47.42.78Z"/><path class="cls-1" d="m74.15,3.67v3.66c.62-.76,1.29-1.13,1.99-1.13.49,0,.88.16,1.17.47.25.28.38.63.38,1.07v4.09h-.69v-3.8c0-.81-.34-1.22-1.02-1.22-.63,0-1.24.38-1.82,1.14v3.87h-.68V3.67h.68Z"/><path class="cls-1" d="m79.7,7.61c.33-.94,1.05-1.41,2.16-1.41,1.3,0,1.95.61,1.95,1.83v1.94c0,.73.04,1.36.13,1.87h-.64c-.05-.21-.09-.53-.12-.97-.48.73-1.15,1.1-1.99,1.1-.58,0-1.03-.17-1.34-.5-.26-.28-.39-.65-.39-1.09,0-1,.62-1.6,1.86-1.8.48-.08,1.09-.14,1.83-.18v-.3c0-.52-.11-.89-.34-1.09-.2-.18-.52-.27-.96-.27-.79,0-1.29.37-1.51,1.11l-.64-.23Zm3.45,1.28c-.55.01-1.11.07-1.68.18-.88.18-1.32.6-1.32,1.27,0,.36.11.63.34.83.2.18.48.26.82.26.74,0,1.35-.4,1.84-1.19v-1.34Z"/><path class="cls-1" d="m86.65,6.33v.88c.43-.68,1-1.02,1.69-1.02s1.24.28,1.64.85c.36.52.54,1.19.54,2.01,0,.95-.24,1.69-.73,2.23-.4.45-.91.68-1.5.68-.68,0-1.22-.33-1.62-1v2.86h-.68v-7.49h.66Zm.02,1.56v2.42c.41.71.92,1.07,1.52,1.07.51,0,.92-.23,1.21-.68.28-.41.41-.96.41-1.64,0-.77-.16-1.37-.49-1.78-.28-.34-.63-.52-1.07-.52-.65,0-1.18.38-1.58,1.13Z"/><path class="cls-1" d="m93.25,6.33v.88c.43-.68,1-1.02,1.69-1.02s1.24.28,1.64.85c.36.52.54,1.19.54,2.01,0,.95-.24,1.69-.73,2.23-.4.45-.91.68-1.5.68-.68,0-1.22-.33-1.62-1v2.86h-.68v-7.49h.66Zm.02,1.56v2.42c.41.71.92,1.07,1.52,1.07.51,0,.92-.23,1.21-.68.28-.41.41-.96.41-1.64,0-.77-.16-1.37-.49-1.78-.28-.34-.63-.52-1.07-.52-.65,0-1.18.38-1.58,1.13Z"/><path class="cls-1" d="m99.82,4.12v1.03h-1.01v-1.03h1.01Zm-.16,2.21v5.5h-.68v-5.5h.68Z"/><path class="cls-1" d="m102.52,6.33v1.02c.62-.77,1.29-1.15,2.01-1.15.5,0,.89.16,1.17.47.25.28.38.64.38,1.08v4.08h-.69v-3.8c0-.81-.34-1.22-1.02-1.22-.64,0-1.24.38-1.82,1.14v3.87h-.68v-5.5h.66Z"/><path class="cls-1" d="m112.55,9.14h-3.99c0,.77.19,1.36.56,1.78.31.34.71.52,1.19.52.79,0,1.31-.39,1.56-1.18l.64.24c-.38.98-1.12,1.48-2.21,1.48-.77,0-1.38-.29-1.82-.88-.39-.52-.59-1.18-.59-2,0-.93.25-1.67.76-2.21.43-.46.96-.69,1.6-.69.73,0,1.31.28,1.73.84.38.5.57,1.14.57,1.92v.18Zm-.68-.52c-.05-.64-.24-1.12-.56-1.45-.28-.28-.63-.42-1.06-.42-.49,0-.9.19-1.2.57-.27.33-.43.77-.47,1.3h3.29Z"/><path class="cls-1" d="m118.24,7.5l-.66.23c-.21-.66-.66-.99-1.34-.99-.42,0-.74.09-.96.27-.19.16-.29.36-.29.61,0,.31.1.54.29.68.17.13.48.25.92.34l.44.1c.68.16,1.15.37,1.4.62.23.23.35.56.35.99,0,.5-.2.9-.59,1.2-.37.28-.87.42-1.5.42-1.11,0-1.83-.44-2.17-1.33l.66-.25c.24.7.75,1.05,1.52,1.05.51,0,.88-.12,1.13-.35.19-.18.28-.4.28-.67,0-.34-.1-.59-.29-.74-.18-.14-.52-.27-1.02-.38l-.44-.1c-.65-.15-1.09-.35-1.33-.62-.2-.22-.3-.52-.3-.9,0-.46.18-.83.54-1.1.34-.25.79-.38,1.37-.38.99,0,1.66.43,1.99,1.3Z"/><path class="cls-1" d="m124.06,7.5l-.66.23c-.21-.66-.66-.99-1.34-.99-.42,0-.74.09-.96.27-.19.16-.29.36-.29.61,0,.31.1.54.29.68.17.13.48.25.92.34l.44.1c.68.16,1.15.37,1.4.62.23.23.35.56.35.99,0,.5-.2.9-.59,1.2-.37.28-.87.42-1.5.42-1.11,0-1.83-.44-2.17-1.33l.66-.25c.24.7.75,1.05,1.52,1.05.51,0,.88-.12,1.13-.35.19-.18.28-.4.28-.67,0-.34-.1-.59-.29-.74-.18-.14-.52-.27-1.02-.38l-.44-.1c-.65-.15-1.09-.35-1.33-.62-.2-.22-.3-.52-.3-.9,0-.46.18-.83.54-1.1.34-.25.79-.38,1.37-.38.99,0,1.66.43,1.99,1.3Z"/></g><path class="cls-1" d="m50.24,20.75l-1.95.58c-.84-3.18-2.75-4.77-5.74-4.77-2.18,0-3.9.91-5.16,2.72-1.16,1.66-1.74,3.84-1.74,6.55,0,3.1.75,5.49,2.24,7.19,1.24,1.4,2.79,2.1,4.66,2.1,3.14,0,5.13-1.62,5.95-4.86l1.92.69c-1.25,3.88-3.88,5.82-7.9,5.82-2.78,0-5.01-1.08-6.68-3.25-1.52-1.97-2.29-4.52-2.29-7.65,0-3.61.98-6.43,2.94-8.46,1.62-1.68,3.63-2.51,6.02-2.51,2.07,0,3.8.59,5.19,1.76,1.19,1.01,2.04,2.37,2.53,4.08Z"/><path class="cls-1" d="m70.88,14.91v21.87h-1.98v-10.68h-11.62v10.68h-1.98V14.91h1.98v9.48h11.62v-9.48h1.98Z"/><path class="cls-1" d="m85.3,14.91l7.22,21.87h-2.09l-2.31-7.22h-8.25l-2.37,7.22h-1.98l7.24-21.87h2.55Zm2.36,13.05l-1.82-5.7c-.65-1.98-1.24-3.92-1.74-5.8h-.28c-.53,1.95-1.09,3.88-1.7,5.77l-1.8,5.73h7.34Z"/><path class="cls-1" d="m99.11,14.91v20.16h11.13v1.71h-13.11V14.91h1.98Z"/><path class="cls-1" d="m123.24,14.91c2.79,0,5.01,1.08,6.65,3.23,1.48,1.96,2.23,4.51,2.23,7.67,0,3.61-.95,6.43-2.86,8.44-1.6,1.68-3.61,2.53-6.02,2.53-2.79,0-5.01-1.08-6.65-3.25-1.48-1.96-2.23-4.51-2.23-7.65,0-3.61.96-6.43,2.89-8.46,1.6-1.68,3.6-2.51,5.99-2.51Zm0,1.65c-2.18,0-3.88.9-5.11,2.71-1.11,1.64-1.67,3.83-1.67,6.57,0,3.12.72,5.53,2.15,7.2,1.2,1.39,2.74,2.09,4.63,2.09,2.19,0,3.9-.91,5.13-2.72,1.1-1.64,1.66-3.83,1.66-6.57,0-3.13-.71-5.53-2.14-7.19-1.19-1.39-2.74-2.09-4.64-2.09Z"/><path class="cls-1" d="m153.27,14.91v21.87h-2.55l-7.9-14.17c-.81-1.5-1.85-3.5-3.12-5.99h-.29c.04,3.12.06,5.3.06,6.56v13.59h-1.86V14.91h3.06l7.53,13.51c.9,1.67,1.94,3.72,3.12,6.14h.29c-.14-2.59-.21-4.86-.21-6.81v-12.83h1.86Z"/></g></g></svg>