<?xml version="1.0" encoding="UTF-8"?><svg id="_レイヤー_2" xmlns="http://www.w3.org/2000/svg" xmlns:xlink="http://www.w3.org/1999/xlink" viewBox="0 0 485 312"><defs><style>.cls-1{fill:#e0661d;}.cls-2{fill:#cc4719;}.cls-3,.cls-4{fill:#fff;}.cls-5{stroke-width:5px;}.cls-5,.cls-6,.cls-7,.cls-8,.cls-9,.cls-10,.cls-11,.cls-12,.cls-13,.cls-14,.cls-15{fill:none;}.cls-5,.cls-6,.cls-7,.cls-8,.cls-9,.cls-10,.cls-11,.cls-12,.cls-14,.cls-15,.cls-4{stroke-miterlimit:10;}.cls-5,.cls-10,.cls-15{stroke:#a0a0a0;}.cls-6{stroke:#323333;stroke-width:.71px;}.cls-7,.cls-8,.cls-9,.cls-12,.cls-14{stroke:#ddd;}.cls-16{fill:#323333;}.cls-8{stroke-dasharray:0 0 11.8 11.8;}.cls-9{stroke-dasharray:0 0 12.27 12.27;}.cls-10{stroke-width:15px;}.cls-11{stroke:#e0661d;stroke-width:2px;}.cls-17{fill:#47b465;}.cls-12{stroke-dasharray:0 0 12.25 12.25;}.cls-18{clip-path:url(#clippath);}.cls-19{fill:#adadad;}.cls-14{stroke-dasharray:0 0 11.83 11.83;}.cls-20{fill:#a6b92f;}.cls-15{stroke-width:10px;}.cls-21{fill:#231815;}.cls-22{fill:#3da558;}.cls-4{stroke:#969696;stroke-width:.24px;}</style><clipPath id="clippath"><rect class="cls-13" width="485" height="312"/></clipPath></defs><g id="_レイヤー_1-2"><g class="cls-18"><line class="cls-5" x1="224.51" y1="105.55" x2="50.6" y2="40.5"/><line class="cls-15" x1="224.51" y1="40.5" x2="224.51" y2="188"/><g><line class="cls-10" x1="10" y1="40.5" x2="530.5" y2="40.5"/><g><line class="cls-7" x1="10" y1="40.5" x2="16" y2="40.5"/><line class="cls-14" x1="27.83" y1="40.5" x2="518.59" y2="40.5"/></g></g><g><line class="cls-10" x1="10" y1="284.5" x2="530.5" y2="284.5"/><g><line class="cls-7" x1="10" y1="284.5" x2="16" y2="284.5"/><line class="cls-14" x1="27.83" y1="284.5" x2="518.59" y2="284.5"/></g></g><g><g><path class="cls-16" d="m293.71,67.75c0,.06-.03.09-.08.09h-.44s-.07-.03-.07-.09v-.52h-1.25v.89s-.03.07-.08.07h-.44c-.06,0-.08-.02-.08-.07l.02-3.37v-1.95l-.02-2.54c0-.06.03-.08.08-.08l.82.02h.66l.81-.02c.06,0,.08.03.08.08l-.02,2.2v2.11l.02,3.18Zm-.6-4.42v-2.56h-1.25v2.56h1.25Zm0,3.33v-2.78h-1.25v2.78h1.25Zm7.4-1.82c0,.06-.03.09-.08.09l-1.49-.02h-1.11c-.45.32-.91.6-1.39.85h1.96l1.18-.02c.06,0,.08.03.08.08l-.02,1.01v.71l.02,1.57c0,.06-.03.08-.08.08h-.42c-.07,0-.1-.03-.1-.08v-.38h-3.09v.45c0,.06-.03.08-.08.08h-.42c-.06,0-.08-.03-.08-.08l.02-1.6v-1.31c-.38.17-.75.33-1.12.49-.07.03-.12.04-.15.04-.04,0-.08-.05-.13-.16-.06-.12-.15-.23-.25-.33,1.26-.42,2.31-.89,3.17-1.41h-1.35l-1.48.02c-.06,0-.08-.03-.08-.09v-.34c0-.06.03-.08.08-.08l1.48.02h.82v-.9h-.58l-1.17.02c-.06,0-.08-.03-.08-.08v-.35c0-.06.03-.08.08-.08l1.17.02h.58c0-.36-.02-.64-.05-.83.24.01.44.03.62.06.09.01.13.04.13.09,0,.02-.03.08-.08.18-.03.07-.04.23-.04.5h.25l1.16-.02c.06,0,.09.03.09.08v.35c0,.06-.03.08-.09.08l-1.16-.02h-.25v.9h.67c.52-.38,1.01-.85,1.48-1.4.17-.2.29-.38.35-.56.23.1.4.2.53.29.06.03.08.08.08.12,0,.04-.03.07-.08.11-.11.06-.24.15-.36.29-.4.43-.8.81-1.19,1.14h.5l1.49-.02c.06,0,.08.03.08.08v.34Zm-.37-2.84c0,.06-.03.08-.08.08l-1.46-.02h-2.72l-1.47.02c-.06,0-.08-.03-.08-.08l.03-.67v-.53l-.03-.67c0-.06.03-.08.08-.08l1.47.02h2.72l1.46-.02c.06,0,.08.03.08.08l-.02.67v.53l.02.67Zm-4.06-.4v-1.06h-1.18v1.06h1.18Zm2.97,5.39v-.77h-3.09v.77h3.09Zm0,1.29v-.84h-3.09v.84h3.09Zm-1.25-6.68v-1.06h-1.21v1.06h1.21Zm1.75,0v-1.06h-1.22v1.06h1.22Z"/><path class="cls-16" d="m304.56,64.67c-.11.1-.21.22-.31.38-.04.07-.07.1-.09.1-.02,0-.04-.03-.07-.1-.29-.64-.51-1.3-.68-1.97,0,1.42.02,2.91.05,4.47.01.4.02.83.03,1.31,0,.24.01.36.01.38,0,.05-.03.08-.08.08h-.51c-.06,0-.08-.03-.08-.08,0-.01,0-.22.02-.63.06-1.96.1-3.76.11-5.43-.28,1.27-.69,2.42-1.22,3.45-.05.09-.08.13-.1.13-.02,0-.05-.04-.09-.12-.07-.15-.15-.28-.27-.39.62-1.1,1.12-2.36,1.5-3.79h-.21l-.94.02c-.07,0-.1-.03-.1-.09v-.42c0-.06.03-.09.1-.09l.94.02h.3v-.89c0-.59-.02-1.03-.07-1.3.23.01.45.03.67.07.08.01.12.04.12.08,0,.04-.02.11-.06.21-.03.08-.05.39-.05.92v.91l.93-.02c.06,0,.09.03.09.09v.42c0,.06-.03.09-.09.09l-.88-.02c.27.82.62,1.56,1.05,2.21Zm6.65-1.02c-.12.1-.2.21-.25.32-.06.11-.11.17-.15.17-.02,0-.07-.02-.15-.05-.54-.21-1.02-.46-1.44-.78v.68l.02.59c0,.06-.03.08-.09.08l-.96-.02h-1.15l-.97.02c-.06,0-.08-.03-.08-.08l.02-.58v-.38c0-.18,0-.29-.01-.35-.3.26-.67.52-1.11.76-.07.04-.12.06-.16.06-.04,0-.08-.05-.14-.14-.08-.13-.17-.23-.28-.3.85-.37,1.52-.86,2.02-1.48h-.1l-1.48.02c-.06,0-.09-.03-.09-.08v-.36c0-.06.03-.09.09-.09l1.48.02h.44c.16-.26.3-.53.41-.8-.56.07-1.11.12-1.66.16-.04,0-.07,0-.1,0-.07,0-.12-.05-.17-.15-.07-.15-.15-.26-.25-.34,1.79-.09,3.15-.26,4.11-.51.27-.07.48-.15.62-.23.19.12.34.24.44.34.06.07.09.12.09.15,0,.07-.06.1-.17.1-.13,0-.25.01-.35.04-.49.12-1.12.23-1.89.34-.15.38-.29.68-.42.9h2.06l1.48-.02c.06,0,.09.03.09.09v.36c0,.06-.03.08-.09.08l-1.48-.02h-.64c.54.63,1.36,1.12,2.45,1.46Zm-.61,1.62l-.02,1.12v1.9c.01.31-.07.53-.22.64-.1.08-.23.13-.37.15-.14.02-.36.04-.68.04-.11,0-.18-.01-.2-.03-.02-.02-.04-.08-.07-.19-.03-.14-.09-.27-.17-.39.21.02.47.03.78.03.22,0,.33-.12.33-.37v-2.46h-4.68v2.36l.02,1.06s-.03.07-.08.07h-.47c-.06,0-.08-.02-.08-.07l.02-1.05v-1.76l-.02-1.06c0-.06.03-.08.08-.08l1.46.02h2.82l1.47-.02c.06,0,.08.03.08.08Zm-1.67,2.92c0,.06-.03.08-.08.08h-.35c-.06,0-.08-.03-.08-.08v-.21h-1.59v.32c0,.05-.03.08-.08.08h-.34c-.06,0-.08-.03-.08-.08l.02-1.06v-.35l-.02-.53c0-.06.03-.08.08-.08l.78.02h.9l.78-.02c.06,0,.08.03.08.08l-.02.43v.4l.02,1Zm-.11-5.2c-.29-.26-.53-.53-.71-.8h-1.09c-.19.26-.41.53-.67.79.1,0,.33.01.7.01h1.77Zm-.12,1.24v-.81h-2.15v.81h2.15Zm-.29,3.32v-.81h-1.59v.81h1.59Z"/></g><rect class="cls-6" x="263.18" y="52.73" width="75.59" height="22.68"/></g><g><g><path class="cls-16" d="m84.66,265.69c0,.06-.03.08-.08.08h-.53c-.06,0-.08-.03-.08-.08v-.65h-7.29v.66c0,.06-.03.08-.08.08h-.53c-.06,0-.08-.03-.08-.08l.02-3.43v-1.97l-.02-2.56c0-.06.03-.08.08-.08l1.47.02h5.56l1.47-.02c.06,0,.08.03.08.08l-.02,2.31v2.21l.02,3.44Zm-.69-1.27v-6.13h-2.42v3.15c0,.24.04.38.13.43.09.05.29.07.59.07.25,0,.43-.03.54-.09.08-.05.14-.18.17-.38.02-.12.04-.35.06-.69.12.09.26.17.42.22.12.04.18.1.18.17,0,.01,0,.04,0,.09-.06.59-.21.96-.43,1.11-.18.12-.5.18-.95.18-.49,0-.83-.04-1.02-.13-.22-.1-.33-.32-.33-.66v-3.45h-1.42c-.01,1.38-.15,2.39-.41,3.04-.28.7-.78,1.27-1.49,1.71-.06.04-.11.06-.14.06-.04,0-.09-.04-.15-.12-.14-.15-.28-.25-.41-.31.84-.41,1.39-1,1.66-1.8.18-.56.28-1.42.29-2.58h-2.15v6.13h7.29Z"/><path class="cls-16" d="m95.96,262.36c-.13.09-.25.24-.36.45-.07.11-.11.16-.14.16-.03,0-.08-.02-.16-.06-1.1-.51-2.01-1.06-2.75-1.65-.61-.49-1.17-1.07-1.67-1.75-.69.99-1.56,1.85-2.61,2.58l1.43.02h2.53l1.42-.02c.07,0,.1.03.1.08l-.03,1.07v.99l.03,1.84c0,.06-.03.08-.1.08h-.49c-.06,0-.08-.03-.08-.08v-.57h-4.2v.63c0,.06-.03.08-.09.08h-.5c-.06,0-.08-.03-.08-.08l.02-1.87v-.87l-.02-1.25c-.43.3-.91.58-1.43.84-.1.05-.16.07-.17.07-.04,0-.09-.05-.16-.16-.1-.15-.22-.27-.36-.37.91-.37,1.76-.88,2.56-1.54.67-.56,1.22-1.15,1.65-1.78.15-.22.25-.43.32-.61.22.04.44.09.68.17.07.02.11.06.11.11,0,.04-.05.1-.14.16,1.23,1.54,2.8,2.64,4.71,3.31Zm-6.14-5.04c0,.05-.05.11-.15.17-.07.05-.15.13-.25.23-.57.72-1.26,1.33-2.05,1.82-.1.05-.15.07-.16.07-.03,0-.09-.05-.17-.14-.12-.14-.25-.25-.4-.33.8-.39,1.47-.9,2.01-1.54.21-.24.36-.48.47-.73.22.1.42.21.59.32.07.04.11.08.11.12Zm3.25,7.62v-2.25h-4.2v2.25h4.2Zm2.26-5.94c-.15.11-.28.24-.39.39-.07.1-.12.15-.16.15-.02,0-.07-.02-.15-.06-1.1-.66-1.97-1.39-2.59-2.19-.01-.02-.02-.04-.02-.05,0-.02.04-.06.11-.11l.26-.18c.06-.04.1-.06.12-.06.02,0,.04.02.07.05.43.51.87.92,1.31,1.23.38.27.86.54,1.44.83Z"/><path class="cls-16" d="m106.22,265.25s-.03.07-.08.07l-1.41-.02h-6.19l-1.41.02c-.06,0-.08-.02-.08-.07v-.55c0-.06.03-.08.08-.08l1.41.02h6.19l1.41-.02c.06,0,.08.03.08.08v.55Zm-.83-7c0,.06-.03.08-.09.08l-1.51-.02h-4.31l-1.51.02c-.06,0-.08-.03-.08-.08v-.53c0-.06.03-.08.08-.08l1.51.02h4.31l1.51-.02c.06,0,.09.03.09.08v.53Zm-.69,3.31c0,.06-.03.08-.08.08l-1.46-.02h-3.05l-1.46.02c-.06,0-.08-.03-.08-.08v-.53c0-.06.03-.08.08-.08l1.46.02h3.05l1.46-.02c.06,0,.08.03.08.08v.53Z"/><path class="cls-16" d="m116.88,258.25s-.03.07-.08.07l-1.41-.02h-2.56v4.67l.03,1.98c0,.4-.13.68-.39.83-.18.12-.62.18-1.3.18-.15,0-.3,0-.47,0-.1,0-.17-.02-.19-.04-.02-.02-.04-.08-.06-.18-.05-.22-.13-.4-.22-.53.53.07.94.1,1.22.1h.12c.23,0,.38-.05.45-.12.07-.06.1-.17.1-.34v-6.55h-2.91l-1.41.02c-.06,0-.08-.02-.08-.07v-.55c0-.06.03-.08.08-.08l1.41.02h6.17l1.41-.02c.06,0,.08.03.08.08v.55Z"/><path class="cls-16" d="m126.28,265.99c0,.06-.03.08-.08.08h-.53c-.06,0-.08-.03-.08-.08v-.66h-5.23v.69c0,.06-.03.09-.09.09h-.52c-.06,0-.08-.03-.08-.09l.02-3.79v-2.1l-.02-2.75c0-.06.03-.09.08-.09l1.49.02h3.45l1.51-.02c.06,0,.08.03.08.09l-.02,2.46v2.36l.02,3.78Zm-.69-6.28v-1.78h-5.23v1.78h5.23Zm0,2.44v-1.84h-5.23v1.84h5.23Zm0,2.57v-1.97h-5.23v1.97h5.23Z"/></g><rect class="cls-6" x="63.86" y="249.73" width="75.59" height="22.68"/></g><g><polyline class="cls-10" points="392.5 -21 392.5 126 184.5 198.5 184.5 316.7"/><g><line class="cls-9" x1="392.5" y1="-2.73" x2="392.5" y2="113.86"/><polyline class="cls-7" points="392.5 120 392.5 126 386.83 127.97"/><line class="cls-12" x1="375.27" y1="132.01" x2="195.95" y2="194.51"/><polyline class="cls-7" points="190.17 196.53 184.5 198.5 184.5 204.5"/><line class="cls-8" x1="184.5" y1="216.3" x2="184.5" y2="304.8"/><line class="cls-7" x1="184.5" y1="310.7" x2="184.5" y2="316.7"/></g></g><g><rect class="cls-22" x="147.4" y="246.07" width="25.67" height="27.44"/><g><path class="cls-3" d="m151.86,252.09c.11-.66.38-1.17.82-1.51.37-.29.82-.43,1.35-.43.65,0,1.16.19,1.53.57.33.34.5.78.5,1.32,0,.44-.12.85-.35,1.21-.22.35-.61.77-1.16,1.25-.96.84-1.6,1.62-1.92,2.33h3.44v.69h-4.27v-.62c.4-.94,1.11-1.88,2.14-2.84.53-.5.88-.89,1.05-1.19.14-.25.21-.52.21-.83,0-.39-.12-.7-.37-.92-.21-.19-.48-.28-.81-.28-.77,0-1.21.48-1.34,1.44l-.82-.19Z"/><path class="cls-3" d="m168.77,254.38c-.1.1-.19.22-.25.35-.06.11-.1.16-.14.16-.02,0-.07-.01-.15-.04-1.6-.52-2.86-1.21-3.77-2.05,0,.28,0,.59.02.92.01.25.02.4.02.42,0,.06-.03.08-.08.08h-.47c-.05,0-.08-.03-.08-.08,0-.02,0-.2.02-.53.01-.3.02-.56.02-.81-.86.86-2.08,1.55-3.64,2.05-.07.02-.12.03-.14.03-.04,0-.08-.05-.14-.16-.06-.1-.15-.2-.26-.31,1.62-.44,2.87-1.05,3.74-1.83h-2.04l-1.33.02c-.06,0-.09-.03-.09-.08v-.37c0-.05.03-.08.09-.08l1.33.02h.66c-.11-.29-.26-.58-.43-.88-.02-.03-.02-.04-.02-.06,0-.03.04-.05.12-.08l.26-.09c.06-.02.09-.03.1-.03.02,0,.04.02.06.05.23.36.41.72.54,1.09h1.18v-1.52c-.82.08-1.67.15-2.55.2-.04,0-.07,0-.09,0-.06,0-.13-.05-.19-.16-.06-.14-.14-.25-.23-.33,1.24-.05,2.32-.13,3.26-.26.78-.1,1.47-.23,2.06-.38.26-.06.48-.14.65-.23.22.13.4.25.53.36.05.05.07.09.07.13,0,.06-.06.09-.19.09-.07,0-.27.04-.59.12-.6.15-1.32.28-2.16.39v1.59h1.26c.2-.36.36-.73.5-1.1.05-.15.08-.28.1-.41.28.07.46.12.56.15.06.02.1.05.1.11,0,.04-.03.08-.09.13-.04.03-.08.09-.12.18-.17.37-.32.68-.46.94h.74l1.33-.02c.05,0,.08.03.08.08v.37c0,.05-.03.08-.08.08l-1.33-.02h-2.21c.56.44,1.18.8,1.86,1.08.5.21,1.19.44,2.06.7Zm-1.59,3.91c0,.05-.03.08-.08.08h-.45c-.05,0-.08-.03-.08-.08v-.41h-4.61v.44c0,.05-.03.08-.08.08h-.44c-.05,0-.08-.03-.08-.08l.02-1.75v-.83l-.02-1.14c0-.05.03-.08.08-.08l1.38.02h2.89l1.39-.02c.05,0,.08.03.08.08l-.02,1.01v.94l.02,1.74Zm-3.28-2.35v-.92h-1.94v.92h1.94Zm0,1.46v-1h-1.94v1h1.94Zm2.67-1.46v-.92h-2.1v.92h2.1Zm0,1.46v-1h-2.1v1h2.1Z"/><path class="cls-3" d="m159,265.08s-.02.06-.05.18c-.04.15-.06.46-.06.94v1.18l.02.85c0,.05-.02.08-.07.08h-.48c-.06,0-.08-.03-.08-.08v-.55h-6.08v.58c0,.05-.03.08-.08.08h-.47c-.05,0-.08-.03-.08-.08l.02-.82v-1.2c0-.56-.02-.97-.07-1.24.26,0,.48.03.67.06.09.01.13.04.13.09,0,.02,0,.05-.02.08-.02.04-.03.07-.03.09-.05.13-.07.43-.07.9v.89h2.64v-3.4h-2.35v.5c0,.05-.03.08-.08.08h-.47c-.05,0-.08-.03-.08-.08l.02-.89v-1.36c0-.56-.02-.98-.07-1.25.25,0,.48.03.67.06.07,0,.11.04.11.09s-.01.11-.04.18c-.04.11-.06.41-.06.91v1.2h2.35v-2.43c0-.59-.02-1.01-.07-1.28.26,0,.49.03.69.06.08,0,.12.04.12.08,0,.02,0,.05-.02.08-.02.04-.03.08-.03.1-.04.15-.06.46-.06.95v2.44h2.54v-1.25c0-.56-.02-.98-.07-1.25.24,0,.46.03.67.06.08.01.12.04.12.09,0,.01-.02.07-.05.17-.04.16-.06.48-.06.95v1.35l.02.92c0,.05-.03.08-.08.08h-.47c-.05,0-.08-.03-.08-.08v-.48h-2.54v3.4h2.82v-.93c0-.56-.02-.97-.07-1.24.26,0,.48.03.67.06.08.01.12.04.12.08Z"/><path class="cls-3" d="m168.82,267.86c0,.05-.02.08-.07.08h-.5c-.05,0-.08-.03-.08-.08v-.85h-5.88v.86c0,.05-.03.08-.09.08h-.49s-.07-.03-.07-.08v-3.18s0-1.85,0-1.85v-2.37c0-.05.01-.08.06-.08l1.43.02h4.18l1.43-.02s.07.03.07.08v2.16s0,2.06,0,2.06v3.17Zm-.64-1.44v-5.42h-5.88v5.42h5.88Z"/></g></g><g><rect class="cls-22" x="233.4" y="52.07" width="25.67" height="27.44"/><g><path class="cls-3" d="m244.01,56.15l2.37,7.37h-.91l-.71-2.34h-2.63l-.74,2.34h-.85l2.37-7.37h1.1Zm.56,4.35l-.55-1.79c-.14-.46-.32-1.09-.52-1.89h-.15c-.17.69-.33,1.32-.51,1.88l-.54,1.8h2.27Z"/><path class="cls-3" d="m250.02,56.2v6.65h1.36v.67h-3.61v-.67h1.45v-5.78c-.39.27-.87.51-1.44.72l-.14-.73c.57-.19,1.14-.47,1.7-.86h.68Z"/><path class="cls-3" d="m245,71.08s-.02.06-.05.18c-.04.15-.06.46-.06.94v1.18l.02.85c0,.05-.02.08-.07.08h-.48c-.05,0-.08-.03-.08-.08v-.55h-6.08v.58c0,.05-.03.08-.08.08h-.47c-.05,0-.08-.03-.08-.08l.02-.82v-1.2c0-.56-.02-.97-.07-1.24.26,0,.48.03.67.06.09.01.13.04.13.09,0,.02,0,.05-.02.08-.02.04-.03.07-.03.09-.05.13-.07.43-.07.9v.89h2.64v-3.4h-2.35v.5c0,.06-.03.08-.08.08h-.47c-.05,0-.08-.03-.08-.08l.02-.89v-1.36c0-.56-.02-.98-.07-1.25.25,0,.48.03.67.06.07,0,.11.04.11.09s-.01.11-.04.18c-.04.11-.06.41-.06.91v1.2h2.35v-2.43c0-.59-.02-1.01-.07-1.28.26,0,.49.03.69.06.08,0,.12.04.12.08,0,.02,0,.05-.02.08-.02.04-.03.07-.03.1-.04.15-.06.46-.06.95v2.44h2.54v-1.25c0-.56-.02-.98-.07-1.25.24,0,.46.03.67.06.08.01.12.04.12.09,0,.01-.02.07-.05.17-.04.16-.06.48-.06.95v1.35l.02.92c0,.06-.03.08-.08.08h-.47c-.05,0-.08-.03-.08-.08v-.48h-2.54v3.4h2.82v-.93c0-.56-.02-.97-.07-1.24.26,0,.48.03.67.06.08.01.12.04.12.08Z"/><path class="cls-3" d="m254.82,73.86c0,.05-.02.08-.07.08h-.5c-.05,0-.08-.03-.08-.08v-.85h-5.88v.86c0,.05-.03.08-.09.08h-.49s-.07-.03-.07-.08v-3.18s0-1.85,0-1.85v-2.37c0-.05.01-.08.06-.08l1.43.02h4.18l1.43-.02s.07.03.07.08v2.16s0,2.06,0,2.06v3.17Zm-.64-1.44v-5.42h-5.88v5.42h5.88Z"/></g></g><circle class="cls-19" cx="45.5" cy="59.5" r="7.5"/><g><path class="cls-21" d="m16.09,75.23v-1.21c0-.66-.04-1.16-.12-1.5.35.03.63.08.83.14.08.03.13.08.13.16,0,.04-.01.08-.04.13-.08.17-.12.53-.12,1.07v1.07l2.92-.69c.33-.07.56-.16.67-.25.04-.03.08-.05.12-.05.04,0,.08.01.14.04.15.08.31.21.46.37.04.04.06.08.06.13,0,.06-.03.11-.09.16-.11.09-.19.2-.25.31-.49.92-1.04,1.65-1.63,2.21-.06.06-.11.08-.16.08-.04,0-.07-.01-.12-.04-.17-.09-.35-.16-.52-.2.79-.64,1.4-1.4,1.82-2.28l-3.42.85v2.42c0,.38.12.63.35.76.21.11.6.16,1.17.16.84,0,1.59-.06,2.26-.19.02,0,.04,0,.05,0,.05,0,.08.05.1.14.04.25.05.4.05.45,0,.08-.05.12-.15.13-.64.08-1.4.12-2.27.12s-1.52-.13-1.84-.4c-.26-.22-.4-.59-.4-1.12v-2.3l-.85.21c-.66.16-1.16.31-1.51.45-.05.02-.08.02-.11.02-.04,0-.08-.03-.11-.1-.08-.16-.16-.38-.26-.66.48-.05,1.1-.16,1.86-.35l.98-.23Z"/><path class="cls-21" d="m23.52,73.35c.55.05,1.19.08,1.92.08h3.54c.22,0,.39-.03.5-.09.04-.02.07-.03.12-.03.05,0,.1.01.14.04.17.12.32.25.45.41.04.05.05.09.05.14,0,.06-.03.12-.08.17-.08.07-.15.18-.22.34-.47,1.24-1.12,2.33-1.96,3.28-.9,1.02-1.89,1.82-2.97,2.41-.06.04-.12.06-.17.06-.06,0-.12-.03-.17-.08-.14-.14-.31-.25-.52-.34.77-.38,1.43-.79,1.97-1.24.41-.34.83-.75,1.26-1.23.86-.96,1.49-2.03,1.88-3.2h-3.83c-.58,0-1.14.02-1.68.06h-.03c-.08,0-.13-.05-.15-.16,0-.03,0-.13-.02-.32-.01-.14-.02-.24-.02-.3Zm6.06-1.01l.35-.26s.04-.02.06-.02c.02,0,.04,0,.06.02.41.29.79.69,1.13,1.21.01.02.02.03.02.05,0,.02-.01.04-.03.06l-.29.24s-.04.02-.06.02c-.03,0-.05-.01-.07-.04-.31-.52-.7-.95-1.16-1.28Zm.88-.67l.32-.25s.04-.03.06-.03c.02,0,.03,0,.04.02.48.37.86.76,1.14,1.17,0,.02.01.03.01.05,0,.02-.01.04-.04.07l-.27.24s-.03.03-.05.03c-.02,0-.04-.02-.06-.05-.29-.48-.68-.9-1.15-1.25Z"/><path class="cls-21" d="m33.6,73.66c.17-.2.3-.35.39-.46.03-.04.06-.05.1-.05.02,0,.05,0,.08.03.63.35,1.24.8,1.8,1.33.04.04.06.08.06.11,0,.02,0,.05-.03.08-.12.18-.23.32-.34.43-.03.04-.06.06-.08.06-.02,0-.05-.02-.08-.05-.59-.58-1.23-1.08-1.9-1.48Zm.24,5.25c.35-.1.7-.24,1.05-.41,1.13-.6,2.09-1.22,2.89-1.86,1.15-.94,2.05-1.84,2.7-2.69.03.22.09.44.17.66.02.05.03.1.03.14,0,.06-.04.13-.11.21-.61.72-1.41,1.48-2.43,2.3-.81.65-1.81,1.3-3,1.95-.22.13-.4.26-.55.39-.05.05-.09.07-.14.07s-.09-.03-.13-.08c-.17-.18-.34-.41-.49-.68Z"/><path class="cls-21" d="m46.6,74.67v3.64c0,.57,0,1.17.03,1.81,0,0,0,.02,0,.03,0,.06-.03.09-.1.09-.09,0-.19,0-.29,0s-.19,0-.29,0c-.06,0-.1-.04-.1-.12.03-.79.04-1.38.04-1.78v-3.04c-.94.83-1.98,1.58-3.14,2.26-.04.02-.07.03-.1.03-.05,0-.09-.02-.14-.07-.1-.1-.27-.21-.5-.32,1.19-.65,2.23-1.36,3.11-2.11.79-.67,1.43-1.32,1.94-1.93.38-.46.61-.83.69-1.13.33.17.56.32.69.45.05.04.07.09.07.14,0,.06-.04.11-.11.15-.12.06-.31.23-.56.53-.41.49-.82.95-1.25,1.38Z"/><path class="cls-21" d="m51.65,78.57c.9-.32,1.81-.75,2.75-1.29,1.04-.6,1.92-1.26,2.62-1.99.01.29.04.53.09.72,0,.04.01.06.01.09,0,.05-.03.1-.08.14-.65.59-1.48,1.18-2.5,1.76-.43.25-1.25.66-2.45,1.21-.3.14-.48.24-.53.29-.05.05-.1.07-.15.07-.04,0-.08-.02-.13-.05-.15-.12-.28-.26-.38-.4-.03-.04-.04-.08-.04-.12,0-.03.01-.07.03-.12.03-.08.05-.26.05-.51l.02-3.23c0-.44,0-.7,0-.77,0-.65-.03-1.15-.1-1.5.39.04.68.09.84.16.07.02.11.06.11.13,0,.04-.01.09-.03.15-.06.16-.1.77-.11,1.82l-.03,3.44Z"/><path class="cls-21" d="m59.72,73.35c.55.05,1.19.08,1.92.08h3.54c.22,0,.39-.03.5-.09.04-.02.07-.03.12-.03.05,0,.1.01.14.04.17.12.32.25.45.41.04.05.05.09.05.14,0,.06-.03.12-.08.17-.08.07-.15.18-.22.34-.47,1.24-1.12,2.33-1.96,3.28-.9,1.02-1.89,1.82-2.97,2.41-.06.04-.12.06-.17.06-.06,0-.12-.03-.17-.08-.14-.14-.31-.25-.52-.34.77-.38,1.43-.79,1.97-1.24.41-.34.83-.75,1.26-1.23.86-.96,1.49-2.03,1.88-3.2h-3.83c-.58,0-1.14.02-1.68.06h-.03c-.08,0-.13-.05-.15-.16,0-.03,0-.13-.02-.32-.01-.14-.02-.24-.02-.3Zm6.06-1.01l.35-.26s.04-.02.06-.02c.02,0,.04,0,.06.02.41.29.79.69,1.13,1.21.01.02.02.03.02.05,0,.02-.01.04-.03.06l-.29.24s-.04.02-.06.02c-.03,0-.05-.01-.07-.04-.31-.52-.7-.95-1.16-1.28Zm.88-.67l.32-.25s.04-.03.06-.03c.02,0,.03,0,.04.02.48.37.86.76,1.14,1.17,0,.02.01.03.01.05,0,.02-.01.04-.04.07l-.27.24s-.03.03-.05.03c-.02,0-.04-.02-.06-.05-.29-.48-.68-.9-1.15-1.25Z"/><path class="cls-21" d="m70,73.66c.17-.2.3-.35.39-.46.03-.04.06-.05.1-.05.02,0,.05,0,.08.03.63.35,1.24.8,1.8,1.33.04.04.06.08.06.11,0,.02,0,.05-.03.08-.12.18-.23.32-.34.43-.03.04-.06.06-.08.06-.02,0-.05-.02-.08-.05-.59-.58-1.23-1.08-1.9-1.48Zm.24,5.25c.35-.1.7-.24,1.05-.41,1.13-.6,2.09-1.22,2.89-1.86,1.15-.94,2.05-1.84,2.7-2.69.03.22.09.44.17.66.02.05.03.1.03.14,0,.06-.04.13-.11.21-.61.72-1.41,1.48-2.43,2.3-.81.65-1.81,1.3-3,1.95-.22.13-.4.26-.55.39-.05.05-.09.07-.14.07s-.09-.03-.13-.08c-.17-.18-.34-.41-.49-.68Z"/></g><g><path class="cls-21" d="m20.81,24.05c0,.05-.03.08-.08.08l-1.31-.02h-5.97l-1.31.02c-.05,0-.08-.03-.08-.08v-.44c0-.05.03-.08.08-.08l1.31.02h2.6v-1.72h-1.58l-1.41.02c-.06,0-.08-.03-.08-.08v-.44c0-.05.03-.08.08-.08l1.41.02h1.58v-.06c0-.58-.02-1-.07-1.27.26,0,.49.03.68.06.07,0,.11.04.11.09,0,.01-.01.07-.04.18-.04.15-.06.44-.06.89v.11h1.67l1.42-.02s.07.03.07.08v.44c0,.05-.02.08-.07.08l-1.42-.02h-1.67v1.72h2.75l1.31-.02c.06,0,.08.03.08.08v.44Zm-.12-7.25s-.03.07-.08.07h-1.33s-3.34,0-3.34,0c-.33.76-.68,1.47-1.06,2.16,1.22-.06,2.46-.17,3.7-.31-.27-.29-.6-.59-.99-.92-.03-.02-.04-.04-.04-.05,0-.03.03-.06.09-.1l.22-.15s.07-.04.09-.04c.02,0,.04.01.08.04.74.58,1.44,1.28,2.1,2.08.02.03.03.05.03.07,0,.03-.03.06-.08.09l-.27.18c-.07.05-.11.07-.14.07-.02,0-.04-.01-.06-.04-.28-.36-.48-.61-.59-.75-1.79.24-3.67.41-5.63.52-.24.02-.39.04-.45.07-.06.03-.12.05-.17.05-.06,0-.09-.04-.12-.12-.05-.13-.1-.34-.15-.62.19,0,.37,0,.55,0s.34,0,.49,0l.65-.02c.37-.6.74-1.34,1.09-2.2h-3.02c-.05,0-.08-.01-.08-.06v-.43c0-.06.03-.09.08-.09l1.33.02h5.69l1.33-.02c.05,0,.08.03.08.09v.43Z"/><path class="cls-21" d="m26.38,21.19c0,.05-.03.08-.08.08l-1.21-.02h-.31c.2.29.43.54.69.75.19.16.46.33.79.53-.1.1-.18.22-.24.35-.04.08-.07.12-.09.12-.03,0-.07-.03-.14-.09-.49-.36-.9-.81-1.22-1.34,0,.63.02,1.31.04,2.03.02.53.02.84.02.95,0,.05-.03.08-.09.08h-.45c-.06,0-.08-.03-.08-.08,0-.15,0-.51.02-1.1.02-.69.03-1.28.04-1.76-.4.78-.97,1.47-1.7,2.06-.07.05-.12.08-.15.08s-.06-.04-.1-.12c-.07-.15-.16-.27-.27-.37.88-.59,1.55-1.29,2-2.09h-.51l-1.22.02c-.05,0-.08-.03-.08-.08v-.4c0-.06.03-.08.08-.08l1.22.02h.7v-.02c0-.44-.02-.76-.06-.94.21,0,.41.03.61.05.07.01.1.04.1.08,0,.04-.01.08-.04.14-.04.08-.05.3-.05.67v.02h.48l1.21-.02c.06,0,.08.03.08.08v.4Zm.17-1.68c0,.05-.03.08-.08.08l-1.24-.02h-1.93l-1.24.02c-.05,0-.08-.03-.08-.08v-.42c0-.05.03-.08.08-.08l1.24.02h1.32c.17-.35.33-.72.46-1.14.05-.16.08-.3.09-.43.22.05.4.1.54.14.08.03.12.07.12.12,0,.03-.02.07-.07.12-.06.06-.11.14-.15.23-.12.3-.26.62-.44.96h.06l1.24-.02c.06,0,.08.03.08.08v.42Zm-.16-2.36c0,.05-.03.08-.08.08l-1.19-.02h-1.66l-1.19.02c-.05,0-.08-.03-.08-.08v-.39c0-.06.03-.08.08-.08l1.19.02h.58v-.31c0-.31-.02-.55-.07-.72.29,0,.5.03.65.05.09,0,.13.04.13.08s-.02.1-.06.18c-.04.06-.05.2-.05.41v.31h.48l1.19-.02c.06,0,.08.03.08.08v.39Zm-2.56,1.39s0,.04,0,.05c0,.04-.03.07-.1.09l-.25.1c-.06.02-.09.02-.11.02-.04,0-.06-.03-.07-.08-.11-.4-.24-.73-.38-1-.01-.03-.02-.05-.02-.06,0-.03.04-.05.12-.08l.23-.08s.05-.01.06-.01c.03,0,.05.02.07.06.18.3.32.62.43.99Zm7.2.98c0,.05-.03.08-.08.08l-1.21-.02h-.05v3.53l.02,1.49c0,.05-.03.08-.08.08h-.49c-.05,0-.08-.03-.08-.08l.02-1.49v-3.53h-1.49c0,1.31-.08,2.29-.25,2.93-.19.73-.53,1.39-1.02,1.98-.06.07-.1.11-.14.11-.03,0-.08-.03-.13-.08-.08-.09-.21-.16-.38-.23.56-.59.94-1.29,1.14-2.1.13-.56.2-1.5.2-2.81v-1.23c0-.54-.02-1.01-.07-1.41.22.05.44.11.65.2.72-.2,1.39-.46,1.99-.78.19-.1.35-.22.5-.36.15.13.3.28.44.45.04.05.06.09.06.14,0,.05-.04.08-.13.09-.09,0-.21.05-.37.12-.72.36-1.55.66-2.49.9v1.54h2.15l1.21-.02c.05,0,.08.03.08.08v.42Z"/><path class="cls-21" d="m34.85,18.06s-.03.08-.1.14c-.07.05-.15.18-.25.38-.18.34-.36.67-.55.98v3.73l.02,1.31c0,.05-.03.08-.08.08h-.46c-.05,0-.08-.03-.08-.08l.02-1.31v-1.39c0-.33,0-.84.02-1.52-.32.43-.62.8-.93,1.1-.06.06-.11.09-.13.09-.02,0-.06-.04-.12-.13-.07-.12-.16-.22-.28-.3.81-.73,1.49-1.66,2.03-2.79.1-.23.16-.45.2-.67.23.08.42.17.57.25.08.05.12.09.12.13Zm5.72.49c0,.06-.03.08-.08.08h-.45s-.07-.03-.07-.08v-1.39h-6.98v1.41c0,.05-.02.08-.07.08h-.46c-.05,0-.08-.03-.08-.08l.02-1.03v-.33l-.02-.52c0-.05.03-.08.08-.08l1.37.02h2.25v-.33c0-.27-.02-.49-.07-.67.32.02.54.03.66.04.08.01.12.04.12.08,0,.03-.02.1-.06.19-.03.07-.05.21-.05.39v.3h2.44l1.37-.02c.06,0,.08.03.08.08l-.02.46v.39l.02,1.01Zm-.66,6.03c0,.05-.03.08-.08.08h-.44c-.05,0-.08-.03-.08-.08v-.41h-3.34v.44s-.03.07-.08.07h-.43c-.05,0-.08-.02-.08-.07l.02-1.78v-1.29l-.02-1.42c0-.05.03-.08.08-.08l1.26.02h.07c.2-.41.35-.83.48-1.25h-.83l-1.29.02c-.06,0-.08-.03-.08-.08v-.41c0-.05.03-.08.08-.08l1.29.02h2.03l1.29-.02s.07.03.07.08v.41c0,.06-.02.08-.07.08l-1.29-.02h-.59c-.13.41-.29.83-.48,1.25h1.19l1.25-.02c.05,0,.08.03.08.08l-.02,1.27v1.41l.02,1.77Zm-.6-2.77v-1.24h-3.34v1.24h3.34Zm0,1.84v-1.33h-3.34v1.33h3.34Z"/></g><g><path class="cls-21" d="m441.8,24.05c0,.05-.03.08-.08.08l-1.31-.02h-5.97l-1.31.02c-.05,0-.08-.03-.08-.08v-.44c0-.05.03-.08.08-.08l1.31.02h2.6v-1.72h-1.58l-1.41.02c-.06,0-.08-.03-.08-.08v-.44c0-.05.03-.08.08-.08l1.41.02h1.58v-.06c0-.58-.02-1-.07-1.27.26,0,.49.03.68.06.07,0,.11.04.11.09,0,.01-.01.07-.04.18-.04.15-.06.44-.06.89v.11h1.67l1.42-.02s.07.03.07.08v.44c0,.05-.02.08-.07.08l-1.42-.02h-1.67v1.72h2.75l1.31-.02c.05,0,.08.03.08.08v.44Zm-.12-7.25s-.03.07-.08.07h-1.33s-3.34,0-3.34,0c-.33.76-.68,1.47-1.06,2.16,1.22-.06,2.46-.17,3.7-.31-.27-.29-.6-.59-.99-.92-.03-.02-.04-.04-.04-.05,0-.03.03-.06.09-.1l.22-.15s.07-.04.09-.04c.02,0,.04.01.08.04.74.58,1.44,1.28,2.1,2.08.02.03.03.05.03.07,0,.03-.03.06-.08.09l-.27.18c-.07.05-.11.07-.14.07-.02,0-.04-.01-.06-.04-.28-.36-.48-.61-.59-.75-1.79.24-3.67.41-5.63.52-.24.02-.39.04-.45.07-.06.03-.12.05-.17.05-.06,0-.09-.04-.12-.12-.05-.13-.1-.34-.15-.62.19,0,.37,0,.55,0s.34,0,.49,0l.65-.02c.38-.6.74-1.34,1.09-2.2h-3.02c-.05,0-.08-.01-.08-.06v-.43c0-.06.03-.09.08-.09l1.33.02h5.69l1.33-.02c.05,0,.08.03.08.09v.43Z"/><path class="cls-21" d="m451.72,17.7c0,.05-.03.08-.08.08l-1.32-.02h-5.79l-1.32.02c-.05,0-.08-.03-.08-.08v-.46c0-.05.03-.08.08-.08l1.32.02h2.45v-.45c0-.48-.02-.83-.07-1.02.32.01.55.03.7.06.08.01.12.04.12.07,0,.03-.02.1-.06.19-.03.11-.05.34-.05.7v.45h2.7l1.32-.02c.05,0,.08.03.08.08v.46Zm-.9,1.66l-.02,1.13v2.16c0,.28-.06.48-.21.6-.09.08-.23.14-.41.17-.19.03-.49.05-.89.05-.1,0-.16,0-.19-.03-.02-.02-.04-.07-.06-.15-.04-.19-.1-.34-.18-.44.32.02.61.03.87.03.17,0,.28-.03.34-.1.06-.06.09-.17.09-.32v-2.6h-2.54v3.25l.02,1.48c0,.05-.03.08-.08.08h-.52c-.05,0-.08-.03-.08-.08l.02-1.48v-3.25h-2.28v2.34l.02,1.2c0,.05-.03.08-.08.08h-.53s-.07-.03-.07-.08l.02-1.19v-1.79l-.02-1.06c0-.05.02-.08.07-.08l1.43.02h1.44v-.19c0-.48-.02-.82-.06-1.02.3.01.53.03.69.06.08,0,.12.04.12.08,0,.03-.02.1-.06.19-.04.07-.05.3-.05.68v.2h1.69l1.43-.02c.05,0,.08.03.08.08Z"/><path class="cls-21" d="m456.21,17.8c.29.1.52.19.69.29.05.03.07.07.07.12,0,.05-.02.09-.07.13-.08.06-.17.2-.27.41-.2.4-.33.65-.38.75h2.69c.3,0,.77-.01,1.41-.04.08,0,.12.04.12.12v.42c0,.06-.04.09-.13.09-.31-.01-.77-.02-1.36-.02h-.58c-.06,1.03-.25,1.84-.56,2.44-.38.7-.89,1.26-1.55,1.69-.04.03-.08.05-.13.05-.04,0-.08-.01-.12-.04-.2-.12-.37-.19-.53-.21.81-.48,1.39-1.05,1.74-1.73.3-.57.47-1.31.5-2.2h-1.82c-.4.59-.78,1.07-1.13,1.42-.04.04-.08.06-.12.06-.03,0-.07-.01-.11-.04-.13-.08-.28-.15-.46-.18.73-.72,1.3-1.51,1.72-2.36.2-.39.33-.78.38-1.17Z"/><path class="cls-21" d="m472.09,21.01c-.12.08-.23.22-.34.42-.06.1-.11.15-.13.15-.03,0-.08-.02-.15-.06-1.03-.48-1.89-.99-2.58-1.55-.57-.46-1.09-1.01-1.56-1.64-.65.92-1.47,1.73-2.45,2.42l1.34.02h2.37l1.33-.02c.06,0,.09.03.09.08l-.03,1v.93l.03,1.72c0,.05-.03.08-.09.08h-.46c-.05,0-.08-.03-.08-.08v-.53h-3.94v.59c0,.05-.03.08-.08.08h-.47c-.05,0-.08-.03-.08-.08l.02-1.75v-.82l-.02-1.17c-.41.28-.86.55-1.34.79-.09.05-.15.07-.16.07-.04,0-.08-.05-.15-.15-.09-.14-.21-.26-.34-.34.85-.35,1.65-.83,2.4-1.44.62-.52,1.14-1.08,1.54-1.67.14-.21.24-.4.3-.57.2.03.41.09.64.16.07.02.1.05.1.1,0,.04-.04.09-.13.15,1.16,1.44,2.63,2.47,4.42,3.1Zm-5.76-4.72s-.05.1-.14.16c-.07.05-.15.12-.23.22-.54.67-1.18,1.24-1.92,1.7-.09.05-.14.07-.15.07-.03,0-.08-.04-.16-.13-.11-.13-.24-.24-.37-.31.75-.36,1.38-.84,1.88-1.44.2-.22.34-.45.44-.69.21.09.39.2.55.3.07.04.1.07.1.12Zm3.05,7.14v-2.1h-3.94v2.1h3.94Zm2.12-5.57c-.14.1-.26.22-.36.37-.06.09-.11.14-.15.14-.02,0-.07-.02-.14-.06-1.04-.62-1.85-1.31-2.43-2.05-.01-.02-.02-.03-.02-.04,0-.02.03-.06.1-.11l.24-.17c.05-.04.09-.06.12-.06.02,0,.04.01.06.04.41.48.82.86,1.23,1.16.35.25.8.51,1.35.78Z"/></g><g><path class="cls-21" d="m446.8,306.05c0,.05-.03.08-.08.08l-1.31-.02h-5.97l-1.31.02c-.05,0-.08-.03-.08-.08v-.45c0-.05.03-.08.08-.08l1.31.02h2.6v-1.72h-1.58l-1.41.02c-.06,0-.08-.03-.08-.08v-.44c0-.05.03-.08.08-.08l1.41.02h1.58v-.06c0-.58-.02-1-.07-1.27.26,0,.49.03.68.06.07,0,.11.04.11.09,0,.01-.01.07-.04.18-.04.15-.06.44-.06.89v.11h1.67l1.42-.02s.07.03.07.08v.44c0,.05-.02.08-.07.08l-1.42-.02h-1.67v1.72h2.75l1.31-.02c.05,0,.08.03.08.08v.45Zm-.12-7.25s-.03.07-.08.07h-1.33s-3.34,0-3.34,0c-.33.76-.68,1.47-1.06,2.16,1.22-.06,2.46-.17,3.7-.31-.27-.29-.6-.59-.99-.92-.03-.02-.04-.04-.04-.05,0-.03.03-.06.09-.1l.22-.15s.07-.04.09-.04c.02,0,.04.01.08.04.74.58,1.44,1.28,2.1,2.08.02.03.03.05.03.07,0,.03-.03.06-.08.09l-.27.18c-.07.04-.11.07-.14.07-.02,0-.04-.02-.06-.04-.28-.36-.48-.61-.59-.75-1.79.24-3.67.41-5.63.52-.24.02-.39.04-.45.07-.06.03-.12.05-.17.05-.06,0-.09-.04-.12-.12-.05-.13-.1-.34-.15-.62.19,0,.37,0,.55,0s.34,0,.49,0l.65-.02c.38-.6.74-1.34,1.09-2.2h-3.02c-.05,0-.08-.01-.08-.06v-.43c0-.06.03-.09.08-.09l1.33.02h5.69l1.33-.02c.05,0,.08.03.08.09v.43Z"/><path class="cls-21" d="m456.5,306.13c0,.05-.03.08-.08.08h-.49c-.05,0-.08-.03-.08-.08v-.61h-6.83v.62c0,.05-.03.08-.08.08h-.49c-.05,0-.08-.03-.08-.08l.02-3.22v-1.85l-.02-2.4c0-.05.03-.08.08-.08l1.38.02h5.21l1.38-.02c.05,0,.08.03.08.08l-.02,2.16v2.08l.02,3.22Zm-.65-1.19v-5.75h-2.27v2.95c0,.22.04.36.12.4.08.05.27.07.56.07.23,0,.4-.03.5-.09.07-.05.13-.17.16-.36.02-.11.04-.33.05-.65.11.09.24.16.39.21.11.04.17.09.17.16,0,.01,0,.04,0,.08-.06.55-.19.9-.4,1.04-.17.11-.47.17-.89.17-.46,0-.78-.04-.96-.12-.21-.1-.31-.3-.31-.62v-3.24h-1.33c-.01,1.3-.14,2.25-.38,2.85-.26.66-.73,1.19-1.4,1.6-.06.04-.1.06-.13.06-.04,0-.08-.04-.14-.11-.13-.14-.26-.24-.38-.29.79-.38,1.31-.94,1.55-1.69.17-.52.26-1.33.27-2.42h-2.01v5.75h6.83Z"/><path class="cls-21" d="m467.09,303.01c-.12.08-.23.22-.34.42-.06.1-.11.15-.13.15-.03,0-.08-.02-.15-.06-1.03-.48-1.89-.99-2.58-1.55-.57-.46-1.09-1.01-1.56-1.63-.65.92-1.47,1.73-2.45,2.42l1.34.02h2.37l1.33-.02c.06,0,.09.03.09.08l-.03,1v.93l.03,1.72c0,.05-.03.08-.09.08h-.46c-.05,0-.08-.03-.08-.08v-.53h-3.94v.59c0,.05-.03.08-.08.08h-.47c-.05,0-.08-.03-.08-.08l.02-1.75v-.81l-.02-1.17c-.41.28-.86.55-1.34.79-.09.04-.15.07-.16.07-.04,0-.08-.05-.15-.15-.09-.14-.21-.26-.34-.34.85-.35,1.65-.83,2.4-1.44.62-.52,1.14-1.08,1.54-1.67.14-.21.24-.4.3-.57.2.03.41.09.64.16.07.02.1.05.1.1,0,.04-.04.09-.13.15,1.16,1.44,2.63,2.47,4.42,3.1Zm-5.76-4.72s-.05.1-.14.16c-.07.05-.15.12-.23.22-.54.67-1.18,1.24-1.92,1.7-.09.05-.14.07-.15.07-.03,0-.08-.04-.16-.13-.11-.13-.24-.24-.37-.31.75-.37,1.38-.85,1.88-1.44.2-.22.34-.45.44-.69.21.09.39.2.55.3.07.04.1.07.1.12Zm3.05,7.14v-2.11h-3.94v2.11h3.94Zm2.12-5.57c-.14.1-.26.22-.36.37-.06.09-.11.14-.15.14-.02,0-.07-.02-.14-.06-1.04-.62-1.85-1.31-2.43-2.05-.01-.02-.02-.04-.02-.04,0-.02.03-.06.1-.11l.24-.17c.05-.04.09-.06.12-.06.02,0,.04.02.06.04.41.47.82.86,1.23,1.16.35.25.8.51,1.35.78Z"/></g><g><path class="cls-21" d="m20.81,308.05c0,.05-.03.08-.08.08l-1.31-.02h-5.97l-1.31.02c-.05,0-.08-.03-.08-.08v-.45c0-.05.03-.08.08-.08l1.31.02h2.6v-1.72h-1.58l-1.41.02c-.06,0-.08-.03-.08-.08v-.44c0-.05.03-.08.08-.08l1.41.02h1.58v-.06c0-.58-.02-1-.07-1.27.26,0,.49.03.68.06.07,0,.11.04.11.09,0,.01-.01.07-.04.18-.04.15-.06.44-.06.89v.11h1.67l1.42-.02s.07.03.07.08v.44c0,.05-.02.08-.07.08l-1.42-.02h-1.67v1.72h2.75l1.31-.02c.06,0,.08.03.08.08v.45Zm-.12-7.25s-.03.07-.08.07h-1.33s-3.34,0-3.34,0c-.33.76-.68,1.47-1.06,2.16,1.22-.06,2.46-.17,3.7-.31-.27-.29-.6-.59-.99-.92-.03-.02-.04-.04-.04-.05,0-.03.03-.06.09-.1l.22-.15s.07-.04.09-.04c.02,0,.04.01.08.04.74.58,1.44,1.28,2.1,2.08.02.03.03.05.03.07,0,.03-.03.06-.08.09l-.27.18c-.07.04-.11.07-.14.07-.02,0-.04-.02-.06-.04-.28-.36-.48-.61-.59-.75-1.79.24-3.67.41-5.63.52-.24.02-.39.04-.45.07-.06.03-.12.05-.17.05-.06,0-.09-.04-.12-.12-.05-.13-.1-.34-.15-.62.19,0,.37,0,.55,0s.34,0,.49,0l.65-.02c.37-.6.74-1.34,1.09-2.2h-3.02c-.05,0-.08-.01-.08-.06v-.43c0-.06.03-.09.08-.09l1.33.02h5.69l1.33-.02c.05,0,.08.03.08.09v.43Z"/><path class="cls-21" d="m26.38,305.19c0,.05-.03.08-.08.08l-1.21-.02h-.31c.2.29.43.54.69.75.19.16.46.33.79.53-.1.1-.18.22-.24.35-.04.08-.07.12-.09.12-.03,0-.07-.03-.14-.09-.49-.36-.9-.81-1.22-1.34,0,.63.02,1.3.04,2.03.02.53.02.84.02.95,0,.05-.03.08-.09.08h-.45c-.06,0-.08-.03-.08-.08,0-.15,0-.51.02-1.1.02-.69.03-1.28.04-1.76-.4.78-.97,1.47-1.7,2.06-.07.05-.12.08-.15.08s-.06-.04-.1-.12c-.07-.15-.16-.27-.27-.37.88-.59,1.55-1.29,2-2.09h-.51l-1.22.02c-.05,0-.08-.03-.08-.08v-.4c0-.06.03-.08.08-.08l1.22.02h.7v-.02c0-.44-.02-.75-.06-.94.21,0,.41.03.61.05.07.01.1.04.1.08,0,.04-.01.08-.04.14-.04.08-.05.3-.05.67v.02h.48l1.21-.02c.06,0,.08.03.08.08v.4Zm.17-1.68c0,.05-.03.08-.08.08l-1.24-.02h-1.93l-1.24.02c-.05,0-.08-.03-.08-.08v-.42c0-.05.03-.08.08-.08l1.24.02h1.32c.17-.34.33-.72.46-1.14.05-.16.08-.3.09-.44.22.05.4.1.54.14.08.03.12.07.12.12,0,.03-.02.07-.07.12-.06.06-.11.14-.15.23-.12.3-.26.62-.44.96h.06l1.24-.02c.06,0,.08.03.08.08v.42Zm-.16-2.36c0,.05-.03.08-.08.08l-1.19-.02h-1.66l-1.19.02c-.05,0-.08-.03-.08-.08v-.39c0-.05.03-.08.08-.08l1.19.02h.58v-.31c0-.31-.02-.55-.07-.72.29,0,.5.03.65.05.09,0,.13.04.13.08s-.02.1-.06.18c-.04.06-.05.2-.05.41v.31h.48l1.19-.02c.06,0,.08.03.08.08v.39Zm-2.56,1.39s0,.04,0,.05c0,.04-.03.07-.1.09l-.25.1c-.06.02-.09.03-.11.03-.04,0-.06-.03-.07-.08-.11-.4-.24-.73-.38-1-.01-.03-.02-.05-.02-.06,0-.03.04-.05.12-.08l.23-.08s.05-.02.06-.02c.03,0,.05.02.07.06.18.3.32.62.43.99Zm7.2.98c0,.05-.03.08-.08.08l-1.21-.02h-.05v3.53l.02,1.49c0,.05-.03.08-.08.08h-.49c-.05,0-.08-.03-.08-.08l.02-1.49v-3.53h-1.49c0,1.31-.08,2.29-.25,2.93-.19.73-.53,1.39-1.02,1.98-.06.08-.1.11-.14.11-.03,0-.08-.03-.13-.08-.08-.09-.21-.17-.38-.23.56-.59.94-1.29,1.14-2.1.13-.56.2-1.5.2-2.81v-1.23c0-.54-.02-1.01-.07-1.41.22.04.44.11.65.2.72-.2,1.39-.46,1.99-.78.19-.1.35-.22.5-.36.15.13.3.28.44.46.04.05.06.09.06.14,0,.05-.04.08-.13.09-.09,0-.21.05-.37.12-.72.36-1.55.66-2.49.9v1.54h2.15l1.21-.02c.05,0,.08.03.08.08v.43Z"/><path class="cls-21" d="m34.85,302.06s-.03.08-.1.14c-.07.05-.15.18-.25.38-.18.34-.36.67-.55.98v3.73l.02,1.31c0,.05-.03.08-.08.08h-.46c-.05,0-.08-.03-.08-.08l.02-1.31v-1.39c0-.33,0-.84.02-1.52-.32.43-.62.8-.93,1.1-.06.06-.11.09-.13.09-.02,0-.06-.04-.12-.13-.07-.12-.16-.22-.28-.3.81-.73,1.49-1.66,2.03-2.79.1-.23.16-.45.2-.67.23.08.42.17.57.25.08.04.12.09.12.13Zm5.72.49c0,.06-.03.08-.08.08h-.45s-.07-.03-.07-.08v-1.39h-6.98v1.41c0,.05-.02.08-.07.08h-.46c-.05,0-.08-.03-.08-.08l.02-1.03v-.33l-.02-.52c0-.05.03-.08.08-.08l1.37.02h2.25v-.33c0-.27-.02-.49-.07-.67.32.02.54.03.66.04.08.01.12.04.12.08,0,.03-.02.1-.06.19-.03.08-.05.21-.05.39v.3h2.44l1.37-.02c.06,0,.08.03.08.08l-.02.46v.39l.02,1.01Zm-.66,6.03c0,.05-.03.08-.08.08h-.44c-.05,0-.08-.03-.08-.08v-.41h-3.34v.44s-.03.07-.08.07h-.43c-.05,0-.08-.02-.08-.07l.02-1.78v-1.29l-.02-1.42c0-.05.03-.08.08-.08l1.26.02h.07c.2-.41.35-.83.48-1.25h-.83l-1.29.02c-.06,0-.08-.03-.08-.08v-.41c0-.05.03-.08.08-.08l1.29.02h2.03l1.29-.02s.07.03.07.08v.41c0,.05-.02.08-.07.08l-1.29-.02h-.59c-.13.41-.29.83-.48,1.25h1.19l1.25-.02c.05,0,.08.03.08.08l-.02,1.27v1.41l.02,1.77Zm-.6-2.77v-1.23h-3.34v1.23h3.34Zm0,1.84v-1.33h-3.34v1.33h3.34Z"/></g><circle class="cls-19" cx="184.5" cy="179.5" r="7.5"/><g><path class="cls-21" d="m155.09,160.23v-1.21c0-.66-.04-1.16-.12-1.5.35.03.63.08.83.14.08.03.13.08.13.16,0,.04-.01.08-.04.13-.08.17-.12.53-.12,1.07v1.07l2.92-.69c.33-.07.56-.16.67-.25.04-.03.08-.05.12-.05.04,0,.08.01.14.04.15.08.31.21.46.37.04.04.06.08.06.13,0,.06-.03.11-.09.16-.11.09-.19.2-.25.31-.49.92-1.04,1.65-1.63,2.21-.06.06-.11.08-.16.08-.04,0-.07-.01-.12-.04-.17-.09-.35-.16-.52-.2.79-.64,1.4-1.4,1.82-2.28l-3.42.85v2.42c0,.38.12.63.35.76.21.11.6.16,1.17.16.84,0,1.59-.06,2.26-.19.02,0,.04,0,.05,0,.05,0,.08.05.1.14.04.25.05.4.05.45,0,.08-.05.12-.15.13-.64.08-1.4.12-2.27.12s-1.52-.13-1.84-.4c-.26-.22-.4-.59-.4-1.12v-2.3l-.85.21c-.66.16-1.16.31-1.51.45-.05.02-.08.02-.11.02-.04,0-.08-.03-.11-.1-.08-.16-.16-.38-.26-.66.48-.05,1.1-.16,1.86-.35l.98-.23Z"/><path class="cls-21" d="m162.52,158.35c.55.05,1.19.08,1.92.08h3.54c.22,0,.39-.03.5-.09.04-.02.07-.03.12-.03.05,0,.1.01.14.04.17.12.32.25.45.41.04.05.05.09.05.14,0,.06-.03.12-.08.17-.08.07-.15.18-.22.34-.47,1.24-1.12,2.33-1.96,3.28-.9,1.02-1.89,1.82-2.97,2.41-.06.04-.12.06-.17.06-.06,0-.12-.03-.17-.08-.14-.14-.31-.25-.52-.34.77-.38,1.43-.79,1.97-1.24.41-.34.83-.75,1.26-1.23.86-.96,1.49-2.03,1.88-3.2h-3.83c-.58,0-1.14.02-1.68.06h-.03c-.08,0-.13-.05-.15-.16,0-.03,0-.13-.02-.32-.01-.14-.02-.24-.02-.3Zm6.06-1.01l.35-.26s.04-.02.06-.02c.02,0,.04,0,.06.02.41.29.79.69,1.13,1.21.01.02.02.03.02.05,0,.02-.01.04-.03.06l-.29.24s-.04.02-.06.02c-.03,0-.05-.01-.07-.04-.31-.52-.7-.95-1.16-1.28Zm.88-.67l.32-.25s.04-.03.06-.03c.02,0,.03,0,.04.02.48.37.86.76,1.14,1.17,0,.02.01.03.01.05,0,.02-.01.04-.04.07l-.27.24s-.03.03-.05.03c-.02,0-.04-.02-.06-.05-.29-.48-.68-.9-1.15-1.25Z"/><path class="cls-21" d="m172.6,158.66c.17-.2.3-.35.39-.46.03-.04.06-.05.1-.05.02,0,.05,0,.08.03.63.35,1.24.8,1.8,1.33.04.04.06.08.06.11,0,.02,0,.05-.03.08-.12.18-.23.32-.34.43-.03.04-.06.06-.08.06-.02,0-.05-.02-.08-.05-.59-.58-1.23-1.08-1.9-1.48Zm.24,5.25c.35-.1.7-.24,1.05-.41,1.13-.6,2.09-1.22,2.89-1.86,1.15-.94,2.05-1.84,2.7-2.69.03.22.09.44.17.66.02.05.03.1.03.14,0,.06-.04.13-.11.21-.61.72-1.41,1.48-2.43,2.3-.81.65-1.81,1.3-3,1.95-.22.13-.4.26-.55.39-.05.05-.09.07-.14.07s-.09-.03-.13-.08c-.17-.18-.34-.41-.49-.68Z"/><path class="cls-21" d="m185.6,159.67v3.64c0,.57,0,1.17.03,1.81,0,0,0,.02,0,.03,0,.06-.03.09-.1.09-.09,0-.19,0-.29,0s-.19,0-.29,0c-.06,0-.1-.04-.1-.12.03-.79.04-1.38.04-1.78v-3.04c-.94.83-1.98,1.58-3.14,2.26-.04.02-.07.03-.1.03-.05,0-.09-.02-.14-.07-.1-.1-.27-.21-.5-.32,1.19-.65,2.23-1.36,3.11-2.11.79-.67,1.43-1.32,1.94-1.93.38-.46.61-.83.69-1.13.33.17.56.32.69.45.05.04.07.09.07.14,0,.06-.04.11-.11.15-.12.06-.31.23-.56.53-.41.49-.82.95-1.25,1.38Z"/><path class="cls-21" d="m190.65,163.57c.9-.32,1.81-.75,2.75-1.29,1.04-.6,1.92-1.26,2.62-1.99.01.29.04.53.09.72,0,.04.01.06.01.09,0,.05-.03.1-.08.14-.65.59-1.48,1.18-2.5,1.76-.43.25-1.25.66-2.45,1.21-.3.14-.48.24-.53.29-.05.05-.1.07-.15.07-.04,0-.08-.02-.13-.05-.15-.12-.28-.26-.38-.4-.03-.04-.04-.08-.04-.12,0-.03.01-.07.03-.12.03-.08.05-.26.05-.51l.02-3.23c0-.44,0-.7,0-.77,0-.65-.03-1.15-.1-1.5.39.04.68.09.84.16.07.02.11.06.11.13,0,.04-.01.09-.03.15-.06.16-.1.77-.11,1.82l-.03,3.44Z"/><path class="cls-21" d="m198.72,158.35c.55.05,1.19.08,1.92.08h3.54c.22,0,.39-.03.5-.09.04-.02.08-.03.12-.03.05,0,.1.01.14.04.17.12.32.25.45.41.04.05.05.09.05.14,0,.06-.03.12-.08.17-.08.07-.15.18-.22.34-.47,1.24-1.12,2.33-1.96,3.28-.91,1.02-1.89,1.82-2.97,2.41-.06.04-.12.06-.17.06-.06,0-.12-.03-.17-.08-.14-.14-.31-.25-.52-.34.77-.38,1.43-.79,1.97-1.24.41-.34.83-.75,1.26-1.23.86-.96,1.49-2.03,1.88-3.2h-3.83c-.58,0-1.14.02-1.68.06h-.03c-.08,0-.13-.05-.15-.16,0-.03,0-.13-.02-.32-.01-.14-.02-.24-.02-.3Zm6.06-1.01l.35-.26s.04-.02.06-.02c.02,0,.04,0,.06.02.41.29.79.69,1.13,1.21.01.02.02.03.02.05,0,.02-.01.04-.03.06l-.29.24s-.04.02-.06.02c-.03,0-.05-.01-.07-.04-.31-.52-.7-.95-1.16-1.28Zm.88-.67l.32-.25s.04-.03.06-.03c.02,0,.03,0,.04.02.48.37.86.76,1.14,1.17,0,.02.01.03.01.05,0,.02-.01.04-.04.07l-.27.24s-.03.03-.05.03c-.02,0-.04-.02-.06-.05-.29-.48-.68-.9-1.15-1.25Z"/><path class="cls-21" d="m209,158.66c.17-.2.3-.35.39-.46.03-.04.07-.05.1-.05.02,0,.05,0,.08.03.63.35,1.24.8,1.8,1.33.04.04.06.08.06.11,0,.02,0,.05-.03.08-.12.18-.23.32-.34.43-.03.04-.06.06-.08.06-.02,0-.04-.02-.08-.05-.59-.58-1.23-1.08-1.9-1.48Zm.24,5.25c.35-.1.7-.24,1.05-.41,1.13-.6,2.09-1.22,2.89-1.86,1.15-.94,2.05-1.84,2.7-2.69.03.22.09.44.17.66.02.05.03.1.03.14,0,.06-.04.13-.11.21-.61.72-1.41,1.48-2.43,2.3-.81.65-1.81,1.3-3,1.95-.22.13-.4.26-.55.39-.05.05-.09.07-.14.07s-.09-.03-.13-.08c-.17-.18-.34-.41-.49-.68Z"/></g><circle class="cls-19" cx="207.5" cy="82.5" r="7.5"/><g><path class="cls-21" d="m153.37,58.35c.55.05,1.19.08,1.92.08h3.54c.22,0,.39-.03.5-.09.04-.02.07-.03.12-.03.05,0,.1.01.14.04.17.12.32.25.45.41.04.05.05.1.05.14,0,.06-.03.12-.08.17-.08.07-.15.18-.22.34-.47,1.24-1.12,2.33-1.96,3.28-.9,1.02-1.89,1.82-2.97,2.41-.06.04-.12.06-.17.06-.06,0-.12-.03-.17-.08-.14-.14-.31-.25-.52-.34.77-.38,1.43-.79,1.97-1.24.41-.34.83-.75,1.26-1.23.86-.96,1.49-2.03,1.88-3.19h-3.83c-.58,0-1.14.02-1.68.06h-.03c-.08,0-.13-.05-.15-.16,0-.03,0-.13-.02-.32-.01-.14-.02-.24-.02-.3Z"/><path class="cls-21" d="m162.79,63.57c.9-.32,1.81-.75,2.75-1.29,1.04-.6,1.92-1.26,2.62-1.99.01.29.04.53.09.72,0,.04.01.06.01.09,0,.05-.03.1-.08.14-.65.59-1.48,1.18-2.5,1.76-.43.25-1.25.66-2.45,1.21-.3.14-.48.24-.53.29-.05.05-.1.07-.15.07-.04,0-.08-.02-.13-.05-.15-.12-.28-.26-.38-.4-.03-.04-.04-.08-.04-.12,0-.03.01-.07.03-.12.03-.08.05-.26.05-.51l.02-3.23c0-.44,0-.7,0-.77,0-.65-.03-1.15-.1-1.5.39.04.68.09.84.16.07.02.11.06.11.13,0,.04-.01.09-.03.15-.06.16-.1.77-.11,1.82l-.03,3.44Z"/><path class="cls-21" d="m170.33,60.32c.17-.09.3-.17.4-.22.03-.01.05-.02.06-.02.03,0,.07.02.1.06.31.4.56.82.74,1.26.01.04.02.06.02.08,0,.03-.02.05-.07.08-.09.05-.2.11-.34.16-.02,0-.04.01-.06.01-.04,0-.07-.03-.09-.09-.23-.54-.48-.98-.77-1.34Zm4.54-.48c.31.09.54.18.67.28.04.03.07.07.07.11,0,.04-.02.07-.06.11-.07.06-.16.21-.26.43-.42.97-.87,1.74-1.32,2.32-.53.68-1.14,1.25-1.82,1.71-.04.03-.08.04-.12.04-.03,0-.06-.01-.08-.04-.14-.11-.29-.18-.47-.22.83-.55,1.51-1.15,2.02-1.79.51-.65.92-1.39,1.22-2.21.07-.19.12-.44.15-.74Zm-2.79.07c.21-.11.35-.18.42-.21.02,0,.04-.01.06-.01.04,0,.07.02.1.07.28.37.5.79.67,1.25,0,.02.01.04.01.05,0,.04-.02.07-.07.09-.12.07-.24.12-.36.17-.02,0-.03,0-.04,0-.03,0-.06-.03-.09-.09-.21-.54-.44-.98-.69-1.33Z"/><path class="cls-21" d="m177.28,60.43c.05-.07.11-.17.19-.3.06-.1.1-.17.12-.2.03-.05.07-.08.12-.08.02,0,.04,0,.05,0,.62.23,1.21.53,1.76.91.05.04.08.07.08.12,0,.03,0,.06-.03.09-.08.17-.17.31-.26.43-.03.05-.06.07-.1.07-.03,0-.06-.02-.09-.05-.52-.4-1.13-.74-1.84-1.01Zm.81,3.73c.35-.08.7-.21,1.05-.39,1.05-.55,1.97-1.12,2.75-1.72,1.13-.88,2.08-1.81,2.85-2.77.03.22.09.44.19.65.02.04.03.07.03.1,0,.05-.03.11-.08.17-.72.84-1.6,1.65-2.64,2.45-.72.55-1.69,1.18-2.92,1.87-.23.12-.39.23-.48.34-.04.04-.07.06-.12.06-.06,0-.11-.03-.16-.09-.12-.14-.28-.36-.47-.67Zm.37-6.03s.09-.13.17-.25c.06-.1.11-.17.14-.21.04-.05.07-.08.1-.08.02,0,.04,0,.08.02.55.23,1.13.58,1.74,1.04.05.04.07.07.07.1,0,.02-.01.06-.04.1-.14.23-.24.37-.29.43-.03.03-.05.04-.07.04s-.06-.02-.11-.06c-.49-.45-1.09-.83-1.79-1.13Z"/><path class="cls-21" d="m189.84,63.59h1.64s.04-.01.04-.01c.06,0,.1.04.1.12v.32c0,.06-.01.09-.03.1s-.05.02-.1.02c-.56-.01-.97-.02-1.21-.02h-3.14c-.45,0-.83.02-1.15.05h-.03c-.06,0-.09-.05-.1-.14-.02-.11-.04-.26-.04-.47.34.02.77.04,1.29.04h2.15l.34-2.49h-1.52c-.4,0-.76.01-1.05.03h-.04c-.06,0-.09-.04-.1-.11-.02-.12-.04-.29-.05-.5.4.04.82.05,1.26.05h1.31c.16,0,.28-.02.36-.07.04-.02.07-.03.09-.03.03,0,.06.01.1.04.14.1.25.21.33.33.03.04.04.07.04.11,0,.04-.02.07-.06.11-.07.06-.11.18-.13.34l-.33,2.18Z"/><path class="cls-21" d="m197.15,61.22v2.12c0,.74,0,1.33.03,1.77,0,.08-.05.12-.14.13-.07,0-.15,0-.25,0s-.18,0-.25,0c-.09,0-.14-.05-.14-.14.03-.76.05-1.34.05-1.75v-1.61c-.93.69-1.99,1.34-3.17,1.94-.05.03-.1.04-.13.04-.05,0-.09-.02-.13-.07-.12-.13-.28-.24-.5-.33,1.38-.63,2.57-1.32,3.57-2.07.77-.57,1.42-1.15,1.95-1.72l-2.87.03c-.39,0-.81.03-1.26.07-.09,0-.15-.04-.16-.11-.05-.26-.08-.48-.09-.65.41.05.93.07,1.55.07h2.59c.42,0,.68-.04.78-.1.04-.02.07-.03.11-.03.04,0,.09.02.13.06.13.12.24.24.32.37.03.04.04.08.04.11,0,.06-.04.11-.13.15-.08.04-.16.1-.26.19-.62.63-1.16,1.14-1.64,1.53Zm-1.7-3.78c.08-.14.17-.29.28-.47.04-.05.08-.08.12-.08.02,0,.05,0,.08.01.7.21,1.36.48,1.97.82.05.03.08.06.08.1,0,.02,0,.05-.03.08-.04.08-.12.21-.24.38-.03.06-.07.09-.1.09-.02,0-.05-.01-.09-.04-.55-.33-1.24-.63-2.07-.9Zm2.49,4.31c.05-.06.11-.15.19-.26.07-.1.11-.16.12-.19.03-.04.05-.06.08-.06.02,0,.04,0,.07.02.81.35,1.56.77,2.23,1.26.05.04.08.07.08.1,0,.02,0,.05-.03.08-.13.21-.23.35-.3.43-.03.04-.06.06-.08.06-.02,0-.05-.02-.11-.06-.61-.51-1.36-.98-2.25-1.38Z"/><path class="cls-21" d="m206.95,61.36c1.05.77,2.01,1.6,2.87,2.51.04.04.07.07.07.1s-.02.06-.06.11c-.07.09-.2.21-.36.36-.03.03-.06.04-.08.04-.03,0-.06-.02-.1-.06-.79-.9-1.71-1.75-2.76-2.54-1.13,1.17-2.32,2.1-3.57,2.79-.06.03-.1.05-.13.05-.04,0-.08-.02-.12-.06-.09-.11-.26-.23-.52-.36,1.39-.69,2.62-1.59,3.68-2.71.72-.76,1.35-1.66,1.9-2.68h-3.01c-.36,0-.84.02-1.44.06-.06,0-.1-.04-.12-.11-.04-.19-.06-.4-.06-.64.33.03.84.04,1.55.04h2.9c.29,0,.48-.03.57-.08.02-.01.04-.02.07-.02.04,0,.08.02.13.05.15.11.28.25.41.41.02.03.03.06.03.09,0,.04-.03.09-.08.14-.09.07-.19.2-.29.37-.44.76-.94,1.48-1.48,2.15Z"/><path class="cls-21" d="m162.41,76.35c1.09-.92,1.87-1.96,2.34-3.12.21-.5.31-.87.32-1.13.38.13.65.24.79.33.06.04.1.08.1.14,0,.05-.03.09-.08.15-.12.12-.23.31-.35.57-.56,1.26-1.31,2.35-2.26,3.29-.06.06-.12.09-.19.09-.05,0-.09-.02-.12-.05-.12-.11-.31-.2-.55-.26Zm5.16-3.85c.22-.16.37-.26.44-.3.05-.03.08-.04.1-.04.03,0,.07.02.11.06.98.97,1.81,2.17,2.5,3.59.02.04.03.07.03.1,0,.04-.02.07-.07.11-.22.16-.38.26-.47.31-.03.02-.06.03-.08.03-.03,0-.06-.03-.08-.09-.64-1.46-1.47-2.72-2.48-3.77Zm1.2-1.29l.36-.26s.04-.02.06-.02c.02,0,.03,0,.05.02.41.29.79.69,1.13,1.21.01.01.02.03.02.04,0,.02-.01.04-.04.06l-.29.24s-.04.02-.06.02c-.03,0-.05-.01-.07-.04-.31-.52-.69-.95-1.16-1.28Zm.88-.67l.32-.25s.05-.02.06-.02.03,0,.05.02c.48.37.86.76,1.14,1.17,0,.02.01.04.01.05,0,.02-.02.05-.05.07l-.27.24s-.04.02-.05.02c-.02,0-.05-.02-.07-.05-.29-.48-.68-.89-1.15-1.25Z"/><path class="cls-21" d="m172.81,73.81c.46.06,1.2.09,2.21.09h3.07c.7,0,1.43,0,2.19-.03.02,0,.04,0,.04,0,.07,0,.1.04.1.12,0,.07,0,.15,0,.26s0,.19,0,.26c0,.08-.03.12-.1.12-.02,0-.03,0-.04,0-.5-.01-1.22-.02-2.16-.02h-3.69c-.4,0-.76.02-1.08.06-.05,0-.11.02-.2.03-.04,0-.07,0-.08,0-.08,0-.14-.05-.17-.14-.04-.18-.07-.43-.1-.75Z"/><path class="cls-21" d="m185.23,72.39c.04-.51.07-.87.07-1.07,0-.11,0-.23,0-.34,0-.26-.02-.5-.06-.74.33.03.6.08.8.15.09.03.13.08.13.15,0,.05-.02.1-.05.16-.05.1-.1.32-.13.66-.01.23-.04.57-.09,1.03h1.7l1.26-.02c.1,0,.15.04.15.12,0,.24,0,.55-.03.92-.05,1.35-.17,2.4-.37,3.16-.1.4-.23.68-.38.86-.13.15-.31.27-.54.34-.23.08-.57.12-1.04.12-.08,0-.14-.04-.16-.12-.05-.2-.17-.39-.35-.56.13,0,.26.01.38.01.38,0,.68-.04.9-.11.15-.05.26-.13.32-.23.06-.1.12-.29.2-.59.2-.76.31-1.85.34-3.28h-2.46c-.17,1.16-.47,2.09-.9,2.81-.22.39-.54.78-.96,1.17-.36.34-.75.64-1.16.89-.05.03-.09.05-.13.05-.04,0-.08-.02-.11-.06-.11-.13-.29-.24-.54-.33,1.02-.52,1.79-1.19,2.3-2.01.41-.7.69-1.53.82-2.51h-1.17c-.51,0-.97.02-1.38.05h-.03s-.08-.04-.09-.13c-.03-.21-.05-.42-.06-.6.47.03.98.05,1.55.05h1.26Zm3-1.59l.36-.26s.04-.02.06-.02.03,0,.05.02c.41.29.79.69,1.13,1.21.01.02.02.03.02.05,0,.02-.01.04-.04.06l-.29.24s-.04.02-.06.02c-.03,0-.05-.01-.07-.04-.31-.52-.69-.95-1.16-1.28Zm.88-.67l.32-.25s.04-.03.06-.03.03,0,.05.02c.48.37.86.76,1.14,1.17,0,.02.01.03.01.05,0,.02-.02.05-.05.07l-.27.24s-.04.02-.05.02c-.02,0-.04-.02-.06-.05-.29-.48-.68-.9-1.15-1.25Z"/><path class="cls-21" d="m192.21,73.81c.46.06,1.2.09,2.21.09h3.07c.7,0,1.43,0,2.19-.03.02,0,.04,0,.04,0,.07,0,.1.04.1.12,0,.07,0,.15,0,.26s0,.19,0,.26c0,.08-.03.12-.1.12-.02,0-.03,0-.04,0-.5-.01-1.22-.02-2.16-.02h-3.69c-.4,0-.76.02-1.08.06-.05,0-.11.02-.2.03-.04,0-.07,0-.08,0-.08,0-.14-.05-.17-.14-.04-.18-.07-.43-.1-.75Z"/></g><g><rect class="cls-4" x="169.73" y="279" width="28.54" height="10" rx="5" ry="5"/><circle class="cls-17" cx="177.17" cy="284" r="2.68"/><circle class="cls-20" cx="184" cy="284" r="2.68"/><circle class="cls-2" cx="190.83" cy="284" r="2.68"/></g><g><path class="cls-21" d="m230.52,200.66s-.02.08-.05.15c-.03.05-.05.2-.08.47-.11,1.11-.68,1.85-1.73,2.2-.06.02-.11.03-.13.03-.05,0-.1-.05-.15-.15-.07-.11-.16-.21-.25-.28,1.07-.27,1.65-.88,1.72-1.85.01-.15.02-.27.02-.37,0-.1,0-.23-.03-.38.22.02.4.04.53.07.1.03.15.06.15.1Zm5.47-3.98s-.02.07-.07.07l-1.24-.02h-1.12l.02.62s-.02.07-.06.07h-.4s-.08-.02-.08-.07l.02-.62h-2.07l.02.62s-.02.07-.07.07h-.4s-.07-.02-.07-.07l.02-.62h-1.04l-1.22.02s-.08-.02-.08-.07v-.38s.03-.07.08-.07l1.22.02h1.04c0-.33-.02-.58-.07-.74.2,0,.39.02.56.04.07.01.1.04.1.08s-.02.08-.04.12c-.03.06-.05.23-.05.5h2.07c0-.29-.02-.53-.06-.73.2,0,.39.02.56.04.06.01.1.04.1.08s-.01.08-.04.12c-.04.07-.05.23-.05.49h1.12l1.24-.02s.07.02.07.07v.38Zm-.22,1.68s-.03.07-.08.07l-1.22-.02h-4.28v.8c0,.22.08.34.25.37.25.04.87.06,1.86.06,1.04,0,1.94-.03,2.67-.09.02,0,.03,0,.04,0,.05,0,.07.04.08.11l.02.24s0,.05,0,.07c0,.06-.03.09-.09.1-.74.05-1.66.07-2.76.07-1.2,0-1.93-.04-2.21-.11-.27-.07-.4-.28-.4-.62v-1h-1.24c-.05,0-.08-.01-.08-.06v-.37s.03-.07.08-.07l1.22.02h2.12v-.09c0-.31-.02-.55-.06-.72.13,0,.31.02.57.04.07,0,.11.04.11.08,0,.03-.01.07-.04.15-.03.07-.04.22-.04.45v.09h2.19l1.22-.02s.08.02.08.07v.38Zm-3.43,2.33s0,.05-.02.08c-.01.04-.02.07-.03.08-.04.12-.05.33-.05.64v.71l.02.98s-.02.07-.07.07h-.42c-.05,0-.08-.02-.08-.07l.02-.98v-.69c0-.44-.02-.76-.05-.96.2,0,.39.03.57.06.07,0,.11.04.11.08Zm3.67,1.49c-.02.47-.12.79-.28.95-.16.16-.49.23-.99.23-.44,0-.73-.03-.87-.09-.17-.08-.25-.28-.25-.58v-1.2c0-.44-.02-.78-.06-1.02.17,0,.37.02.58.04.07.01.11.04.11.08,0,.02-.02.08-.06.16-.03.07-.04.29-.04.65v1.11c0,.15.03.24.09.28.06.04.23.05.51.05.35,0,.57-.05.63-.15.08-.11.11-.41.11-.92.1.06.22.12.34.15.11.03.17.09.17.18v.06Z"/><path class="cls-21" d="m245.26,201.97c-.11.08-.2.21-.29.36-.05.09-.09.14-.12.14-.02,0-.07-.02-.13-.06-1.54-.98-2.71-2.27-3.49-3.86,0,1.08.01,2.26.04,3.56,0,.23.01.56.02.98,0,.23,0,.36,0,.4,0,.05-.02.07-.07.07h-.47c-.05,0-.08-.02-.08-.07,0-.03,0-.31.01-.83.03-1.54.05-2.88.05-4.03-.4.83-.9,1.59-1.52,2.29-.54.61-1.12,1.12-1.75,1.53-.06.04-.1.06-.13.06s-.07-.04-.12-.12c-.08-.13-.18-.24-.3-.34.75-.41,1.46-.99,2.14-1.75.59-.66,1.06-1.36,1.41-2.09h-1.93l-1.2.02c-.05,0-.08-.03-.08-.08v-.39c0-.05.03-.08.08-.08l1.2.02h2.16v-1.11c0-.53-.02-.89-.06-1.09.24.01.44.03.62.06.07,0,.11.03.11.07,0,.03,0,.06-.02.11-.02.05-.03.08-.04.09-.03.12-.04.37-.04.76v1.12h2.36l1.2-.02s.07.03.07.08v.39c0,.05-.02.08-.07.08l-1.2-.02h-2.14c.9,1.64,2.16,2.89,3.77,3.76Z"/><path class="cls-21" d="m249.78,201.57h-2.74v.76s-.02.07-.07.07h-.39s-.07-.02-.07-.07l.02-2.7v-1.61l-.02-2.05s.02-.07.07-.07l1.08.02h1.5l1.08-.02s.07.02.07.07l-.02,2.05v1.45l.02,2.58s-.02.07-.07.07h-.39s-.07-.02-.07-.07v-.49Zm-2.74-5.19v2.05h1.09v-2.05h-1.09Zm0,2.52v2.2h1.09v-2.2h-1.09Zm2.74-2.52h-1.15v2.05h1.15v-2.05Zm-1.15,2.52v2.2h1.15v-2.2h-1.15Zm4.31-1.34v3.8l.02,1.22c0,.21-.02.36-.06.47-.04.09-.1.17-.19.25-.14.12-.44.18-.9.18-.08,0-.17,0-.27,0-.09,0-.14,0-.16-.03-.01-.01-.03-.07-.06-.15-.05-.17-.11-.3-.19-.4.21.02.47.04.79.04.2,0,.33-.03.39-.1.06-.06.09-.17.09-.34v-4.92h-.59l-1.14.02c-.05,0-.08-.02-.08-.07v-.42s.02-.07.08-.07l1.14.02h1.21l1.15-.02s.07.02.07.07v.42s-.02.07-.07.07l-1.1-.02h-.13Z"/><path class="cls-21" d="m259.07,198.75c.22,0,.41.08.55.25.13.14.19.31.19.5,0,.22-.08.4-.25.55-.14.13-.31.19-.5.19-.22,0-.4-.08-.55-.25-.13-.14-.19-.31-.19-.5,0-.22.08-.4.25-.55.14-.13.31-.19.5-.19Z"/><path class="cls-21" d="m272.06,199.9s-.02.07-.07.07l-1.16-.02h-.36v2.69c0,.29-.07.49-.24.62-.08.06-.21.11-.4.12-.14.01-.38.02-.73.03-.1,0-.16,0-.18-.03-.01-.02-.03-.07-.05-.15-.03-.13-.08-.26-.15-.39.31.03.55.04.71.04.05,0,.09,0,.13,0,.15,0,.24-.03.29-.09.04-.05.07-.13.07-.25v-2.6h-1.65v1.54l.02.89c0,.06-.02.08-.07.08h-.41c-.05,0-.08-.03-.08-.08l.02-.89v-1.54h-1.45c-.06.88-.21,1.59-.45,2.14-.21.47-.51.92-.93,1.34-.07.06-.11.09-.13.09-.02,0-.06-.03-.13-.09-.1-.1-.22-.17-.37-.23.51-.44.88-.92,1.09-1.44.19-.47.31-1.07.36-1.81h-.35l-1.17.02s-.07-.02-.07-.07v-.39s.02-.07.07-.07l1.17.02h.38c.01-.34.02-.61.02-.82v-.89l-.02-1.1c0-.05.02-.08.07-.08l1.2.02h.28c.15-.26.27-.5.37-.72.08-.17.13-.34.15-.51.24.05.42.1.56.14.06.02.09.05.09.09,0,.03-.03.07-.08.11-.05.04-.09.1-.12.17-.12.24-.24.48-.39.72h1.32l1.2-.02s.07.03.07.08l-.02,1.1v1.71h.36l1.16-.02s.07.02.07.07v.39Zm-2.14-.44v-2.38h-3.58v1.58c0,.2,0,.46-.02.8h3.6Zm-1.21-.86s.03.04.03.06c0,.02-.03.06-.07.1l-.25.18c-.05.04-.08.05-.1.05s-.04-.01-.06-.04c-.29-.43-.61-.79-.94-1.07-.02-.02-.03-.04-.03-.05,0-.02.03-.05.08-.09l.2-.16s.07-.04.09-.04c.02,0,.04,0,.07.02.39.33.72.68.99,1.05Z"/><path class="cls-21" d="m276.78,201.57h-2.74v.76s-.02.07-.07.07h-.39s-.07-.02-.07-.07l.02-2.7v-1.61l-.02-2.05s.02-.07.07-.07l1.08.02h1.5l1.08-.02s.07.02.07.07l-.02,2.05v1.45l.02,2.58s-.02.07-.07.07h-.39s-.07-.02-.07-.07v-.49Zm-2.74-5.19v2.05h1.09v-2.05h-1.09Zm0,2.52v2.2h1.09v-2.2h-1.09Zm2.74-2.52h-1.15v2.05h1.15v-2.05Zm-1.15,2.52v2.2h1.15v-2.2h-1.15Zm4.31-1.34v3.8l.02,1.22c0,.21-.02.36-.06.47-.04.09-.1.17-.19.25-.14.12-.44.18-.9.18-.08,0-.17,0-.27,0-.09,0-.14,0-.16-.03-.01-.01-.03-.07-.06-.15-.05-.17-.11-.3-.19-.4.21.02.47.04.79.04.2,0,.33-.03.39-.1.06-.06.09-.17.09-.34v-4.92h-.59l-1.14.02c-.05,0-.08-.02-.08-.07v-.42s.02-.07.08-.07l1.14.02h1.21l1.15-.02s.07.02.07.07v.42s-.02.07-.07.07l-1.1-.02h-.13Z"/></g><g><path class="cls-21" d="m357.23,162.13c-.16.16-.28.32-.36.5-.06.13-.12.2-.17.2-.02,0-.08-.02-.18-.06-1.03-.5-1.9-1.04-2.6-1.62v2.34l.03,2.26c0,.07-.03.1-.1.1h-.64c-.07,0-.1-.03-.1-.1l.03-2.26v-2.93c-.69-.73-1.3-1.57-1.83-2.52-.43,1.68-1.1,3.14-2.01,4.39-.81,1.12-1.85,2.12-3.12,3.01-.1.08-.17.11-.19.11-.04,0-.11-.05-.2-.15-.13-.16-.29-.29-.47-.39,1.58-.95,2.85-2.2,3.82-3.77-.47-.55-1-1.08-1.57-1.57-.03-.03-.05-.05-.05-.07,0-.02.03-.07.09-.14l.26-.31c.04-.05.07-.08.09-.08.02,0,.04.01.08.04.5.4.99.88,1.5,1.42.54-1.02.94-2.17,1.21-3.45h-2.38c-.59,1.27-1.4,2.44-2.41,3.52-.08.08-.14.11-.17.11s-.09-.05-.17-.15c-.12-.17-.25-.3-.39-.41,1.39-1.35,2.39-2.98,3.01-4.91.11-.34.17-.67.18-.99.26.05.52.12.79.21.11.04.16.1.16.17,0,.05-.03.1-.08.15-.06.06-.14.24-.25.55-.09.29-.22.64-.38,1.05h1.95c.16,0,.26-.02.32-.05.05-.03.09-.04.13-.04.09,0,.22.08.39.23.16.14.24.24.24.3,0,.04-.04.11-.13.2-.02.02-.03.04-.05.08.52.95,1.05,1.73,1.61,2.35v-3.46c0-.83-.03-1.43-.09-1.78.35.01.64.04.87.08.11.02.16.05.16.11,0,.03,0,.06-.03.11-.02.06-.03.1-.04.13-.05.19-.08.64-.08,1.34v4.16c.85.72,1.96,1.39,3.31,1.99Z"/><path class="cls-21" d="m364.11,158.96c0,.05-.03.12-.1.2-.07.08-.13.22-.18.42-.47,1.59-1.1,2.87-1.9,3.83-.7.85-1.65,1.6-2.84,2.25-.08.04-.15.06-.18.06-.06,0-.13-.06-.22-.18-.11-.14-.25-.26-.42-.37,1.46-.68,2.58-1.57,3.38-2.68-.33-.33-.83-.73-1.47-1.19-.04-.03-.06-.05-.06-.07s.02-.06.06-.1l.23-.26c.05-.06.09-.09.12-.09.02,0,.04,0,.06.03.52.33,1,.69,1.44,1.09.47-.78.84-1.7,1.13-2.74h-2.16c-.49.95-1.15,1.81-2,2.58-.09.08-.16.11-.18.11-.04,0-.1-.05-.2-.16-.11-.14-.24-.25-.39-.34.65-.5,1.21-1.09,1.68-1.78.42-.61.72-1.22.9-1.84.05-.18.08-.36.1-.53.28.06.51.11.7.17.12.04.18.08.18.14,0,.06-.03.12-.08.17-.09.09-.17.22-.24.39l-.17.43h1.86c.08,0,.14-.01.2-.04.05-.03.1-.04.13-.04.06,0,.18.07.36.22.16.14.24.24.24.32Zm5.66-2.83c0,.07-.04.1-.12.1l-1.69-.03h-1.82l.03.95c0,.07-.04.11-.11.11h-.57c-.07,0-.11-.04-.11-.11l.03-.95h-2.72l.03.95c0,.07-.03.11-.1.11h-.58c-.07,0-.1-.04-.1-.11l.03-.95h-1.71l-1.69.03c-.07,0-.1-.03-.1-.1v-.54c0-.08.03-.11.1-.11l1.69.03h1.71c0-.63-.03-1.09-.08-1.36.31.01.58.04.82.08.09.02.14.06.14.12,0,.03-.02.09-.06.18-.05.11-.08.44-.08.99h2.72c0-.69-.03-1.14-.09-1.38.16,0,.43.03.82.08.1.02.15.06.15.12s-.02.12-.07.18c-.04.09-.06.42-.06,1h1.82l1.69-.03c.08,0,.12.03.12.1v.55Zm.09,7.89c-.1.56-.24.94-.43,1.12-.3.31-1.04.47-2.2.47s-1.87-.08-2.13-.25c-.25-.15-.37-.48-.37-.98v-4.57l-.03-1.59c0-.07.03-.1.1-.1l1.41.03h1.37l1.26-.03c.09,0,.13.04.13.11-.02.26-.03.65-.03,1.16,0,1.02-.04,1.9-.13,2.64-.04.49-.27.78-.71.87-.2.04-.42.06-.68.06-.07,0-.15,0-.25,0-.13,0-.21-.02-.24-.06-.03-.03-.05-.11-.07-.24-.03-.19-.08-.37-.16-.53.3.06.6.08.9.08.27,0,.42-.15.45-.46.07-.65.11-1.47.11-2.48v-.43h-2.65v5.25c0,.36.07.58.22.65.19.08.72.13,1.59.13s1.41-.11,1.59-.34c.12-.17.2-.56.24-1.16.15.11.31.19.48.26.17.07.25.14.25.22,0,.03,0,.08-.02.16Z"/><path class="cls-21" d="m383.3,164.78c-.15.14-.27.31-.36.5-.07.14-.12.21-.17.21-.03,0-.09-.02-.18-.05-2.34-.82-4.12-1.9-5.32-3.25,0,.83.02,1.71.06,2.64,0,.14.02.35.03.63,0,.15.01.23.01.26,0,.06-.03.09-.1.09h-.67c-.07,0-.1-.03-.1-.09,0-.03,0-.21.02-.55.04-1.02.06-1.98.07-2.89-1,1.21-2.64,2.26-4.91,3.14-.1.04-.17.06-.2.06-.06,0-.12-.07-.18-.21-.07-.14-.18-.29-.34-.45,2.17-.63,3.88-1.6,5.15-2.9h-1.39l-1.85.03c-.07,0-.1-.03-.1-.1l.03-1.23v-1.87l-.03-1.23c0-.07.03-.1.1-.1l1.85.03h1.82v-1.14h-3.46l-1.68.03c-.07,0-.11-.03-.11-.1v-.54c0-.07.04-.1.11-.1l1.68.03h3.46v-.08c0-.64-.03-1.12-.1-1.43.29,0,.58.02.86.07.11.01.17.05.17.1,0,.05-.03.14-.08.26-.05.16-.08.5-.08,1.03v.05h3.75l1.68-.03c.06,0,.09.03.09.1v.54c0,.07-.03.1-.09.1l-1.68-.03h-3.75v1.14h2.06l1.85-.03c.07,0,.11.03.11.1l-.03,1.23v1.87l.03,1.23c0,.07-.04.1-.11.1l-1.85-.03h-1.65c1.32,1.25,3.18,2.21,5.57,2.86Zm-6.77-5.45v-1.26h-2.99v1.26h2.99Zm0,1.97v-1.36h-2.99v1.36h2.99Zm4.02-1.97v-1.26h-3.24v1.26h3.24Zm0,1.97v-1.36h-3.24v1.36h3.24Z"/><path class="cls-21" d="m396.19,164.47c-.1.12-.18.33-.24.63-.02.13-.05.21-.08.23-.03.02-.1.03-.23.03-1.64.11-3.21.17-4.73.17s-2.63-.14-3.19-.43c-.58-.27-.99-.69-1.25-1.27-.33.36-.76.78-1.29,1.26-.09.07-.18.17-.25.3-.04.07-.09.1-.15.1-.05,0-.1-.03-.15-.1-.16-.21-.3-.46-.42-.73.27-.12.54-.28.81-.48.37-.27.74-.62,1.11-1.02v-3.22h-.88l-.86.03c-.07,0-.11-.04-.11-.12v-.57c0-.06.04-.09.11-.09l.86.03h.66l.89-.03c.07,0,.1.03.1.09l-.03,1.24v2.67c.14.34.3.61.48.79.17.17.38.32.66.45.48.23,1.35.35,2.6.35,1.88,0,3.73-.1,5.57-.3Zm-9.38-7.95s.03.06.03.08c0,.03-.04.07-.13.13l-.31.23c-.08.06-.14.09-.17.09-.03,0-.05-.02-.08-.06-.43-.74-.91-1.36-1.44-1.89-.03-.03-.04-.05-.04-.06,0-.03.04-.07.13-.12l.31-.21c.06-.04.1-.06.13-.06s.06.02.09.06c.52.5,1.01,1.1,1.47,1.81Zm8.28.63l-.03,1.66v3.99c.01.41-.08.68-.27.83-.22.16-.65.24-1.28.25-.13,0-.21-.01-.24-.03s-.05-.08-.08-.19c-.05-.24-.13-.42-.23-.53.26.03.56.04.91.04.3,0,.46-.16.46-.47v-1.18h-2.47v.61l.03,1.56c0,.07-.03.1-.09.1h-.56c-.07,0-.1-.03-.1-.1l.03-1.56v-.61h-2.24v.74l.03,1.57c0,.07-.03.1-.1.1h-.57c-.07,0-.1-.03-.1-.1l.03-1.56v-3.54l-.03-1.59c0-.07.03-.1.1-.1l1.75.03h1.23c-.37-.31-.86-.65-1.47-1.02-.05-.03-.07-.05-.07-.08,0-.03.04-.08.11-.13l.26-.2s.08-.07.11-.07c.02,0,.05.01.1.04.52.34.99.68,1.4,1.03.54-.36,1.15-.83,1.82-1.4h-3.73l-1.7.03c-.07,0-.11-.03-.11-.1v-.5c0-.08.04-.11.11-.11l1.7.03h3.85c.14,0,.25-.01.31-.04.07-.03.12-.05.15-.05.07,0,.19.09.37.26.18.18.27.32.27.4s-.06.15-.17.18c-.1.03-.25.12-.46.29-.61.5-1.26.98-1.95,1.44h.03s1.03.01,1.03.01l1.76-.03c.07,0,.1.03.1.1Zm-3.93,1.85v-1.31h-2.24v1.31h2.24Zm0,1.91v-1.31h-2.24v1.31h2.24Zm3.17-1.91v-1.31h-2.47v1.31h2.47Zm0,1.91v-1.31h-2.47v1.31h2.47Z"/><path class="cls-21" d="m400.52,154.61c.36.08.66.18.91.31.11.06.17.13.17.19s-.02.12-.05.17c-.12.16-.2.33-.24.51-.23,1.12-.36,2.11-.39,2.99,0,.18,0,.33,0,.46,0,.41.02.74.06,1,.11-.22.28-.54.51-.98.23-.45.38-.75.46-.88.06.19.15.37.26.53.04.06.06.12.06.17s-.02.11-.07.19c-.34.6-.62,1.18-.83,1.71-.06.17-.09.3-.09.42,0,.02,0,.04,0,.05,0,.07-.03.11-.1.13-.11.02-.32.05-.62.09-.06,0-.1-.04-.13-.13-.22-.59-.32-1.4-.32-2.43,0-.69.1-1.71.3-3.05.08-.57.12-.98.12-1.23,0-.07,0-.14,0-.22Zm4.07.06c.44.02.75.05.95.11.13.03.2.09.2.18,0,.02,0,.04,0,.08-.03.08-.04.2-.04.35,0,.08,0,.17,0,.26.11,1.44.16,2.59.16,3.44,0,1.88-.36,3.31-1.07,4.27-.55.76-1.27,1.39-2.15,1.89-.06.04-.11.06-.16.06-.06,0-.12-.03-.18-.08-.21-.18-.43-.3-.66-.36,1.03-.55,1.79-1.14,2.26-1.78.4-.53.68-1.12.84-1.76.15-.6.23-1.32.23-2.17,0-.99-.04-2.03-.13-3.1-.04-.5-.13-.96-.26-1.36Z"/></g><g><path class="cls-21" d="m261.01,266.32c0,.07-.04.1-.11.1l-1.57-.03h-.41c.26.38.56.71.9.98.25.2.59.43,1.03.69-.13.14-.24.29-.31.46-.05.1-.09.15-.11.15-.03,0-.09-.04-.18-.11-.64-.47-1.17-1.05-1.59-1.74,0,.82.03,1.7.06,2.64.02.69.03,1.1.03,1.23,0,.07-.04.1-.11.1h-.58c-.07,0-.11-.03-.11-.1,0-.19,0-.67.03-1.43.03-.9.04-1.66.06-2.29-.52,1.02-1.26,1.91-2.22,2.68-.09.07-.16.1-.19.1s-.08-.05-.13-.15c-.09-.2-.21-.36-.35-.48,1.15-.77,2.01-1.68,2.6-2.72h-.67l-1.59.03c-.07,0-.1-.03-.1-.1v-.52c0-.07.03-.11.1-.11l1.59.03h.91v-.03c0-.58-.03-.98-.08-1.22.27.01.54.03.79.06.09.02.13.05.13.11,0,.05-.02.11-.05.18-.05.1-.07.39-.07.87v.03h.63l1.57-.03c.07,0,.11.04.11.11v.52Zm.22-2.18c0,.07-.04.1-.11.1l-1.61-.03h-2.51l-1.61.03c-.07,0-.1-.03-.1-.1v-.54c0-.07.03-.1.1-.1l1.61.03h1.71c.22-.45.42-.94.6-1.48.07-.2.11-.39.12-.56.29.07.52.13.7.18.11.03.16.09.16.16,0,.04-.03.09-.09.15-.08.08-.15.18-.2.3-.15.39-.34.81-.57,1.25h.08l1.61-.03c.07,0,.11.03.11.1v.54Zm-.21-3.07c0,.07-.04.1-.11.1l-1.54-.03h-2.16l-1.55.03c-.07,0-.1-.03-.1-.1v-.51c0-.07.03-.11.1-.11l1.55.03h.75v-.41c0-.4-.03-.71-.09-.93.37.01.65.03.84.06.12.01.17.05.17.1s-.03.13-.08.23c-.05.08-.07.26-.07.53v.41h.63l1.54-.03c.07,0,.11.04.11.11v.51Zm-3.33,1.8s.01.05.01.06c0,.05-.04.09-.13.12l-.32.13c-.07.02-.12.03-.15.03-.05,0-.08-.03-.09-.1-.14-.52-.31-.95-.49-1.29-.02-.03-.03-.06-.03-.08,0-.03.05-.07.16-.11l.3-.11s.06-.02.08-.02c.03,0,.07.03.1.08.23.39.42.81.56,1.28Zm9.36,1.28c0,.07-.03.1-.1.1l-1.57-.03h-.06v4.59l.03,1.94c0,.07-.03.1-.1.1h-.64c-.07,0-.1-.03-.1-.1l.03-1.94v-4.59h-1.94c0,1.7-.11,2.97-.32,3.81-.25.95-.69,1.8-1.33,2.57-.07.1-.13.15-.18.15-.04,0-.1-.03-.17-.1-.11-.11-.27-.21-.49-.3.73-.77,1.22-1.68,1.48-2.73.17-.73.26-1.95.26-3.66v-1.6c0-.7-.03-1.31-.09-1.83.29.06.57.15.84.26.94-.25,1.8-.59,2.58-1.02.24-.13.46-.29.65-.47.2.17.39.36.57.59.05.06.08.12.08.18,0,.06-.06.1-.17.12-.12,0-.28.06-.48.15-.94.47-2.02.86-3.24,1.17v2h2.79l1.57-.03c.07,0,.1.03.1.1v.55Z"/><path class="cls-21" d="m272.02,262.25s-.04.11-.13.18c-.09.07-.2.23-.32.5-.23.44-.46.87-.71,1.28v4.85l.03,1.7c0,.07-.03.1-.1.1h-.6c-.07,0-.1-.03-.1-.1l.03-1.7v-1.81c0-.43,0-1.09.03-1.97-.41.56-.81,1.04-1.21,1.44-.08.08-.14.11-.17.11-.03,0-.08-.06-.16-.17-.09-.15-.21-.28-.36-.39,1.06-.95,1.94-2.16,2.64-3.62.13-.3.21-.59.26-.87.3.11.55.22.74.32.11.06.16.12.16.17Zm7.44.63c0,.07-.04.11-.11.11h-.58c-.06,0-.09-.04-.09-.11v-1.8h-9.08v1.83c0,.07-.03.1-.09.1h-.6c-.07,0-.1-.03-.1-.1l.03-1.34v-.43l-.03-.68c0-.07.03-.1.1-.1l1.78.03h2.93v-.42c0-.35-.03-.64-.09-.88.41.02.7.04.86.05.11.02.16.05.16.11,0,.04-.03.12-.08.25-.04.1-.06.27-.06.51v.39h3.17l1.78-.03c.07,0,.11.03.11.1l-.03.6v.51l.03,1.31Zm-.86,7.84c0,.07-.03.1-.1.1h-.58c-.07,0-.1-.03-.1-.1v-.53h-4.35v.57c0,.06-.03.09-.1.09h-.56c-.07,0-.1-.03-.1-.09l.03-2.31v-1.68l-.03-1.84c0-.07.03-.1.1-.1l1.64.03h.09c.25-.53.46-1.07.62-1.62h-1.08l-1.68.03c-.07,0-.11-.04-.11-.11v-.53c0-.07.04-.1.11-.1l1.68.03h2.63l1.68-.03c.06,0,.1.03.1.1v.53c0,.07-.03.11-.1.11l-1.68-.03h-.76c-.17.53-.38,1.07-.63,1.62h1.55l1.62-.03c.07,0,.1.03.1.1l-.03,1.66v1.83l.03,2.3Zm-.78-3.6v-1.61h-4.35v1.61h4.35Zm0,2.39v-1.73h-4.35v1.73h4.35Z"/><path class="cls-21" d="m293.19,269.47c-.1.12-.18.33-.24.63-.02.13-.05.21-.08.23-.03.02-.1.03-.23.03-1.64.12-3.21.17-4.73.17s-2.63-.14-3.19-.43c-.58-.27-.99-.69-1.25-1.27-.33.36-.76.78-1.29,1.26-.09.07-.18.17-.25.3-.04.07-.09.1-.15.1-.05,0-.1-.03-.15-.1-.16-.21-.3-.46-.42-.73.27-.12.54-.28.81-.48.37-.28.74-.62,1.11-1.02v-3.22h-.88l-.86.03c-.07,0-.11-.04-.11-.12v-.57c0-.06.04-.09.11-.09l.86.03h.66l.89-.03c.07,0,.1.03.1.09l-.03,1.24v2.67c.14.34.3.61.48.79.17.17.38.32.66.45.48.23,1.35.35,2.6.35,1.88,0,3.73-.1,5.57-.3Zm-9.38-7.95s.03.06.03.08c0,.03-.04.07-.13.13l-.31.23c-.08.06-.14.09-.17.09-.03,0-.05-.02-.08-.06-.43-.74-.91-1.36-1.44-1.88-.03-.03-.04-.05-.04-.06,0-.03.04-.07.13-.12l.31-.21c.06-.04.1-.06.13-.06s.06.02.09.06c.52.5,1.01,1.1,1.47,1.81Zm8.28.63l-.03,1.66v3.99c.01.41-.08.68-.27.83-.22.16-.65.24-1.28.25-.13,0-.21-.01-.24-.03-.03-.02-.05-.08-.08-.19-.05-.24-.13-.42-.23-.53.26.03.56.04.91.04.3,0,.46-.16.46-.47v-1.18h-2.47v.61l.03,1.56c0,.07-.03.1-.09.1h-.56c-.07,0-.1-.03-.1-.1l.03-1.56v-.61h-2.24v.74l.03,1.57c0,.07-.03.1-.1.1h-.57c-.07,0-.1-.03-.1-.1l.03-1.56v-3.54l-.03-1.59c0-.07.03-.1.1-.1l1.75.03h1.23c-.37-.31-.86-.65-1.47-1.02-.05-.03-.07-.05-.07-.08,0-.03.04-.08.11-.13l.26-.2s.08-.07.11-.07c.02,0,.05.01.1.04.52.34.99.68,1.4,1.03.54-.36,1.15-.83,1.82-1.4h-3.73l-1.7.03c-.07,0-.11-.03-.11-.1v-.5c0-.08.04-.11.11-.11l1.7.03h3.85c.14,0,.25-.01.31-.04.07-.03.12-.05.15-.05.07,0,.19.09.37.26.18.18.27.32.27.4s-.06.15-.17.18c-.1.03-.25.12-.46.29-.61.5-1.26.98-1.95,1.44h.03s1.03.01,1.03.01l1.76-.03c.07,0,.1.03.1.1Zm-3.93,1.85v-1.31h-2.24v1.31h2.24Zm0,1.91v-1.31h-2.24v1.31h2.24Zm3.17-1.91v-1.31h-2.47v1.31h2.47Zm0,1.91v-1.31h-2.47v1.31h2.47Z"/><path class="cls-21" d="m297.52,259.61c.36.08.66.18.91.31.11.06.17.13.17.19s-.02.12-.05.17c-.12.16-.2.33-.24.51-.23,1.12-.36,2.11-.39,2.99,0,.18,0,.33,0,.46,0,.41.02.74.06,1,.11-.22.28-.54.51-.98.23-.45.38-.75.46-.88.06.2.15.37.26.53.04.06.06.12.06.16s-.02.11-.07.19c-.34.6-.62,1.18-.83,1.71-.06.17-.09.3-.09.42,0,.02,0,.04,0,.05,0,.07-.03.11-.1.13-.11.02-.32.05-.62.09-.06,0-.1-.04-.13-.13-.22-.59-.32-1.4-.32-2.43,0-.69.1-1.71.3-3.05.08-.57.12-.98.12-1.22,0-.07,0-.14,0-.22Zm4.07.06c.44.02.75.05.95.11.13.03.2.09.2.18,0,.02,0,.04,0,.08-.03.08-.04.2-.04.35,0,.08,0,.17,0,.26.11,1.44.16,2.59.16,3.44,0,1.88-.36,3.3-1.07,4.27-.55.76-1.27,1.38-2.15,1.88-.06.04-.11.06-.16.06-.06,0-.12-.03-.18-.08-.21-.18-.43-.3-.66-.36,1.03-.55,1.79-1.14,2.26-1.78.4-.53.68-1.12.84-1.76.15-.6.23-1.32.23-2.17,0-1-.04-2.03-.13-3.1-.04-.5-.13-.96-.26-1.36Z"/></g><g><path class="cls-21" d="m215.5,22.33c-.02.09-.03.25-.03.47,0,.14-.01.22-.03.25-.02.03-.09.07-.2.11-1.03.37-2.01.7-2.94.98-.28.08-.45.15-.53.21-.08.06-.14.09-.18.09-.06,0-.11-.05-.16-.15-.11-.22-.19-.48-.26-.77.48-.05.93-.12,1.36-.23l.81-.22c.31-1.17.57-2.48.78-3.93.05-.35.07-.63.07-.83,0-.05,0-.09,0-.13.32.06.57.13.73.19.14.06.21.11.21.16,0,.06-.03.12-.09.2-.08.1-.14.26-.17.48-.28,1.44-.54,2.65-.79,3.63l1.43-.51Zm0-5.08c0,.07-.04.1-.11.1l-1.25-.03h-1.5l-1.24.03c-.07,0-.11-.03-.11-.1v-.56c0-.07.04-.11.11-.11l1.24.03h.43v-.84c0-.63-.03-1.09-.09-1.38.16,0,.43.03.81.06.11.02.17.06.17.12,0,.02-.03.1-.09.25-.04.09-.06.41-.06.95v.84h.32l1.25-.03c.08,0,.11.04.11.11v.56Zm-2.52,4.52v.06c0,.05-.06.09-.17.13l-.31.1c-.06.02-.11.03-.14.03-.05,0-.07-.04-.07-.11-.08-1.16-.27-2.27-.56-3.33,0-.03,0-.04,0-.06,0-.05.06-.08.17-.11l.32-.09c.06-.02.1-.03.12-.03.04,0,.07.03.09.1.28,1.1.46,2.2.56,3.3Zm9.89-2.78c0,.06-.03.09-.09.09h-1.77s-3.56-.01-3.56-.01h-1.77c-.07.01-.11-.02-.11-.08v-.46c0-.07.04-.1.11-.1l1.77.03h1.12v-.93h-.58l-1.56.03c-.07,0-.1-.04-.1-.11v-.43c0-.07.03-.11.1-.11l1.56.03h.58v-.87h-.79l-1.66.03c-.07,0-.1-.03-.1-.1v-.46c0-.07.03-.1.1-.1l1.66.03h.79c0-.59-.03-1.06-.09-1.43.38.01.65.03.83.06.11.01.16.05.16.11,0,.06-.03.15-.08.26-.05.13-.08.46-.08.99h1.26l1.68-.03c.07,0,.1.03.1.1v.46c0,.07-.03.1-.1.1l-1.68-.03h-1.26v.87h.89l1.55-.03c.08,0,.12.04.12.11v.43c0,.07-.04.11-.12.11l-1.55-.03h-.89v.93h1.7l1.77-.03c.06,0,.09.03.09.1v.46Zm-1.15.95l-.03,1.52v3.15c.01.43-.08.72-.26.86-.22.16-.59.23-1.14.23h-.15c-.13,0-.21-.01-.24-.04-.03-.03-.06-.1-.09-.22-.06-.19-.15-.36-.27-.51.3.03.59.04.88.04.25,0,.42-.04.49-.13.05-.06.07-.18.07-.36v-.93h-3.86v.5l.03,1.66c0,.06-.04.09-.11.09h-.56c-.07,0-.1-.03-.1-.09l.03-1.64v-2.68l-.03-1.46c0-.07.03-.1.1-.1l1.54.03h2.08l1.52-.03c.07,0,.1.03.1.1Zm-.74,1.47v-.93h-3.86v.93h3.86Zm0,1.54v-.93h-3.86v.93h3.86Z"/><path class="cls-21" d="m235.21,25.77c0,.07-.03.1-.1.1h-.63c-.07,0-.1-.03-.1-.1v-.74h-8.65v.74c0,.07-.03.1-.1.1h-.62c-.07,0-.1-.03-.1-.1l.03-4.84v-2.61l-.03-3.46c0-.07.03-.1.1-.1l1.81.03h6.47l1.81-.03c.07,0,.1.03.1.1l-.03,3.08v2.98l.03,4.84Zm-.83-1.45v-8.8h-8.65v8.8h8.65Zm-.72-1.37c0,.07-.03.1-.1.1l-1.76-.03h-3.48l-1.74.03c-.08,0-.12-.03-.12-.1v-.52c0-.07.04-.1.12-.1l1.74.03h1.28v-2.33h-.74l-1.59.03c-.07,0-.1-.03-.1-.1v-.5c0-.07.03-.11.1-.11l1.59.03h.74v-1.96h-1.07l-1.71.03c-.07,0-.11-.03-.11-.1v-.51c0-.07.04-.1.11-.1l1.71.03h3.12l1.71-.03c.07,0,.1.03.1.1v.51c0,.07-.03.1-.1.1l-1.71-.03h-1.29v1.96h.91l1.57-.03c.07,0,.11.04.11.11v.5c0,.07-.04.1-.11.1l-1.57-.03h-.91v2.33h1.44l1.76-.03c.07,0,.1.03.1.1v.52Zm-.75-1.28s.03.06.03.07c0,.03-.04.06-.11.11l-.26.18c-.06.06-.11.08-.14.08s-.06-.03-.09-.09c-.23-.42-.55-.85-.95-1.28-.02-.03-.03-.05-.03-.06,0-.02.04-.06.12-.12l.22-.16c.05-.04.09-.06.11-.06.01,0,.05.02.1.07.35.33.69.74,1,1.25Z"/><path class="cls-21" d="m249.19,24.47c-.1.12-.18.33-.24.63-.02.13-.05.21-.08.23-.03.02-.1.03-.23.03-1.64.11-3.21.17-4.73.17s-2.63-.14-3.19-.43c-.58-.27-.99-.69-1.25-1.27-.33.36-.76.78-1.29,1.26-.09.07-.18.17-.25.3-.04.07-.09.1-.15.1-.05,0-.1-.03-.15-.1-.16-.21-.3-.46-.42-.73.27-.12.54-.28.81-.48.37-.27.74-.62,1.11-1.02v-3.22h-.88l-.86.03c-.07,0-.11-.04-.11-.12v-.57c0-.06.04-.09.11-.09l.86.03h.66l.89-.03c.07,0,.1.03.1.09l-.03,1.24v2.67c.14.34.3.61.48.79.17.17.38.32.66.45.48.23,1.35.35,2.6.35,1.88,0,3.73-.1,5.57-.3Zm-9.38-7.95s.03.06.03.08c0,.03-.04.07-.13.13l-.31.23c-.08.06-.14.09-.17.09-.03,0-.05-.02-.08-.06-.43-.74-.91-1.36-1.44-1.89-.03-.03-.04-.05-.04-.06,0-.03.04-.07.13-.12l.31-.21c.06-.04.1-.06.13-.06s.06.02.09.06c.52.5,1.01,1.1,1.47,1.81Zm8.28.63l-.03,1.66v3.99c.01.41-.08.68-.27.83-.22.16-.65.24-1.28.25-.13,0-.21-.01-.24-.03s-.05-.08-.08-.19c-.05-.24-.13-.42-.23-.53.26.03.56.04.91.04.3,0,.46-.16.46-.47v-1.18h-2.47v.61l.03,1.56c0,.07-.03.1-.09.1h-.56c-.07,0-.1-.03-.1-.1l.03-1.56v-.61h-2.24v.74l.03,1.57c0,.07-.03.1-.1.1h-.57c-.07,0-.1-.03-.1-.1l.03-1.56v-3.54l-.03-1.59c0-.07.03-.1.1-.1l1.75.03h1.23c-.37-.31-.86-.65-1.47-1.02-.05-.03-.07-.05-.07-.08,0-.03.04-.08.11-.13l.26-.2s.08-.07.11-.07c.02,0,.05.01.1.04.52.34.99.68,1.4,1.03.54-.36,1.15-.83,1.82-1.4h-3.73l-1.7.03c-.07,0-.11-.03-.11-.1v-.5c0-.08.04-.11.11-.11l1.7.03h3.85c.14,0,.25-.01.31-.04.07-.03.12-.05.15-.05.07,0,.19.09.37.26.18.18.27.32.27.4s-.06.15-.17.18c-.1.03-.25.12-.46.29-.61.5-1.26.98-1.95,1.44h.03s1.03.01,1.03.01l1.76-.03c.07,0,.1.03.1.1Zm-3.93,1.85v-1.31h-2.24v1.31h2.24Zm0,1.91v-1.31h-2.24v1.31h2.24Zm3.17-1.91v-1.31h-2.47v1.31h2.47Zm0,1.91v-1.31h-2.47v1.31h2.47Z"/><path class="cls-21" d="m253.52,14.61c.36.08.66.18.91.31.11.06.17.13.17.19s-.02.12-.05.17c-.12.16-.2.33-.24.51-.23,1.12-.36,2.11-.39,2.99,0,.18,0,.33,0,.46,0,.41.02.74.06,1,.11-.22.28-.54.51-.98.23-.45.38-.75.46-.88.06.19.15.37.26.53.04.06.06.12.06.17s-.02.11-.07.19c-.34.6-.62,1.18-.83,1.71-.06.17-.09.3-.09.42,0,.02,0,.04,0,.05,0,.07-.03.11-.1.13-.11.02-.32.05-.62.09-.06,0-.1-.04-.13-.13-.22-.59-.32-1.4-.32-2.43,0-.69.1-1.71.3-3.05.08-.57.12-.98.12-1.23,0-.07,0-.14,0-.22Zm4.07.06c.44.02.75.05.95.11.13.03.2.09.2.18,0,.02,0,.04,0,.08-.03.08-.04.2-.04.35,0,.08,0,.17,0,.26.11,1.44.16,2.59.16,3.44,0,1.88-.36,3.31-1.07,4.27-.55.76-1.27,1.39-2.15,1.89-.06.04-.11.06-.16.06-.06,0-.12-.03-.18-.08-.21-.18-.43-.3-.66-.36,1.03-.55,1.79-1.14,2.26-1.78.4-.53.68-1.12.84-1.76.15-.6.23-1.32.23-2.17,0-.99-.04-2.03-.13-3.1-.04-.5-.13-.96-.26-1.36Z"/></g><g><path class="cls-21" d="m201.24,302.07s-.02.07-.07.07h-.44s-.07-.02-.07-.07v-.55h-6.15v.56s-.02.07-.07.07h-.44s-.07-.02-.07-.07l.02-2.9v-1.67l-.02-2.16s.02-.07.07-.07l1.24.02h4.69l1.24-.02s.07.02.07.07l-.02,1.95v1.87l.02,2.9Zm-.58-1.07v-5.17h-2.04v2.65c0,.2.04.32.11.36.08.04.24.06.5.06.21,0,.36-.03.45-.08.07-.04.11-.15.14-.33.02-.1.03-.3.05-.58.1.08.22.14.35.19.1.04.15.08.15.14,0,.01,0,.04,0,.08-.05.5-.17.81-.36.94-.16.1-.42.15-.8.15-.42,0-.7-.04-.86-.11-.19-.09-.28-.27-.28-.56v-2.91h-1.2c-.01,1.17-.13,2.02-.34,2.56-.23.59-.65,1.07-1.26,1.44-.05.04-.09.05-.12.05-.03,0-.07-.03-.12-.1-.12-.13-.24-.21-.34-.26.71-.34,1.17-.85,1.4-1.52.15-.47.24-1.2.24-2.18h-1.81v5.17h6.15Z"/><path class="cls-21" d="m210.78,299.26c-.11.08-.21.2-.31.38-.06.09-.1.14-.12.14-.03,0-.07-.02-.13-.05-.93-.43-1.7-.89-2.32-1.39-.52-.42-.98-.91-1.41-1.47-.59.83-1.32,1.56-2.2,2.18l1.2.02h2.13l1.2-.02c.05,0,.08.02.08.07l-.02.9v.83l.02,1.55s-.03.07-.08.07h-.41s-.07-.02-.07-.07v-.48h-3.54v.53s-.03.07-.08.07h-.42s-.07-.02-.07-.07l.02-1.58v-.73l-.02-1.05c-.37.26-.77.49-1.21.71-.09.04-.13.06-.15.06-.03,0-.08-.04-.13-.13-.08-.13-.19-.23-.31-.31.77-.31,1.49-.74,2.16-1.3.56-.47,1.03-.97,1.39-1.5.12-.19.21-.36.27-.51.18.03.37.08.58.14.06.02.09.05.09.09,0,.04-.04.08-.12.13,1.04,1.29,2.37,2.22,3.98,2.79Zm-5.18-4.25s-.04.09-.13.14c-.06.04-.13.11-.21.2-.48.61-1.06,1.12-1.73,1.53-.08.04-.13.06-.13.06-.03,0-.07-.04-.14-.12-.1-.12-.21-.21-.33-.28.67-.33,1.24-.76,1.69-1.3.18-.2.31-.41.4-.62.19.09.35.18.5.27.06.03.09.07.09.11Zm2.74,6.42v-1.89h-3.54v1.89h3.54Zm1.91-5.01c-.13.09-.24.2-.33.33-.06.08-.1.13-.13.13-.02,0-.06-.02-.13-.05-.93-.56-1.66-1.17-2.19-1.85-.01-.02-.02-.03-.02-.04,0-.02.03-.05.09-.1l.22-.15s.08-.05.11-.05c.01,0,.03.01.06.04.37.43.73.78,1.1,1.04.32.23.72.46,1.22.7Z"/><path class="cls-21" d="m219.43,301.7s-.02.06-.07.06l-1.19-.02h-5.22l-1.19.02s-.07-.02-.07-.06v-.46s.02-.07.07-.07l1.19.02h5.22l1.19-.02s.07.02.07.07v.46Zm-.7-5.9s-.03.07-.08.07l-1.27-.02h-3.63l-1.27.02s-.07-.02-.07-.07v-.44s.02-.07.07-.07l1.27.02h3.63l1.27-.02s.08.02.08.07v.44Zm-.58,2.79s-.02.07-.07.07l-1.23-.02h-2.58l-1.23.02s-.07-.02-.07-.07v-.44s.02-.07.07-.07l1.23.02h2.58l1.23-.02s.07.02.07.07v.44Z"/><path class="cls-21" d="m228.42,295.79s-.02.06-.07.06l-1.19-.02h-2.16v3.94l.03,1.67c0,.34-.11.57-.33.7-.16.1-.52.15-1.09.15-.12,0-.26,0-.4,0-.09,0-.14-.01-.16-.04-.01-.01-.03-.07-.05-.15-.04-.18-.11-.33-.19-.45.45.05.79.08,1.03.08h.1c.19,0,.32-.04.38-.1.06-.05.08-.15.08-.29v-5.52h-2.46l-1.19.02s-.07-.02-.07-.06v-.46s.02-.07.07-.07l1.19.02h5.21l1.19-.02s.07.02.07.07v.46Z"/><path class="cls-21" d="m236.36,302.32s-.02.07-.07.07h-.44s-.07-.02-.07-.07v-.56h-4.41v.58s-.03.07-.08.07h-.43s-.07-.02-.07-.07l.02-3.2v-1.77l-.02-2.32s.02-.08.07-.08l1.26.02h2.91l1.27-.02s.07.03.07.08l-.02,2.08v1.99l.02,3.19Zm-.58-5.3v-1.5h-4.41v1.5h4.41Zm0,2.06v-1.55h-4.41v1.55h4.41Zm0,2.17v-1.66h-4.41v1.66h4.41Z"/></g><g><path class="cls-1" d="m113.42,84.39c-1.46-1.86-3.15-3.68-5.08-5.45,2.57.91,4.79,1.95,6.65,3.07-.68-2.07-1.37-4.14-2.07-6.21,2.03,1.57,3.7,3.22,5.02,4.9.37-2.02.95-4.04,1.74-6.05.79,2.01,1.37,4.03,1.74,6.05,1.32-1.69,2.99-3.33,5.02-4.9-.7,2.07-1.39,4.14-2.07,6.21,1.86-1.13,4.08-2.17,6.65-3.07-1.92,1.77-3.62,3.59-5.08,5.45-4.16-.54-8.36-.54-12.52,0Z"/><path class="cls-1" d="m128.36,86h-17.36c-4.68,0-6.59,3.31-4.25,7.36l8.68,15.03c2.34,4.05,6.17,4.05,8.5,0l8.68-15.03c2.34-4.05.43-7.36-4.25-7.36Zm-20.02,8.5c-.63,0-1.13-1.27-1.13-2.83s.51-2.83,1.13-2.83,1.13,1.27,1.13,2.83-.51,2.83-1.13,2.83Zm5.67,8.5c-.63,0-1.13-1.27-1.13-2.83s.51-2.83,1.13-2.83,1.13,1.27,1.13,2.83-.51,2.83-1.13,2.83Zm0-7.09c-.63,0-1.13-1.27-1.13-2.83s.51-2.83,1.13-2.83,1.13,1.27,1.13,2.83-.51,2.83-1.13,2.83Zm5.67,12.76c-.63,0-1.13-1.27-1.13-2.83s.51-2.83,1.13-2.83,1.13,1.27,1.13,2.83-.51,2.83-1.13,2.83Zm0-7.09c-.63,0-1.13-1.27-1.13-2.83s.51-2.83,1.13-2.83,1.13,1.27,1.13,2.83-.51,2.83-1.13,2.83Zm0-7.09c-.63,0-1.13-1.27-1.13-2.83s.51-2.83,1.13-2.83,1.13,1.27,1.13,2.83-.51,2.83-1.13,2.83Zm5.67,8.5c-.63,0-1.13-1.27-1.13-2.83s.51-2.83,1.13-2.83,1.13,1.27,1.13,2.83-.51,2.83-1.13,2.83Zm0-7.09c-.63,0-1.13-1.27-1.13-2.83s.51-2.83,1.13-2.83,1.13,1.27,1.13,2.83-.51,2.83-1.13,2.83Zm5.67-1.42c-.63,0-1.13-1.27-1.13-2.83s.51-2.83,1.13-2.83,1.13,1.27,1.13,2.83-.51,2.83-1.13,2.83Z"/></g><g><polyline class="cls-11" points="244.5 45 65 45 102.22 59.2"/><path class="cls-1" d="m113.5,63.5c-6.06-.06-13.92.79-19.36,2.79l6.6-7.66.17-10.11c2.72,5.12,8.03,10.99,12.58,14.98Z"/></g><g><polyline class="cls-11" points="181 273 181 196.96 224.51 179.23 224.51 105.55 149.3 77.25"/><path class="cls-1" d="m138,73c6.06.03,13.92-.86,19.35-2.88l-6.57,7.69-.13,10.11c-2.75-5.1-8.08-10.95-12.65-14.92Z"/></g><g><rect class="cls-4" x="211.48" y="179.23" width="28.54" height="10" rx="5" ry="5"/><circle class="cls-17" cx="218.92" cy="184.23" r="2.68"/><circle class="cls-20" cx="225.74" cy="184.23" r="2.68"/><circle class="cls-2" cx="232.57" cy="184.23" r="2.68"/></g></g></g></svg>