<?xml version="1.0" encoding="UTF-8"?>
<svg id="_レイヤー_2" xmlns="http://www.w3.org/2000/svg" width="291.42"
    height="135.91" viewBox="0 0 291.42 135.91">
    <defs>
        <style>
            .cls-1 {
                fill: #fff;
            }

            .cls-2 {
                fill: #f77237;
            }

            .cls-3 {
                fill: #44190c;
            }
            .fade{
                opacity:0;
                animation:fadein .8s linear forwards;
            }
            @keyframes fadein {
                0% {
                    opacity: 0;
                }

                100% {
                    opacity: 1;
                }
            }
            .anim {
                transform: scale(0);
                transform-origin: 56.5px 56.5px;
                animation: anim .4s cubic-bezier(.96, .2, .49, 1.15) .4s forwards;
                ;
            }

            @keyframes anim {
                0% {
                    transform: scale(0);
                }

                100% {
                    transform: scale(1);
                }
            }
        </style>
    </defs>
    <g class="fade">
        <g>
            <circle class="cls-2 anim" cx="56.5" cy="56.5" r="56.5" />
            <g>
                <path class="cls-1"
                    d="m90.8,86.85h-14.62l-5.81-15.12h-26.61l-5.49,15.12h-14.26L49.93,20.28h14.21l26.66,66.57Zm-24.75-26.34l-9.17-24.7-8.99,24.7h18.16Z" />
                <path class="cls-3"
                    d="m97.29,86.85V20.28h12.76v23.98c3.94-4.48,8.6-6.72,13.99-6.72,5.87,0,10.73,2.13,14.58,6.38,3.84,4.25,5.77,10.36,5.77,18.32s-1.96,14.58-5.88,19.03c-3.92,4.45-8.68,6.68-14.28,6.68-2.75,0-5.47-.69-8.15-2.07-2.68-1.38-4.99-3.41-6.92-6.11v7.08h-11.85Zm12.67-25.16c0,5,.79,8.69,2.36,11.08,2.21,3.39,5.15,5.09,8.81,5.09,2.82,0,5.21-1.2,7.2-3.61,1.98-2.41,2.97-6.2,2.97-11.38,0-5.51-1-9.48-3-11.92s-4.56-3.66-7.67-3.66-5.6,1.19-7.63,3.57c-2.03,2.38-3.04,5.99-3.04,10.83Z" />
                <path class="cls-3"
                    d="m151.69,62.06c0-4.24,1.04-8.34,3.13-12.31s5.05-6.99,8.88-9.08c3.83-2.09,8.11-3.13,12.83-3.13,7.3,0,13.27,2.37,17.94,7.11,4.66,4.74,6.99,10.72,6.99,17.96s-2.35,13.34-7.06,18.14-10.63,7.2-17.78,7.2c-4.42,0-8.64-1-12.65-3s-7.06-4.93-9.15-8.79c-2.09-3.86-3.13-8.56-3.13-14.1Zm13.08.68c0,4.78,1.14,8.45,3.41,10.99s5.07,3.81,8.4,3.81,6.12-1.27,8.38-3.81,3.38-6.24,3.38-11.08-1.13-8.36-3.38-10.9-5.05-3.81-8.38-3.81-6.13,1.27-8.4,3.81-3.41,6.21-3.41,10.99Z" />
                <path class="cls-3"
                    d="m243.19,86.85v-7.22c-1.76,2.57-4.06,4.6-6.92,6.09-2.86,1.48-5.88,2.22-9.06,2.22s-6.15-.71-8.72-2.13c-2.57-1.42-4.44-3.42-5.59-5.99-1.15-2.57-1.73-6.13-1.73-10.67v-30.52h12.76v22.16c0,6.78.23,10.94.7,12.46.47,1.53,1.32,2.74,2.57,3.63,1.24.89,2.82,1.34,4.72,1.34,2.18,0,4.13-.6,5.86-1.79,1.73-1.2,2.91-2.68,3.54-4.45.64-1.77.95-6.11.95-13.01v-20.34h12.76v48.23h-11.85Z" />
                <path class="cls-3"
                    d="m290.38,38.63v10.17h-8.72v19.44c0,3.94.08,6.23.25,6.88.17.65.54,1.19,1.13,1.61.59.42,1.31.64,2.16.64,1.18,0,2.89-.41,5.13-1.23l1.09,9.9c-2.97,1.27-6.33,1.91-10.08,1.91-2.3,0-4.38-.39-6.22-1.16-1.85-.77-3.2-1.77-4.06-3-.86-1.23-1.46-2.88-1.79-4.97-.27-1.48-.41-4.48-.41-8.99v-21.02h-5.86v-10.17h5.86v-9.58l12.81-7.45v17.03h8.72Z" />
            </g>
            <g>
                <path
                    d="m115.14,126.12h5.74v9.78h-1.21v-.77h-11.8v-1.15h11.8v-2.91h-10.9v-1.12h10.9v-2.68h-11.46v-1.15h5.69v-6.2h1.24v6.2Zm-4.87-.95c-.39-1.12-1.35-2.82-2.28-4.03l1.03-.44c.98,1.22,1.93,2.87,2.35,3.97l-1.1.49Zm10.83-4.18c-.77,1.47-1.75,3.18-2.56,4.32l-.96-.42c.77-1.14,1.75-2.99,2.29-4.34l1.23.44Z" />
                <path
                    d="m139.87,122.24v1.1h-13.27v3.43c0,2.64-.21,6.49-1.7,9.12-.19-.19-.72-.53-1-.67,1.42-2.49,1.56-5.97,1.56-8.45v-4.53h6.46v-2.29h1.19v2.29h6.76Zm-6.2,3.66h5.95v1.05h-5.95v2.62h4.76v6.28h-1.17v-.65h-7.82v.7h-1.14v-6.34h4.22v-5.85h1.15v2.17Zm3.59,4.71h-7.82v3.55h7.82v-3.55Z" />
                <path
                    d="m145.03,122.54c-.35,1.71-.88,4.76-.88,6.77,0,.93.07,1.73.17,2.68.3-.82.74-1.96,1.03-2.69l.68.51c-.44,1.21-1.08,3.05-1.24,3.87-.05.25-.09.58-.09.77.02.19.05.42.07.59l-1.12.09c-.35-1.26-.65-3.26-.65-5.62,0-2.56.6-5.57.81-7.04.05-.38.1-.79.1-1.16l1.4.12c-.09.3-.23.79-.3,1.1Zm4.04,8.98c0,.8.54,1.64,3.05,1.64,1.56,0,2.94-.14,4.32-.47l.04,1.31c-1.08.23-2.57.37-4.34.37-2.92,0-4.22-.95-4.22-2.57,0-.56.1-1.17.28-2.01l1.14.11c-.18.65-.26,1.16-.26,1.63Zm6.84-8.7v1.26c-1.84.21-5.27.21-7.12,0l-.02-1.26c1.87.33,5.43.26,7.14,0Z" />
                <path
                    d="m161.5,125c1.51-.47,4.94-1.75,7.47-1.75,2.85,0,5.13,1.66,5.13,4.53,0,4.24-4.24,6.18-9.5,6.48l-.54-1.29c4.55-.12,8.7-1.52,8.7-5.2,0-1.87-1.4-3.34-3.8-3.34-2.94,0-7.46,1.94-8.75,2.45l-.6-1.37c.65-.12,1.23-.3,1.89-.51Z" />
                <path
                    d="m179.44,124.02c-.02,1.08,0,2.75.12,4.22.3,2.99,1.21,4.97,2.49,4.97.89,0,1.75-1.77,2.22-3.59l.98,1.08c-1.03,2.96-2.08,3.97-3.24,3.97-1.61,0-3.17-1.64-3.66-6.14-.16-1.5-.19-3.64-.19-4.66,0-.39,0-1.14-.1-1.52l1.52.04c-.07.39-.12,1.17-.14,1.63Zm12.37,7.53l-1.24.49c-.31-3.2-1.4-6.69-3.03-8.72l1.21-.42c1.56,2.03,2.78,5.64,3.06,8.65Z" />
                <path
                    d="m196.34,122.92c1.08-.12,4.46-.46,7.68-.74,1.93-.16,3.52-.26,4.67-.3l.02,1.24c-1.03,0-2.56.02-3.45.28-2.56.86-4.06,3.59-4.06,5.65,0,3.52,3.27,4.62,6.11,4.72l-.46,1.28c-3.17-.12-6.9-1.79-6.9-5.72,0-2.76,1.72-5.04,3.4-6-1.93.21-6.55.65-8.42,1.03l-.14-1.36c.67-.02,1.19-.05,1.54-.09Z" />
            </g>
        </g>
    </g>
</svg>