<?xml version="1.0" encoding="UTF-8"?>
<svg id="_レイヤー_2" xmlns="http://www.w3.org/2000/svg" width="172.64" height="64.64" viewBox="0 0 172.64 64.64">
    <defs>
        <style>
            .cls-1 {
                fill: #fff;
            }

            .cls-2 {
                fill: #f77237;
            }

            .cls-3 {
                fill: #44190c;
            }

            .fade {
                opacity: 0;
                animation: fadein .8s linear forwards;
            }

            @keyframes fadein {
                0% {
                    opacity: 0;
                }

                100% {
                    opacity: 1;
                }
            }

            .anim {
                transform: scale(0);
                transform-origin: 28.25px 28.25px;
                animation: anim .4s cubic-bezier(.96, .2, .49, 1.15) .4s forwards;
                ;
            }

            @keyframes anim {
                0% {
                    transform: scale(0);
                }

                100% {
                    transform: scale(1);
                }
            }
        </style>
    </defs>
    <g class="fade">
        <g>
            <circle class="cls-2 anim" cx="28.25" cy="28.25" r="28.25" />
            <g>
                <path class="cls-1"
                    d="m45.4,43.43h-7.31l-2.91-7.56h-13.31l-2.75,7.56h-7.13L24.96,10.14h7.11l13.33,33.29Zm-12.37-13.17l-4.59-12.35-4.5,12.35h9.08Z" />
                <path class="cls-3"
                    d="m69.94,26.44l-6.29,1.14c-.21-1.26-.69-2.2-1.44-2.84-.75-.64-1.72-.95-2.92-.95-1.59,0-2.86.55-3.8,1.65s-1.42,2.93-1.42,5.51c0,2.86.48,4.88,1.44,6.06.96,1.18,2.25,1.77,3.87,1.77,1.21,0,2.2-.34,2.97-1.03s1.32-1.87,1.63-3.55l6.27,1.07c-.65,2.88-1.9,5.05-3.75,6.52-1.85,1.47-4.32,2.2-7.42,2.2-3.53,0-6.34-1.11-8.43-3.34-2.1-2.22-3.14-5.31-3.14-9.24s1.05-7.08,3.16-9.3c2.1-2.22,4.95-3.33,8.54-3.33,2.94,0,5.27.63,7,1.9s2.98,3.19,3.74,5.78Z" />
                <path class="cls-3"
                    d="m95.8,26.44l-6.29,1.14c-.21-1.26-.69-2.2-1.44-2.84-.75-.64-1.72-.95-2.92-.95-1.59,0-2.86.55-3.8,1.65s-1.42,2.93-1.42,5.51c0,2.86.48,4.88,1.44,6.06.96,1.18,2.25,1.77,3.87,1.77,1.21,0,2.2-.34,2.97-1.03s1.32-1.87,1.63-3.55l6.27,1.07c-.65,2.88-1.9,5.05-3.75,6.52-1.85,1.47-4.32,2.2-7.42,2.2-3.53,0-6.34-1.11-8.43-3.34-2.1-2.22-3.14-5.31-3.14-9.24s1.05-7.08,3.16-9.3c2.1-2.22,4.95-3.33,8.54-3.33,2.94,0,5.27.63,7,1.9s2.98,3.19,3.74,5.78Z" />
                <path class="cls-3"
                    d="m114.6,35.75l6.36,1.07c-.82,2.33-2.11,4.11-3.87,5.32-1.76,1.22-3.97,1.83-6.62,1.83-4.19,0-7.3-1.37-9.31-4.11-1.59-2.19-2.38-4.96-2.38-8.31,0-4,1.04-7.13,3.13-9.39s4.73-3.39,7.92-3.39c3.59,0,6.42,1.18,8.49,3.55,2.07,2.37,3.07,6,2.97,10.89h-15.98c.05,1.89.56,3.36,1.54,4.42.98,1.05,2.21,1.58,3.68,1.58,1,0,1.84-.27,2.52-.82s1.2-1.42,1.54-2.63Zm.36-6.45c-.05-1.85-.52-3.25-1.43-4.21-.91-.96-2.01-1.44-3.31-1.44-1.39,0-2.54.51-3.45,1.52s-1.35,2.39-1.34,4.13h9.54Z" />
                <path class="cls-3"
                    d="m124.25,36.55l6.4-.98c.27,1.24.82,2.18,1.66,2.83.83.64,2,.96,3.5.96,1.65,0,2.89-.3,3.72-.91.56-.42.84-.99.84-1.7,0-.48-.15-.89-.45-1.2-.32-.3-1.03-.58-2.13-.84-5.15-1.14-8.41-2.17-9.79-3.11-1.91-1.3-2.86-3.11-2.86-5.43,0-2.09.82-3.84,2.47-5.27,1.65-1.42,4.21-2.13,7.67-2.13s5.75.54,7.36,1.61c1.6,1.08,2.71,2.66,3.31,4.77l-6.02,1.11c-.26-.94-.75-1.66-1.46-2.16-.72-.5-1.74-.75-3.08-.75-1.68,0-2.88.23-3.61.7-.48.33-.73.76-.73,1.29,0,.45.21.84.64,1.16.58.42,2.56,1.02,5.96,1.79s5.77,1.72,7.12,2.84c1.33,1.13,2,2.72,2,4.75,0,2.21-.92,4.11-2.77,5.7-1.85,1.59-4.58,2.38-8.2,2.38-3.28,0-5.88-.67-7.8-2-1.92-1.33-3.17-3.14-3.76-5.43Z" />
                <path class="cls-3"
                    d="m150.12,36.55l6.4-.98c.27,1.24.82,2.18,1.66,2.83.83.64,2,.96,3.5.96,1.65,0,2.89-.3,3.72-.91.56-.42.84-.99.84-1.7,0-.48-.15-.89-.45-1.2-.32-.3-1.03-.58-2.13-.84-5.15-1.14-8.41-2.17-9.79-3.11-1.91-1.3-2.86-3.11-2.86-5.43,0-2.09.82-3.84,2.47-5.27,1.65-1.42,4.21-2.13,7.67-2.13s5.75.54,7.36,1.61c1.6,1.08,2.71,2.66,3.31,4.77l-6.02,1.11c-.26-.94-.75-1.66-1.46-2.16-.72-.5-1.74-.75-3.08-.75-1.68,0-2.88.23-3.61.7-.48.33-.73.76-.73,1.29,0,.45.21.84.64,1.16.58.42,2.56,1.02,5.96,1.79s5.77,1.72,7.12,2.84c1.33,1.13,2,2.72,2,4.75,0,2.21-.92,4.11-2.77,5.7-1.85,1.59-4.58,2.38-8.2,2.38-3.28,0-5.88-.67-7.8-2-1.92-1.33-3.17-3.14-3.76-5.43Z" />
            </g>
            <g>
                <path
                    d="m83.84,58.65c-.34.58-1.17,1.72-2.19,2.42l-.52-.41c.82-.47,1.67-1.45,1.97-2.02h-5.07c-.31,0-.65.03-.98.05v-.72c.31.04.67.08.98.08h5.08c.16,0,.44-.03.56-.05l.38.37c-.06.08-.16.2-.22.29Zm-5.71,5.92l-.58-.47c.23-.08.53-.22.76-.38,1.4-.84,1.59-2.14,1.59-3.61,0-.2,0-.38-.03-.6h.7c0,2.41-.24,3.97-2.44,5.06Z" />
                <path
                    d="m88.97,58.14c-.07.14-.15.28-.24.43h2.48c.24,0,.41-.03.54-.08l.52.31c-.07.11-.15.31-.19.44-.24.9-.78,2.08-1.55,3.03-.8.96-1.84,1.77-3.48,2.37l-.56-.52c1.58-.46,2.69-1.26,3.49-2.2.69-.82,1.23-1.98,1.43-2.8h-3.05c-.52.73-1.25,1.52-2.22,2.16l-.54-.4c1.5-.89,2.38-2.19,2.76-2.98.08-.15.2-.45.25-.66l.72.24c-.13.21-.27.49-.36.65Z" />
                <path
                    d="m96.16,60.47c-.9.18-1.7.34-2.05.42l-.12-.66c.39-.05,1.23-.2,2.17-.38v-1.55c0-.25,0-.52-.05-.77h.73c-.03.25-.05.52-.05.77v1.43c1.52-.3,3.12-.62,3.48-.71.17-.04.33-.09.43-.14l.46.35c-.06.09-.15.23-.21.33-.4.72-1.07,1.8-1.79,2.54l-.54-.32c.67-.61,1.32-1.6,1.58-2.14-.13.03-1.82.37-3.42.69v2.66c0,.61.24.81,1.29.81s1.86-.09,2.72-.25l-.03.67c-.79.11-1.64.18-2.76.18-1.56,0-1.86-.42-1.86-1.25v-2.69Z" />
                <path
                    d="m108.94,58.79c-.3.76-.87,1.82-1.49,2.6.93.8,2,1.93,2.57,2.63l-.54.47c-.59-.77-1.54-1.82-2.44-2.63-.94,1.01-2.12,1.98-3.44,2.57l-.5-.52c1.41-.55,2.7-1.59,3.61-2.62.6-.67,1.25-1.74,1.48-2.49h-3.49c-.31,0-.78.03-.86.03v-.71c.1.02.59.05.86.05h3.43c.26,0,.48-.03.61-.06l.39.31c-.05.06-.16.25-.2.35Z" />
            </g>
        </g>
    </g>
</svg>