<?xml version="1.0" encoding="UTF-8"?>
<svg id="_レイヤー_2" xmlns="http://www.w3.org/2000/svg" width="218" height="135.91" viewBox="0 0 218 135.91">
    <defs>
        <style>
            .cls-1 {
                fill: #fff;
            }

            .cls-2 {
                fill: #f77237;
            }

            .cls-3 {
                fill: #44190c;
            }



            @keyframes fadein {
                0% {
                    opacity: 0;
                }

                100% {
                    opacity: 1;
                }
            }



            @keyframes anim {
                0% {
                    transform: scale(0);
                }

                100% {
                    transform: scale(1);
                }
            }
        </style>
    </defs>
    <g class="fade">
        <g>
            <circle class="cls-2 anim" cx="56.5" cy="56.5" r="56.5" />
            <g>
                <path class="cls-1" d="m49.75,90.85v-55.31h-19.75v-11.26h52.9v11.26h-19.71v55.31h-13.44Z" />
                <path class="cls-3"
                    d="m103.7,90.85h-12.76v-48.23h11.85v6.86c2.03-3.24,3.85-5.37,5.47-6.4s3.46-1.54,5.52-1.54c2.91,0,5.71.8,8.4,2.41l-3.95,11.12c-2.15-1.39-4.15-2.09-5.99-2.09s-3.3.49-4.54,1.48c-1.24.98-2.22,2.76-2.93,5.34-.71,2.57-1.07,7.96-1.07,16.17v14.89Z" />
                <path class="cls-3" d="m127.68,36.09v-11.81h12.76v11.81h-12.76Zm0,54.76v-48.23h12.76v48.23h-12.76Z" />
                <path class="cls-3"
                    d="m163.05,57.34l-11.58-2.09c1.3-4.66,3.54-8.11,6.72-10.35s7.9-3.36,14.17-3.36c5.69,0,9.93.67,12.71,2.02,2.79,1.35,4.75,3.06,5.88,5.13,1.13,2.07,1.7,5.88,1.7,11.42l-.14,14.89c0,4.24.2,7.36.61,9.38.41,2.01,1.17,4.17,2.29,6.47h-12.62c-.33-.85-.74-2.1-1.23-3.77-.21-.76-.36-1.26-.45-1.5-2.18,2.12-4.51,3.71-6.99,4.77-2.48,1.06-5.13,1.59-7.95,1.59-4.97,0-8.88-1.35-11.74-4.04-2.86-2.69-4.29-6.1-4.29-10.22,0-2.72.65-5.15,1.95-7.29,1.3-2.13,3.13-3.77,5.47-4.9,2.35-1.14,5.73-2.13,10.15-2.97,5.96-1.12,10.1-2.16,12.4-3.13v-1.27c0-2.45-.61-4.2-1.82-5.25-1.21-1.04-3.5-1.57-6.86-1.57-2.27,0-4.04.45-5.31,1.34-1.27.89-2.3,2.46-3.09,4.7Zm17.07,10.35c-1.63.54-4.22,1.2-7.77,1.95-3.54.76-5.86,1.5-6.95,2.23-1.67,1.18-2.5,2.68-2.5,4.5s.67,3.33,2,4.63c1.33,1.3,3.03,1.95,5.09,1.95,2.3,0,4.5-.76,6.58-2.27,1.54-1.15,2.56-2.56,3.04-4.22.33-1.09.5-3.16.5-6.22v-2.54Z" />
                <path class="cls-3" d="m205.24,90.85V24.28h12.76v66.57h-12.76Z" />
            </g>
            <g>
                <path
                    d="m94.65,123.66c-.54.63-1.12,1.21-1.68,1.68-.21-.21-.67-.61-.94-.77,1.49-1.12,2.91-2.85,3.75-4.64l1.12.33c-.28.58-.61,1.16-.98,1.71h11.15v1.03h-1.84v3.1h2.5v1.03h-2.5v3.13h2.26v1.05h-15v-1.05h2.17v-3.13h-2.43v-1.03h2.43v-2.45Zm-2.56,11.78c.93-.72,1.75-2.05,2.21-3.31l1.07.28c-.44,1.29-1.24,2.66-2.21,3.48l-1.07-.46Zm3.62-9.33h2.07v-3.1h-2.07v3.1Zm0,4.17h2.07v-3.13h-2.07v3.13Zm2.66,2.17c.23,1.02.4,2.35.42,3.12l-1.12.16c-.02-.81-.16-2.14-.37-3.17l1.07-.11Zm2.56-6.33v-3.1h-2.15v3.1h2.15Zm-2.15,1.03v3.13h2.15v-3.13h-2.15Zm3.17,5.2c.47,1,.96,2.34,1.12,3.15l-1.1.25c-.17-.82-.65-2.17-1.1-3.19l1.08-.21Zm2.19-9.33h-2.19v3.1h2.19v-3.1Zm0,4.13h-2.19v3.13h2.19v-3.13Zm1.38,4.92c.88,1.05,1.91,2.49,2.38,3.43l-1.14.42c-.42-.93-1.44-2.42-2.31-3.48l1.07-.37Z" />
                <path
                    d="m113.53,127.16c.49.56,2.24,2.94,2.64,3.55l-.79.89c-.31-.67-1.21-2.08-1.85-3.1v7.37h-1.08v-7.39c-.67,1.93-1.61,3.94-2.49,5.11-.14-.31-.42-.82-.63-1.12,1.05-1.22,2.19-3.59,2.8-5.6h-2.52v-1.08h2.84v-5.81h1.08v5.81h2.89v1.08h-2.89v.28Zm-2.8-2.05c-.09-1.03-.51-2.62-.98-3.83l.88-.21c.51,1.19.91,2.77,1.03,3.8l-.93.25Zm5.64-3.83c-.42,1.3-.96,2.92-1.44,3.9l-.77-.26c.42-1.03.95-2.75,1.21-3.92l1,.28Zm6.86,9.64v4.95h-1.1v-4.74l-5.53,1-.19-1.08,5.72-1.03v-10.06h1.1v9.89l2.12-.38.16,1.07-2.28.4Zm-3.45-2.43c-.61-.65-1.87-1.52-2.92-2.08l.54-.8c1.05.53,2.35,1.33,2.96,1.96l-.58.93Zm.75-4.24c-.56-.67-1.75-1.61-2.75-2.24l.58-.79c1.03.61,2.21,1.5,2.77,2.15l-.6.88Z" />
                <path
                    d="m131.8,120.31c-.44,1.28-.98,2.57-1.59,3.78v11.76h-1.1v-9.85c-.49.81-1.03,1.52-1.58,2.15-.1-.28-.46-.86-.68-1.14,1.56-1.72,2.99-4.34,3.87-7.02l1.08.32Zm6.51,4.34c1.07,2.98,2.89,5.93,4.81,7.42-.26.21-.67.61-.89.93-1.87-1.66-3.62-4.71-4.71-7.81v6.34h2.91v1.05h-2.91v3.22h-1.12v-3.22h-2.98v-1.05h2.98v-6.27c-1.14,3.13-2.91,6.09-4.8,7.77-.21-.26-.58-.67-.84-.88,1.92-1.52,3.8-4.52,4.88-7.51h-4.25v-1.12h5.01v-3.55h1.12v3.55h5.3v1.12h-4.52Z" />
                <path
                    d="m144.31,134.52c.63-.86.84-2.42.89-3.88l.75.14c-.09,1.54-.28,3.2-.96,4.13l-.68-.38Zm7.32-5.97s0,.31-.02.47c-.19,4.34-.38,5.86-.8,6.37-.25.3-.51.42-.91.44-.35.04-.96.04-1.56-.02-.04-.28-.12-.68-.26-.94.59.05,1.17.07,1.38.07.24,0,.37-.04.51-.17.17-.23.32-.88.44-2.28l-.59.26c-.16-.63-.58-1.59-1-2.29l.6-.21c.42.68.84,1.63,1.01,2.22.05-.75.12-1.71.17-2.96h-5.25v-8.84h6.16v1h-2.4v1.61h2.01v.95h-2.01v1.66h2.01v.94h-2.01v1.72h2.52Zm-5.29-6.88v1.61h1.79v-1.61h-1.79Zm1.79,2.55h-1.79v1.66h1.79v-1.66Zm-1.79,4.32h1.79v-1.72h-1.79v1.72Zm.7,2.28c.21,1.03.32,2.33.3,3.18l-.67.11c.04-.88-.07-2.17-.26-3.2l.63-.09Zm1.35,2.73c-.07-.75-.38-1.92-.7-2.82l.6-.14c.35.89.67,2.05.75,2.8l-.65.16Zm7.98-13.6c1.07,1.73,2.78,3.4,4.39,4.27-.21.26-.47.67-.61.96-1.59-.98-3.29-2.64-4.25-4.2-.84,1.52-2.43,3.25-4.15,4.36-.14-.28-.4-.68-.59-.91,1.71-1.03,3.4-2.85,4.18-4.48h1.03Zm.54,11.04c.67,1.8,1.94,3.24,3.69,3.92-.23.21-.58.63-.75.93-1.75-.82-3.04-2.36-3.78-4.34-.51,1.64-1.66,3.17-4.17,4.36-.16-.23-.49-.63-.74-.82,2.42-1.1,3.46-2.54,3.92-4.04h-2.94v-4.25h3.25v-1.49h-2.13v-.96h5.42v.96h-2.24v1.49h3.36v4.25h-2.91Zm-1.63-.91c.1-.58.12-1.17.12-1.75v-.68h-2.26v2.43h2.14Zm1.17-2.43v.7c0,.58-.02,1.15-.09,1.73h2.43v-2.43h-2.35Z" />
            </g>
        </g>
    </g>
</svg>