<?xml version="1.0" encoding="UTF-8"?>
<svg id="_レイヤー_2" xmlns="http://www.w3.org/2000/svg" width="254.62" height="134.54" viewBox="0 0 254.62 134.54">
    <defs>
        <style>
            .cls-1 {
                fill: #fff;
            }

            .cls-2 {
                fill: #f77237;
            }

            .cls-3 {
                fill: #44190c;
            }

            .fade{
                opacity:0;
                animation:fadein .8s linear forwards;
            }
            @keyframes fadein {
                0% {
                    opacity: 0;
                }

                100% {
                    opacity: 1;
                }
            }
            .anim {
                transform: scale(0);
                transform-origin: 56.5px 56.5px;
                animation: anim .4s cubic-bezier(.96, .2, .49, 1.15) .4s forwards;
            }

            @keyframes anim {
                0% {
                    transform: scale(0);
                }

                100% {
                    transform: scale(1);
                }
            }
        </style>
    </defs>

    <g class="fade">
        <g>
            <path class="cls-3"
                d="m115.46,120.86c-.66,1.78-1.68,4.04-3.06,5.98,1.78,1.48,3.52,3.06,4.96,4.62l-1.12,1.2c-1.5-1.7-3.04-3.14-4.76-4.64-1.9,2.3-4.42,4.72-7.92,6.52l-1.22-1.1c3.52-1.68,6.02-3.92,8-6.36-1.5-1.2-3.78-2.9-5.68-4.08l.92-1.12c1.74,1.12,4.12,2.8,5.66,4.02,1.34-1.9,2.2-3.84,2.82-5.58.12-.38.3-1,.38-1.42l1.64.56c-.2.36-.46,1-.62,1.4Z" />
            <path class="cls-3"
                d="m123.9,131.1h12.06c.58,0,1.2-.04,1.76-.1v1.72c-.58-.06-1.24-.08-1.76-.08h-12.06c-.72,0-1.38.04-2.02.08v-1.72c.66.04,1.3.1,2.02.1Zm1.6-9.94h8.62c.7,0,1.38-.02,1.92-.08v1.6c-.54-.04-1.28-.06-1.92-.06h-8.62c-.68,0-1.3.04-1.9.06v-1.6c.62.04,1.24.08,1.9.08Z" />
            <path class="cls-3"
                d="m154.54,125.06c-.16,1.4-.76,5.46-1.06,7.28h2.1c.44,0,1.12-.02,1.52-.06v1.44c-.36-.02-1.04-.02-1.46-.02h-11.04c-.58,0-1.04.02-1.6.04v-1.48c.48.04,1.02.08,1.6.08h7.4c.28-1.64.9-5.76.94-6.9h-6.5c-.58,0-1.06.02-1.54.06v-1.52c.46.06,1.02.1,1.52.1h6.24c.3,0,.76-.04.9-.12l1.1.52c-.06.18-.12.42-.12.58Z" />
            <path class="cls-3"
                d="m164.78,125.54h11c1.02,0,1.7-.06,2.12-.1v1.74c-.4-.02-1.2-.08-2.1-.08h-11.02c-1.1,0-2.1.04-2.7.08v-1.74c.58.06,1.56.1,2.7.1Z" />
        </g>
        <circle class="cls-2 anim" cx="56.5" cy="56.5" r="56.5" />
        <g>
            <path class="cls-1"
                d="m25.42,90.11V23.68h20.07l12.05,45.31,11.92-45.31h20.12v66.43h-12.46v-52.29l-13.19,52.29h-12.91l-13.14-52.29v52.29h-12.46Z" />
            <path class="cls-3"
                d="m130.69,74.79l12.69,2.13c-1.63,4.65-4.21,8.2-7.73,10.63-3.52,2.43-7.92,3.65-13.21,3.65-8.37,0-14.56-2.73-18.58-8.2-3.17-4.38-4.76-9.91-4.76-16.58,0-7.98,2.08-14.22,6.25-18.74,4.17-4.52,9.44-6.77,15.81-6.77,7.16,0,12.81,2.36,16.95,7.09,4.14,4.73,6.12,11.97,5.94,21.73h-31.9c.09,3.78,1.12,6.71,3.08,8.81,1.96,2.1,4.41,3.15,7.34,3.15,1.99,0,3.67-.54,5.03-1.63,1.36-1.09,2.39-2.84,3.08-5.26Zm.73-12.87c-.09-3.68-1.04-6.49-2.85-8.41-1.81-1.92-4.02-2.88-6.62-2.88-2.78,0-5.08,1.01-6.89,3.04-1.81,2.02-2.7,4.77-2.67,8.25h19.03Z" />
            <path class="cls-3"
                d="m198.21,90.11h-12.73v-24.56c0-5.2-.27-8.56-.81-10.08-.54-1.53-1.43-2.71-2.65-3.56s-2.7-1.27-4.42-1.27c-2.21,0-4.18.6-5.94,1.81-1.75,1.21-2.95,2.81-3.6,4.8s-.97,5.68-.97,11.06v21.8h-12.73v-48.12h11.83v7.07c4.2-5.44,9.48-8.16,15.86-8.16,2.81,0,5.38.51,7.7,1.52,2.33,1.01,4.09,2.3,5.28,3.88,1.19,1.57,2.02,3.35,2.49,5.35s.7,4.85.7,8.56v29.91Z" />
            <path class="cls-3"
                d="m242.79,90.11v-7.21c-1.75,2.57-4.05,4.59-6.91,6.07-2.85,1.48-5.87,2.22-9.04,2.22s-6.13-.71-8.7-2.13c-2.57-1.42-4.43-3.41-5.57-5.98-1.15-2.57-1.72-6.12-1.72-10.65v-30.45h12.73v22.11c0,6.77.23,10.91.7,12.44.47,1.53,1.32,2.73,2.56,3.62,1.24.89,2.81,1.34,4.71,1.34,2.17,0,4.12-.6,5.85-1.79s2.9-2.67,3.53-4.44c.63-1.77.95-6.1.95-12.98v-20.3h12.73v48.12h-11.83Z" />
        </g>
    </g>

</svg>