<?xml version="1.0" encoding="UTF-8"?>
<svg id="_レイヤー_2" xmlns="http://www.w3.org/2000/svg" width="262.73" height="135.46" viewBox="0 0 262.73 135.46">
    <defs>
        <style>
            .cls-1 {
                fill: #fff;
            }

            .cls-2 {
                fill: #f77237;
            }

            .cls-3 {
                fill: #44190c;
            }
            .fade{
                opacity:0;
                animation:fadein .8s linear forwards;
            }
            @keyframes fadein {
                0% {
                    opacity: 0;
                }

                100% {
                    opacity: 1;
                }
            }
            .anim {
                transform: scale(0);
                transform-origin: 56.5px 56.5px;
                animation: anim .4s cubic-bezier(.96, .2, .49, 1.15) .4s forwards;
                ;
            }

            @keyframes anim {
                0% {
                    transform: scale(0);
                }

                100% {
                    transform: scale(1);
                }
            }
        </style>
    </defs>

    <g class="fade">
        <g>
            <path class="cls-3"
                d="m114,119.4c-.02.46-.04,1.3-.08,2.28,1.48-.18,3.04-.48,4.18-.82l.04,1.4c-1.18.28-2.78.54-4.26.72-.02.98-.04,2.02-.04,2.86v.68c1.54-.5,3.16-.76,4.5-.76,2.9,0,4.94,1.58,4.94,3.9s-1.58,3.92-4.24,4.56c-.9.2-1.78.24-2.46.26l-.5-1.42c.74,0,1.58.02,2.34-.14,1.78-.36,3.42-1.32,3.42-3.24,0-1.76-1.6-2.7-3.52-2.7-1.56,0-2.98.3-4.46.82.02,1.72.08,3.54.08,4.44,0,1.74-.64,2.32-1.7,2.32-1.48,0-4.06-1.5-4.06-3.24,0-1.62,2.08-3.34,4.36-4.32v-1.08c0-.84.02-1.84.02-2.82-.58.06-1.1.08-1.54.08-1.1,0-1.84-.02-2.52-.1l-.02-1.36c1.08.14,1.78.16,2.5.16.48,0,1.02-.02,1.6-.08.02-1.1.04-2.02.04-2.38,0-.38-.04-1.02-.1-1.34h1.6c-.06.34-.1.84-.12,1.32Zm-2.1,13.66c.48,0,.74-.34.74-1,0-.78-.04-2.22-.08-3.74-1.68.8-2.98,2-2.98,2.96s1.48,1.78,2.32,1.78Zm13.02-9.82l-.72,1.14c-.98-.96-3.16-2.32-4.44-3.02l.66-1.06c1.4.76,3.56,2.12,4.5,2.94Z" />
            <path class="cls-3"
                d="m132.5,124.64c0,.22,0,.46-.02.72h3.84v1.26h-3.9c-.06.46-.12.96-.22,1.44.92.9,3.4,3.68,4,4.4l-.88,1.12c-.66-.94-2.34-2.92-3.44-4.16-.6,2.2-1.84,4.38-4.2,6.04-.14-.28-.62-.78-.9-.98,3.1-2.22,4.06-5.18,4.32-7.86h-4.12v-1.26h4.18c.02-.26.02-.52.02-.74v-3.4h-1.66c-.48,1.24-1.02,2.36-1.66,3.24-.22-.22-.78-.6-1.08-.76,1.18-1.58,2.02-3.98,2.52-6.42l1.28.24c-.18.86-.4,1.68-.66,2.46h5.8v1.24h-3.22v3.42Zm11.56-5.62v15.72h-1.34v-1.4h-4.44v1.6h-1.3v-15.92h7.08Zm-1.34,13.06v-11.8h-4.44v11.8h4.44Z" />
            <path class="cls-3"
                d="m151.32,127.76c1.94-1.74,4.16-2.54,6.62-2.54,2.98,0,5.02,1.78,5.02,4.12,0,3.54-3.22,5.9-10.48,5.3l-.44-1.46c6.38.76,9.44-1.12,9.44-3.9,0-1.64-1.54-2.82-3.62-2.82-2.7,0-4.88,1.02-6.32,2.74-.28.34-.44.66-.56.98l-1.34-.34c.4-1.8.9-6.04,1.02-8.06l1.5.2c-.28,1.4-.62,4.46-.84,5.78Zm9.08-7.82l-.34,1.36c-1.88-.26-6.2-1.12-7.72-1.54l.36-1.36c1.68.54,5.94,1.36,7.7,1.54Z" />
            <path class="cls-3"
                d="m180.62,120.02c-.02.94-.02,2-.04,2.92.86-.08,1.64-.12,2.34-.16.52-.04,1.04-.06,1.48-.1v1.42c-.28-.02-1,0-1.5,0-.62.02-1.44.06-2.36.12-.04,1.44-.08,3.26-.28,4.2-.18.86-.6,1.12-1.5,1.12-.74,0-2.06-.18-2.58-.28l.04-1.24c.7.16,1.54.26,2.02.26.52,0,.72-.08.8-.54.1-.68.18-2.14.22-3.44-2.1.16-4.54.4-6.58.6-.02,2.1-.02,4.24,0,5,.08,2.2.08,3,3.62,3,2.22,0,4.68-.22,5.96-.44l-.06,1.48c-1.34.16-3.78.34-5.82.34-4.54,0-4.94-1.06-5.04-4.18-.02-.86-.02-3.02-.02-5.06-.94.1-1.74.2-2.28.26-.62.08-1.4.2-1.96.28l-.14-1.48c.62,0,1.34-.04,2-.12.52-.04,1.36-.12,2.38-.22.02-1.42.02-2.58.02-2.9,0-.58-.02-1-.1-1.6h1.54c-.04.42-.06.96-.06,1.54,0,.7-.02,1.72-.02,2.84,1.98-.2,4.38-.42,6.58-.6v-2.96c0-.44-.04-1.12-.1-1.46h1.52c-.04.34-.08.98-.08,1.4Z" />
        </g>
        <circle class="cls-2 anim" cx="56.5" cy="56.5" r="56.5" />
        <g>
            <path class="cls-1"
                d="m31.67,90.11V23.68h13.05l27.19,44.36V23.68h12.46v66.43h-13.46l-26.78-43.32v43.32h-12.46Z" />
            <path class="cls-3"
                d="m126.33,74.79l12.69,2.13c-1.63,4.65-4.21,8.2-7.73,10.63-3.52,2.43-7.92,3.65-13.21,3.65-8.37,0-14.56-2.73-18.58-8.2-3.17-4.38-4.76-9.91-4.76-16.58,0-7.98,2.08-14.22,6.25-18.74,4.17-4.52,9.44-6.77,15.81-6.77,7.16,0,12.81,2.36,16.95,7.09,4.14,4.73,6.12,11.97,5.94,21.73h-31.9c.09,3.78,1.12,6.71,3.08,8.81,1.96,2.1,4.41,3.15,7.34,3.15,1.99,0,3.67-.54,5.03-1.63,1.36-1.09,2.39-2.84,3.08-5.26Zm.73-12.87c-.09-3.68-1.04-6.49-2.85-8.41-1.81-1.92-4.02-2.88-6.62-2.88-2.78,0-5.08,1.01-6.89,3.04-1.81,2.02-2.7,4.77-2.67,8.25h19.03Z" />
            <path class="cls-3"
                d="m159.05,90.11l-15.23-48.12h12.37l9.02,31.54,8.29-31.54h12.28l8.02,31.54,9.2-31.54h12.55l-15.45,48.12h-12.23l-8.29-30.95-8.16,30.95h-12.37Z" />
            <path class="cls-3"
                d="m217.78,76.38l12.78-1.95c.54,2.48,1.65,4.36,3.31,5.64,1.66,1.28,3.99,1.93,6.98,1.93,3.29,0,5.77-.6,7.43-1.81,1.12-.85,1.68-1.98,1.68-3.4,0-.97-.3-1.77-.91-2.4-.63-.6-2.05-1.16-4.26-1.68-10.27-2.27-16.78-4.33-19.53-6.21-3.81-2.6-5.71-6.21-5.71-10.83,0-4.17,1.65-7.67,4.94-10.51,3.29-2.84,8.4-4.26,15.32-4.26s11.48,1.07,14.68,3.22c3.2,2.15,5.41,5.32,6.62,9.52l-12.01,2.22c-.51-1.87-1.49-3.31-2.92-4.3-1.44-1-3.48-1.5-6.14-1.5-3.35,0-5.76.47-7.21,1.41-.97.66-1.45,1.53-1.45,2.58,0,.91.42,1.68,1.27,2.31,1.15.85,5.11,2.04,11.89,3.58,6.78,1.54,11.52,3.43,14.21,5.66,2.66,2.27,3.99,5.42,3.99,9.47,0,4.41-1.84,8.2-5.53,11.37-3.69,3.17-9.14,4.76-16.36,4.76-6.55,0-11.74-1.33-15.56-3.99-3.82-2.66-6.32-6.27-7.5-10.83Z" />
        </g>
    </g>

</svg>