<?xml version="1.0" encoding="UTF-8"?><svg id="_レイヤー_2" xmlns="http://www.w3.org/2000/svg" width="145.71" height="67.95"
    viewBox="0 0 145.71 67.95">
    <defs>
        <style>
            .cls-1 {
                fill: #fff;
            }

            .cls-2 {
                fill: #f77237;
            }

            .cls-3 {
                fill: #44190c;
            }
            .fade{
                opacity:0;
                animation:fadein .8s linear forwards;
            }
            @keyframes fadein {
                0% {
                    opacity: 0;
                }

                100% {
                    opacity: 1;
                }
            }
            .anim {
                transform: scale(0);
                transform-origin: 28.25px 28.25px;
                animation: anim .4s cubic-bezier(.96, .2, .49, 1.15) .4s forwards;
                ;
            }

            @keyframes anim {
                0% {
                    transform: scale(0);
                }

                100% {
                    transform: scale(1);
                }
            }
        </style>
    </defs>
    <g class="fade">
        <g>
            <circle class="anim cls-2" cx="28.25" cy="28.25" r="28.25" />
            <g>
                <path class="cls-1"
                    d="m45.4,43.43h-7.31l-2.91-7.56h-13.31l-2.75,7.56h-7.13L24.96,10.14h7.11l13.33,33.29Zm-12.37-13.17l-4.59-12.35-4.5,12.35h9.08Z" />
                <path class="cls-3"
                    d="m48.65,43.43V10.14h6.38v11.99c1.97-2.24,4.3-3.36,6.99-3.36,2.94,0,5.37,1.06,7.29,3.19,1.92,2.13,2.88,5.18,2.88,9.16s-.98,7.29-2.94,9.51c-1.96,2.23-4.34,3.34-7.14,3.34-1.38,0-2.74-.34-4.08-1.03-1.34-.69-2.49-1.71-3.46-3.05v3.54h-5.93Zm6.33-12.58c0,2.5.39,4.34,1.18,5.54,1.1,1.7,2.57,2.54,4.4,2.54,1.41,0,2.61-.6,3.6-1.81.99-1.2,1.49-3.1,1.49-5.69,0-2.75-.5-4.74-1.5-5.96s-2.28-1.83-3.84-1.83-2.8.59-3.81,1.78c-1.01,1.19-1.52,2.99-1.52,5.42Z" />
                <path class="cls-3"
                    d="m75.85,31.03c0-2.12.52-4.17,1.57-6.15s2.52-3.5,4.44-4.54c1.91-1.04,4.05-1.57,6.41-1.57,3.65,0,6.64,1.18,8.97,3.55,2.33,2.37,3.5,5.36,3.5,8.98s-1.18,6.67-3.53,9.07-5.32,3.6-8.89,3.6c-2.21,0-4.32-.5-6.32-1.5s-3.53-2.46-4.57-4.39c-1.04-1.93-1.57-4.28-1.57-7.05Zm6.54.34c0,2.39.57,4.22,1.7,5.5s2.54,1.91,4.2,1.91,3.06-.64,4.19-1.91,1.69-3.12,1.69-5.54-.56-4.18-1.69-5.45-2.52-1.91-4.19-1.91-3.07.64-4.2,1.91-1.7,3.1-1.7,5.49Z" />
                <path class="cls-3"
                    d="m121.6,43.43v-3.61c-.88,1.29-2.03,2.3-3.46,3.04-1.43.74-2.94,1.11-4.53,1.11s-3.07-.36-4.36-1.07c-1.29-.71-2.22-1.71-2.79-3-.58-1.29-.86-3.06-.86-5.34v-15.26h6.38v11.08c0,3.39.12,5.47.35,6.23.23.76.66,1.37,1.28,1.82.62.45,1.41.67,2.36.67,1.09,0,2.07-.3,2.93-.9.86-.6,1.45-1.34,1.77-2.23.32-.89.48-3.05.48-6.5v-10.17h6.38v24.11h-5.93Z" />
                <path class="cls-3"
                    d="m145.19,19.31v5.09h-4.36v9.72c0,1.97.04,3.11.12,3.44.08.33.27.59.57.81.3.21.65.32,1.08.32.59,0,1.45-.2,2.57-.61l.54,4.95c-1.48.64-3.16.95-5.04.95-1.15,0-2.19-.19-3.11-.58-.92-.39-1.6-.89-2.03-1.5-.43-.61-.73-1.44-.9-2.49-.14-.74-.2-2.24-.2-4.5v-10.51h-2.93v-5.09h2.93v-4.79l6.4-3.72v8.51h4.36Z" />
            </g>
            <g>
                <path
                    d="m57.57,63.06h2.87v4.89h-.6v-.39h-5.9v-.58h5.9v-1.45h-5.45v-.56h5.45v-1.34h-5.73v-.58h2.84v-3.1h.62v3.1Zm-2.43-.47c-.19-.56-.67-1.41-1.14-2.01l.52-.22c.49.61.96,1.44,1.17,1.99l-.55.25Zm5.42-2.09c-.39.73-.87,1.59-1.28,2.16l-.48-.21c.39-.57.87-1.5,1.15-2.17l.61.22Z" />
                <path
                    d="m69.93,61.12v.55h-6.63v1.72c0,1.32-.1,3.25-.85,4.56-.1-.1-.36-.26-.5-.33.71-1.24.78-2.98.78-4.23v-2.27h3.23v-1.15h.59v1.15h3.38Zm-3.1,1.83h2.98v.52h-2.98v1.31h2.38v3.14h-.59v-.32h-3.91v.35h-.57v-3.17h2.11v-2.92h.58v1.09Zm1.79,2.35h-3.91v1.78h3.91v-1.78Z" />
                <path
                    d="m72.52,61.27c-.18.86-.44,2.38-.44,3.39,0,.46.03.87.09,1.34.15-.41.37-.98.52-1.35l.34.25c-.22.6-.54,1.52-.62,1.93-.03.12-.04.29-.04.39,0,.1.03.21.03.3l-.56.04c-.18-.63-.32-1.63-.32-2.81,0-1.28.3-2.78.4-3.52.03-.19.05-.39.05-.58l.7.06c-.04.15-.11.39-.15.55Zm2.02,4.49c0,.4.27.82,1.52.82.78,0,1.47-.07,2.16-.24l.02.66c-.54.11-1.29.18-2.17.18-1.46,0-2.11-.47-2.11-1.29,0-.28.05-.59.14-1.01l.57.05c-.09.32-.13.58-.13.81Zm3.42-4.35v.63c-.92.1-2.63.1-3.56,0v-.63c.93.17,2.7.13,3.56,0Z" />
                <path
                    d="m80.75,62.5c.75-.24,2.47-.88,3.74-.88,1.43,0,2.56.83,2.56,2.27,0,2.12-2.12,3.09-4.75,3.24l-.27-.65c2.28-.06,4.35-.76,4.35-2.6,0-.94-.7-1.67-1.9-1.67-1.47,0-3.73.97-4.38,1.23l-.3-.68c.32-.06.61-.15.95-.25Z" />
                <path
                    d="m89.72,62.01c0,.54,0,1.37.06,2.11.15,1.5.6,2.49,1.24,2.49.45,0,.87-.88,1.11-1.79l.49.54c-.52,1.48-1.04,1.99-1.62,1.99-.8,0-1.58-.82-1.83-3.07-.08-.75-.1-1.82-.1-2.33,0-.19,0-.57-.05-.76l.76.02c-.03.19-.06.59-.07.81Zm6.19,3.76l-.62.25c-.16-1.6-.7-3.34-1.51-4.36l.6-.21c.78,1.02,1.39,2.82,1.53,4.32Z" />
                <path
                    d="m98.17,61.46c.54-.06,2.23-.23,3.84-.37.96-.08,1.76-.13,2.34-.15v.62c-.51,0-1.27,0-1.72.14-1.28.43-2.03,1.79-2.03,2.83,0,1.76,1.64,2.31,3.05,2.36l-.23.64c-1.58-.06-3.45-.89-3.45-2.86,0-1.38.86-2.52,1.7-3-.96.1-3.27.32-4.21.52l-.07-.68c.33,0,.6-.03.77-.04Z" />
            </g>
        </g>
    </g>
</svg>