<?xml version="1.0" encoding="UTF-8"?><svg id="_レイヤー_2" xmlns="http://www.w3.org/2000/svg" width="175.1" height="67.78"
    viewBox="0 0 175.1 67.78">
    <defs>
        <style>
            .cls-1 {
                fill: #fff;
            }

            .cls-2 {
                fill: #f77237;
            }

            .cls-3 {
                fill: #44190c;
            }
            .fade{
                opacity:0;
                animation:fadein .8s linear forwards;
            }
            @keyframes fadein {
                0% {
                    opacity: 0;
                }

                100% {
                    opacity: 1;
                }
            }
            .anim {
                transform: scale(0);
                transform-origin: 28.25px 28.25px;
                animation: anim .4s cubic-bezier(.96, .2, .49, 1.15) .4s forwards;
                ;
            }

            @keyframes anim {
                0% {
                    transform: scale(0);
                }

                100% {
                    transform: scale(1);
                }
            }
        </style>
    </defs>
    <g class="fade">
        <g>
            <g>
                <path class="cls-3"
                    d="m76,59.7c-.01.23-.02.65-.04,1.14.74-.09,1.52-.24,2.09-.41l.02.7c-.59.14-1.39.27-2.13.36-.01.49-.02,1.01-.02,1.43v.34c.77-.25,1.58-.38,2.25-.38,1.45,0,2.47.79,2.47,1.95s-.79,1.96-2.12,2.28c-.45.1-.89.12-1.23.13l-.25-.71c.37,0,.79.01,1.17-.07.89-.18,1.71-.66,1.71-1.62,0-.88-.8-1.35-1.76-1.35-.78,0-1.49.15-2.23.41.01.86.04,1.77.04,2.22,0,.87-.32,1.16-.85,1.16-.74,0-2.03-.75-2.03-1.62,0-.81,1.04-1.67,2.18-2.16v-.54c0-.42.01-.92.01-1.41-.29.03-.55.04-.77.04-.55,0-.92-.01-1.26-.05v-.68c.53.07.88.08,1.24.08.24,0,.51,0,.8-.04.01-.55.02-1.01.02-1.19,0-.19-.02-.51-.05-.67h.8c-.03.17-.05.42-.06.66Zm-1.05,6.83c.24,0,.37-.17.37-.5,0-.39-.02-1.11-.04-1.87-.84.4-1.49,1-1.49,1.48s.74.89,1.16.89Zm6.51-4.91l-.36.57c-.49-.48-1.58-1.16-2.22-1.51l.33-.53c.7.38,1.78,1.06,2.25,1.47Z" />
                <path class="cls-3"
                    d="m88.05,65.4c.89.75,2.31,1.38,3.58,1.68-.14.13-.34.38-.44.56-1.41-.4-2.99-1.26-3.9-2.24h0v2.35h-.64v-2.32c-.93.94-2.49,1.77-3.82,2.18-.1-.17-.3-.43-.45-.55,1.22-.32,2.59-.94,3.49-1.66h-3.27v-.59h4.05v-.68h-3v-3.28h6.76v3.28h-3.12v.68h4.19v.59h-3.42Zm-3.12-5.41h-2.28v-.6h2.28v-.74h.65v.74h2.77v-.74h.65v.74h2.37v.6h-2.37v.64h-.65v-.64h-2.77v.64h-.65v-.64Zm-.66,2.25h2.37v-.88h-2.37v.88Zm2.37,1.38v-.89h-2.37v.89h2.37Zm3.11-2.26h-2.47v.88h2.47v-.88Zm0,1.37h-2.47v.89h2.47v-.89Z" />
                <path class="cls-3"
                    d="m101.51,63.76h-4.15v3.11c0,.47-.12.67-.48.78-.35.11-.99.12-1.96.12-.05-.19-.16-.49-.28-.68.82.03,1.56.03,1.77.02.21,0,.28-.06.28-.25v-3.1h-4.17v-.65h4.17v-1.61h.41c.77-.4,1.6-.97,2.22-1.5h-5.78v-.65h6.47l.16-.03.49.37c-.86.86-2.18,1.78-3.3,2.37v1.05h4.15v.65Z" />
                <path class="cls-3"
                    d="m110.92,61.12c-.25,1.63-.64,2.96-1.26,4.04.51.89,1.15,1.6,1.98,2.03-.16.14-.38.39-.48.57-.78-.46-1.41-1.13-1.9-1.97-.6.82-1.37,1.47-2.37,1.99-.07-.15-.26-.45-.4-.59,1.06-.5,1.84-1.18,2.41-2.07-.4-.85-.7-1.83-.93-2.91-.22.47-.46.89-.72,1.26-.1-.11-.36-.33-.52-.43-.41.5-.98,1.01-1.5,1.38v.46l2.08-.23v.57l-2.08.24v1.56c0,.35-.08.52-.34.63-.26.09-.68.09-1.32.09-.03-.17-.12-.41-.22-.58.52,0,.95,0,1.08,0,.13,0,.17-.03.17-.14v-1.48c-.78.09-1.51.17-2.1.23l-.08-.6c.59-.06,1.35-.14,2.18-.23v-.91h.33c.3-.22.61-.5.87-.78h-1.24c-.56.51-1.17.95-1.82,1.32-.1-.14-.34-.38-.49-.51.46-.24.89-.51,1.29-.81h-.28v-.54h.94c.28-.25.54-.51.79-.79h-2.53v-.59h1.76v-1.03h-1.36v-.58h1.36v-1.08h.61v1.08h1.3v.58h-1.3v1.03h.64c.55-.73,1.01-1.56,1.37-2.46l.62.18c-.34.83-.75,1.59-1.22,2.28h1.03v.59h-1.47c-.22.28-.44.54-.68.79h1.17l.13-.04.36.26c.75-1.04,1.26-2.64,1.55-4.28l.67.1c-.11.6-.25,1.19-.41,1.75h2.97v.62h-.64Zm-2.54.04c.2,1.2.5,2.31.92,3.27.45-.92.74-2.01.93-3.31h-1.84v.04Z" />
                <path class="cls-3"
                    d="m121.42,66.87v.6h-8.8v-.6h4.02v-1.34h-3.11v-.59h3.11v-1.18c-1.23.04-2.37.07-3.25.1l-.04-.61,1.4-.03c.31-.46.65-1.04.9-1.54h-1.91v-.59h6.59v.59h-3.9c-.3.5-.66,1.06-.99,1.52,1.17-.03,2.5-.06,3.83-.1-.36-.29-.74-.57-1.09-.8l.47-.34c.86.53,1.88,1.34,2.36,1.92l-.51.38c-.15-.18-.36-.4-.61-.62-.86.03-1.73.06-2.58.09v1.21h3.22v.59h-3.22v1.34h4.11Zm-8.03-5.66h-.64v-1.79h3.89v-.77h.67v.77h3.97v1.79h-.66v-1.18h-7.23v1.18Z" />
            </g>
            <circle class="cls-2 anim" cx="28.25" cy="28.25" r="28.25" />
            <g>
                <path class="cls-1" d="m19.33,45.05V12.11h6.71v27.35h16.68v5.6h-23.38Z" />
                <path class="cls-3"
                    d="m61.38,37.4l6.34,1.06c-.82,2.33-2.1,4.1-3.86,5.31-1.76,1.22-3.96,1.82-6.6,1.82-4.18,0-7.28-1.37-9.29-4.1-1.59-2.19-2.38-4.95-2.38-8.29,0-3.99,1.04-7.11,3.13-9.37,2.08-2.26,4.72-3.39,7.91-3.39,3.58,0,6.4,1.18,8.47,3.55,2.07,2.36,3.06,5.99,2.97,10.86h-15.95c.05,1.89.56,3.36,1.54,4.41.98,1.05,2.21,1.57,3.67,1.57,1,0,1.84-.27,2.51-.82.68-.54,1.19-1.42,1.54-2.63Zm.36-6.43c-.05-1.84-.52-3.24-1.43-4.2-.91-.96-2.01-1.44-3.31-1.44-1.39,0-2.54.51-3.44,1.52-.91,1.01-1.35,2.39-1.34,4.12h9.52Z" />
                <path class="cls-3"
                    d="m71.01,38.19l6.39-.97c.27,1.24.82,2.18,1.65,2.82.83.64,1.99.96,3.49.96,1.65,0,2.89-.3,3.72-.91.56-.42.84-.99.84-1.7,0-.48-.15-.88-.45-1.2-.32-.3-1.03-.58-2.13-.84-5.14-1.13-8.39-2.17-9.77-3.1-1.9-1.3-2.85-3.1-2.85-5.42,0-2.08.82-3.84,2.47-5.26,1.65-1.42,4.2-2.13,7.66-2.13s5.74.54,7.34,1.61c1.6,1.07,2.7,2.66,3.31,4.76l-6,1.11c-.26-.94-.74-1.65-1.46-2.15-.72-.5-1.74-.75-3.07-.75-1.68,0-2.88.23-3.6.7-.48.33-.73.76-.73,1.29,0,.45.21.84.63,1.16.57.42,2.56,1.02,5.95,1.79,3.39.77,5.76,1.71,7.1,2.83,1.33,1.13,1.99,2.71,1.99,4.74,0,2.21-.92,4.1-2.76,5.69-1.84,1.59-4.57,2.38-8.18,2.38-3.28,0-5.87-.66-7.78-1.99-1.91-1.33-3.16-3.13-3.75-5.42Z" />
                <path class="cls-3"
                    d="m96.82,38.19l6.39-.97c.27,1.24.82,2.18,1.65,2.82.83.64,1.99.96,3.49.96,1.65,0,2.89-.3,3.72-.91.56-.42.84-.99.84-1.7,0-.48-.15-.88-.45-1.2-.32-.3-1.03-.58-2.13-.84-5.14-1.13-8.39-2.17-9.77-3.1-1.9-1.3-2.85-3.1-2.85-5.42,0-2.08.82-3.84,2.47-5.26,1.65-1.42,4.2-2.13,7.66-2.13s5.74.54,7.34,1.61c1.6,1.07,2.7,2.66,3.31,4.76l-6,1.11c-.26-.94-.74-1.65-1.46-2.15-.72-.5-1.74-.75-3.07-.75-1.68,0-2.88.23-3.6.7-.48.33-.73.76-.73,1.29,0,.45.21.84.63,1.16.57.42,2.56,1.02,5.95,1.79,3.39.77,5.76,1.71,7.1,2.83,1.33,1.13,1.99,2.71,1.99,4.74,0,2.21-.92,4.1-2.76,5.69-1.84,1.59-4.57,2.38-8.18,2.38-3.28,0-5.87-.66-7.78-1.99-1.91-1.33-3.16-3.13-3.75-5.42Z" />
                <path class="cls-3"
                    d="m123.4,32.68c0-2.11.52-4.16,1.56-6.14,1.04-1.98,2.52-3.49,4.43-4.53,1.91-1.04,4.04-1.56,6.4-1.56,3.64,0,6.62,1.18,8.95,3.55,2.33,2.36,3.49,5.35,3.49,8.96s-1.17,6.66-3.52,9.05c-2.35,2.39-5.31,3.59-8.87,3.59-2.21,0-4.31-.5-6.31-1.5-2-1-3.52-2.46-4.57-4.38-1.04-1.93-1.56-4.27-1.56-7.03Zm6.53.34c0,2.39.57,4.21,1.7,5.48,1.13,1.27,2.53,1.9,4.19,1.9s3.05-.63,4.18-1.9c1.12-1.27,1.69-3.11,1.69-5.53s-.56-4.17-1.69-5.44c-1.13-1.27-2.52-1.9-4.18-1.9s-3.06.63-4.19,1.9c-1.13,1.27-1.7,3.1-1.7,5.48Z" />
                <path class="cls-3"
                    d="m175.1,45.05h-6.37v-12.28c0-2.6-.14-4.28-.41-5.04-.27-.76-.71-1.36-1.33-1.78-.61-.42-1.35-.63-2.21-.63-1.1,0-2.09.3-2.97.91-.88.6-1.48,1.4-1.8,2.4-.32,1-.49,2.84-.49,5.53v10.9h-6.37v-24.06h5.91v3.53c2.1-2.72,4.74-4.08,7.93-4.08,1.4,0,2.69.25,3.85.76,1.16.51,2.04,1.15,2.64,1.94.6.79,1.01,1.68,1.25,2.67.23,1,.35,2.42.35,4.28v14.95Z" />
            </g>
        </g>
    </g>
</svg>