<?xml version="1.0" encoding="UTF-8"?>
<svg id="_レイヤー_2" xmlns="http://www.w3.org/2000/svg" width="350.2" height="135.56" viewBox="0 0 350.2 135.56">
    <defs>
        <style>
            .cls-1 {
                fill: #fff;
            }

            .cls-2 {
                fill: #f77237;
            }

            .cls-3 {
                fill: #44190c;
            }
            .fade{
                opacity:0;
                animation:fadein .8s linear forwards;
            }
            @keyframes fadein {
                0% {
                    opacity: 0;
                }

                100% {
                    opacity: 1;
                }
            }
            .anim {
                transform: scale(0);
                transform-origin: 56.5px 56.5px;
                animation: anim .4s cubic-bezier(.96, .2, .49, 1.15) .4s forwards;
                ;
            }

            @keyframes anim {
                0% {
                    transform: scale(0);
                }

                100% {
                    transform: scale(1);
                }
            }
        </style>
    </defs>

    <g class="fade">
        <g>
            <path class="cls-3"
                d="m152,119.4c-.02.46-.04,1.3-.08,2.28,1.48-.18,3.04-.48,4.18-.82l.04,1.4c-1.18.28-2.78.54-4.26.72-.02.98-.04,2.02-.04,2.86v.68c1.54-.5,3.16-.76,4.5-.76,2.9,0,4.94,1.58,4.94,3.9s-1.58,3.92-4.24,4.56c-.9.2-1.78.24-2.46.26l-.5-1.42c.74,0,1.58.02,2.34-.14,1.78-.36,3.42-1.32,3.42-3.24,0-1.76-1.6-2.7-3.52-2.7-1.56,0-2.98.3-4.46.82.02,1.72.08,3.54.08,4.44,0,1.74-.64,2.32-1.7,2.32-1.48,0-4.06-1.5-4.06-3.24,0-1.62,2.08-3.34,4.36-4.32v-1.08c0-.84.02-1.84.02-2.82-.58.06-1.1.08-1.54.08-1.1,0-1.84-.02-2.52-.1l-.02-1.36c1.08.14,1.78.16,2.5.16.48,0,1.02-.02,1.6-.08.02-1.1.04-2.02.04-2.38,0-.38-.04-1.02-.1-1.34h1.6c-.06.34-.1.84-.12,1.32Zm-2.1,13.66c.48,0,.74-.34.74-1,0-.78-.04-2.22-.08-3.74-1.68.8-2.98,2-2.98,2.96s1.48,1.78,2.32,1.78Zm13.02-9.82l-.72,1.14c-.98-.96-3.16-2.32-4.44-3.02l.66-1.06c1.4.76,3.56,2.12,4.5,2.94Z" />
            <path class="cls-3"
                d="m176.1,130.8c1.78,1.5,4.62,2.76,7.16,3.36-.28.26-.68.76-.88,1.12-2.82-.8-5.98-2.52-7.8-4.48h-.02v4.7h-1.28v-4.64c-1.86,1.88-4.98,3.54-7.64,4.36-.2-.34-.6-.86-.9-1.1,2.44-.64,5.18-1.88,6.98-3.32h-6.54v-1.18h8.1v-1.36h-6v-6.56h13.52v6.56h-6.24v1.36h8.38v1.18h-6.84Zm-6.24-10.82h-4.56v-1.2h4.56v-1.48h1.3v1.48h5.54v-1.48h1.3v1.48h4.74v1.2h-4.74v1.28h-1.3v-1.28h-5.54v1.28h-1.3v-1.28Zm-1.32,4.5h4.74v-1.76h-4.74v1.76Zm4.74,2.76v-1.78h-4.74v1.78h4.74Zm6.22-4.52h-4.94v1.76h4.94v-1.76Zm0,2.74h-4.94v1.78h4.94v-1.78Z" />
            <path class="cls-3"
                d="m203.02,127.52h-8.3v6.22c0,.94-.24,1.34-.96,1.56-.7.22-1.98.24-3.92.24-.1-.38-.32-.98-.56-1.36,1.64.06,3.12.06,3.54.04.42-.02.56-.12.56-.5v-6.2h-8.34v-1.3h8.34v-3.22h.82c1.54-.8,3.2-1.94,4.44-3h-11.56v-1.3h12.94l.32-.06.98.74c-1.72,1.72-4.36,3.56-6.6,4.74v2.1h8.3v1.3Z" />
            <path class="cls-3"
                d="m221.84,122.24c-.5,3.26-1.28,5.92-2.52,8.08,1.02,1.78,2.3,3.2,3.96,4.06-.32.28-.76.78-.96,1.14-1.56-.92-2.82-2.26-3.8-3.94-1.2,1.64-2.74,2.94-4.74,3.98-.14-.3-.52-.9-.8-1.18,2.12-1,3.68-2.36,4.82-4.14-.8-1.7-1.4-3.66-1.86-5.82-.44.94-.92,1.78-1.44,2.52-.2-.22-.72-.66-1.04-.86-.82,1-1.96,2.02-3,2.76v.92l4.16-.46v1.14l-4.16.48v3.12c0,.7-.16,1.04-.68,1.26-.52.18-1.36.18-2.64.18-.06-.34-.24-.82-.44-1.16,1.04.02,1.9.02,2.16,0,.26,0,.34-.06.34-.28v-2.96c-1.56.18-3.02.34-4.2.46l-.16-1.2c1.18-.12,2.7-.28,4.36-.46v-1.82h.66c.6-.44,1.22-1,1.74-1.56h-2.48c-1.12,1.02-2.34,1.9-3.64,2.64-.2-.28-.68-.76-.98-1.02.92-.48,1.78-1.02,2.58-1.62h-.56v-1.08h1.88c.56-.5,1.08-1.02,1.58-1.58h-5.06v-1.18h3.52v-2.06h-2.72v-1.16h2.72v-2.16h1.22v2.16h2.6v1.16h-2.6v2.06h1.28c1.1-1.46,2.02-3.12,2.74-4.92l1.24.36c-.68,1.66-1.5,3.18-2.44,4.56h2.06v1.18h-2.94c-.44.56-.88,1.08-1.36,1.58h2.34l.26-.08.72.52c1.5-2.08,2.52-5.28,3.1-8.56l1.34.2c-.22,1.2-.5,2.38-.82,3.5h5.94v1.24h-1.28Zm-5.08.08c.4,2.4,1,4.62,1.84,6.54.9-1.84,1.48-4.02,1.86-6.62h-3.68l-.02.08Z" />
            <path class="cls-3"
                d="m242.84,133.74v1.2h-17.6v-1.2h8.04v-2.68h-6.22v-1.18h6.22v-2.36c-2.46.08-4.74.14-6.5.2l-.08-1.22,2.8-.06c.62-.92,1.3-2.08,1.8-3.08h-3.82v-1.18h13.18v1.18h-7.8c-.6,1-1.32,2.12-1.98,3.04,2.34-.06,5-.12,7.66-.2-.72-.58-1.48-1.14-2.18-1.6l.94-.68c1.72,1.06,3.76,2.68,4.72,3.84l-1.02.76c-.3-.36-.72-.8-1.22-1.24-1.72.06-3.46.12-5.16.18v2.42h6.44v1.18h-6.44v2.68h8.22Zm-16.06-11.32h-1.28v-3.58h7.78v-1.54h1.34v1.54h7.94v3.58h-1.32v-2.36h-14.46v2.36Z" />
        </g>
        <circle class="cls-2 anim" cx="56.5" cy="56.5" r="56.5" />
        <g>
            <path class="cls-1" d="m38.66,90.11V24.22h13.41v54.69h33.35v11.19h-46.76Z" />
            <path class="cls-3"
                d="m122.77,74.79l12.69,2.13c-1.63,4.65-4.21,8.2-7.73,10.63-3.52,2.43-7.92,3.65-13.21,3.65-8.37,0-14.56-2.73-18.58-8.2-3.17-4.38-4.76-9.91-4.76-16.58,0-7.98,2.08-14.22,6.25-18.74,4.17-4.52,9.44-6.77,15.81-6.77,7.16,0,12.81,2.36,16.95,7.09,4.14,4.73,6.12,11.97,5.94,21.73h-31.9c.09,3.78,1.12,6.71,3.08,8.81,1.96,2.1,4.41,3.15,7.34,3.15,1.99,0,3.67-.54,5.03-1.63,1.36-1.09,2.39-2.84,3.08-5.26Zm.73-12.87c-.09-3.68-1.04-6.49-2.85-8.41-1.81-1.92-4.02-2.88-6.62-2.88-2.78,0-5.08,1.01-6.89,3.04-1.81,2.02-2.7,4.77-2.67,8.25h19.03Z" />
            <path class="cls-3"
                d="m142.03,76.38l12.78-1.95c.54,2.48,1.65,4.36,3.31,5.64,1.66,1.28,3.99,1.93,6.98,1.93,3.29,0,5.77-.6,7.43-1.81,1.12-.85,1.68-1.98,1.68-3.4,0-.97-.3-1.77-.91-2.4-.63-.6-2.05-1.16-4.26-1.68-10.27-2.27-16.78-4.33-19.53-6.21-3.81-2.6-5.71-6.21-5.71-10.83,0-4.17,1.65-7.67,4.94-10.51,3.29-2.84,8.4-4.26,15.32-4.26s11.48,1.07,14.68,3.22c3.2,2.15,5.41,5.32,6.62,9.52l-12.01,2.22c-.51-1.87-1.49-3.31-2.92-4.3-1.44-1-3.48-1.5-6.14-1.5-3.35,0-5.75.47-7.21,1.41-.97.66-1.45,1.53-1.45,2.58,0,.91.42,1.68,1.27,2.31,1.15.85,5.11,2.04,11.9,3.58,6.78,1.54,11.52,3.43,14.21,5.66,2.66,2.27,3.99,5.42,3.99,9.47,0,4.41-1.84,8.2-5.53,11.37-3.69,3.17-9.14,4.76-16.36,4.76-6.56,0-11.74-1.33-15.57-3.99-3.82-2.66-6.32-6.27-7.5-10.83Z" />
            <path class="cls-3"
                d="m193.64,76.38l12.78-1.95c.54,2.48,1.65,4.36,3.31,5.64,1.66,1.28,3.99,1.93,6.98,1.93,3.29,0,5.77-.6,7.43-1.81,1.12-.85,1.68-1.98,1.68-3.4,0-.97-.3-1.77-.91-2.4-.63-.6-2.05-1.16-4.26-1.68-10.27-2.27-16.78-4.33-19.53-6.21-3.81-2.6-5.71-6.21-5.71-10.83,0-4.17,1.65-7.67,4.94-10.51,3.29-2.84,8.4-4.26,15.32-4.26s11.48,1.07,14.68,3.22c3.2,2.15,5.41,5.32,6.62,9.52l-12.01,2.22c-.51-1.87-1.49-3.31-2.92-4.3-1.44-1-3.48-1.5-6.14-1.5-3.35,0-5.75.47-7.21,1.41-.97.66-1.45,1.53-1.45,2.58,0,.91.42,1.68,1.27,2.31,1.15.85,5.11,2.04,11.9,3.58,6.78,1.54,11.52,3.43,14.21,5.66,2.66,2.27,3.99,5.42,3.99,9.47,0,4.41-1.84,8.2-5.53,11.37-3.69,3.17-9.14,4.76-16.36,4.76-6.56,0-11.74-1.33-15.57-3.99-3.82-2.66-6.32-6.27-7.5-10.83Z" />
            <path class="cls-3"
                d="m246.79,65.37c0-4.23,1.04-8.32,3.13-12.28,2.08-3.96,5.04-6.98,8.86-9.06,3.82-2.08,8.09-3.13,12.8-3.13,7.28,0,13.25,2.36,17.9,7.09,4.65,4.73,6.98,10.7,6.98,17.92s-2.35,13.31-7.05,18.1c-4.7,4.79-10.61,7.18-17.74,7.18-4.41,0-8.62-1-12.62-2.99-4-1.99-7.05-4.92-9.13-8.77-2.08-3.85-3.13-8.54-3.13-14.07Zm13.05.68c0,4.77,1.13,8.43,3.4,10.97,2.27,2.54,5.06,3.81,8.38,3.81s6.11-1.27,8.36-3.81c2.25-2.54,3.38-6.22,3.38-11.06s-1.13-8.34-3.38-10.88c-2.25-2.54-5.04-3.81-8.36-3.81s-6.12,1.27-8.38,3.81c-2.27,2.54-3.4,6.19-3.4,10.97Z" />
            <path class="cls-3"
                d="m350.2,90.11h-12.73v-24.56c0-5.2-.27-8.56-.82-10.08-.54-1.53-1.43-2.71-2.65-3.56-1.22-.85-2.7-1.27-4.42-1.27-2.21,0-4.18.6-5.94,1.81-1.75,1.21-2.95,2.81-3.6,4.8-.65,1.99-.97,5.68-.97,11.06v21.8h-12.73v-48.12h11.83v7.07c4.2-5.44,9.49-8.16,15.86-8.16,2.81,0,5.38.51,7.7,1.52,2.33,1.01,4.08,2.3,5.28,3.88,1.19,1.57,2.02,3.35,2.49,5.35.47,1.99.7,4.85.7,8.56v29.91Z" />
        </g>
    </g>
</svg>