<?xml version="1.0" encoding="UTF-8"?><svg id="_レイヤー_2" xmlns="http://www.w3.org/2000/svg" width="127.31" height="67.27"
    viewBox="0 0 127.31 67.27">
    <defs>
        <style>
            .cls-1 {
                fill: #fff;
            }

            .cls-2 {
                fill: #f77237;
            }

            .cls-3 {
                fill: #44190c;
            }
            .fade{
                opacity:0;
                animation:fadein .8s linear forwards;
            }
            @keyframes fadein {
                0% {
                    opacity: 0;
                }

                100% {
                    opacity: 1;
                }
            }
            .anim {
                transform: scale(0);
                transform-origin: 28.25px 28.25px;
                animation: anim .4s cubic-bezier(.96, .2, .49, 1.15) .4s forwards;
                ;
            }

            @keyframes anim {
                0% {
                    transform: scale(0);
                }

                100% {
                    transform: scale(1);
                }
            }
        </style>
    </defs>
    <g class="fade">
        <g>
            <g>
                <path class="cls-3"
                    d="m57.73,60.43c-.33.89-.84,2.02-1.53,2.99.89.74,1.76,1.53,2.48,2.31l-.56.6c-.75-.85-1.52-1.57-2.38-2.32-.95,1.15-2.21,2.36-3.96,3.26l-.61-.55c1.76-.84,3.01-1.96,4-3.18-.75-.6-1.89-1.45-2.84-2.04l.46-.56c.87.56,2.06,1.4,2.83,2.01.67-.95,1.1-1.92,1.41-2.79.06-.19.15-.5.19-.71l.82.28c-.1.18-.23.5-.31.7Z" />
                <path class="cls-3"
                    d="m61.95,65.55h6.03c.29,0,.6-.02.88-.05v.86c-.29-.03-.62-.04-.88-.04h-6.03c-.36,0-.69.02-1.01.04v-.86c.33.02.65.05,1.01.05Zm.8-4.97h4.31c.35,0,.69,0,.96-.04v.8c-.27-.02-.64-.03-.96-.03h-4.31c-.34,0-.65.02-.95.03v-.8c.31.02.62.04.95.04Z" />
                <path class="cls-3"
                    d="m77.27,62.53c-.08.7-.38,2.73-.53,3.64h1.05c.22,0,.56-.01.76-.03v.72c-.18,0-.52,0-.73,0h-5.52c-.29,0-.52,0-.8.02v-.74c.24.02.51.04.8.04h3.7c.14-.82.45-2.88.47-3.45h-3.25c-.29,0-.53,0-.77.03v-.76c.23.03.51.05.76.05h3.12c.15,0,.38-.02.45-.06l.55.26c-.03.09-.06.21-.06.29Z" />
                <path class="cls-3"
                    d="m82.39,62.77h5.5c.51,0,.85-.03,1.06-.05v.87c-.2-.01-.6-.04-1.05-.04h-5.51c-.55,0-1.05.02-1.35.04v-.87c.29.03.78.05,1.35.05Z" />
            </g>
            <circle class="cls-2 anim" cx="28.25" cy="28.25" r="28.25" />
            <g>
                <path class="cls-1"
                    d="m12.71,45.05V11.84h10.04l6.03,22.66,5.96-22.66h10.06v33.22h-6.23v-26.15l-6.59,26.15h-6.46l-6.57-26.15v26.15h-6.23Z" />
                <path class="cls-3"
                    d="m65.34,37.4l6.34,1.06c-.82,2.33-2.1,4.1-3.86,5.31-1.76,1.22-3.96,1.82-6.6,1.82-4.18,0-7.28-1.37-9.29-4.1-1.59-2.19-2.38-4.95-2.38-8.29,0-3.99,1.04-7.11,3.13-9.37,2.08-2.26,4.72-3.39,7.91-3.39,3.58,0,6.4,1.18,8.47,3.55,2.07,2.36,3.06,5.99,2.97,10.86h-15.95c.05,1.89.56,3.36,1.54,4.41.98,1.05,2.21,1.57,3.67,1.57,1,0,1.84-.27,2.51-.82.68-.54,1.19-1.42,1.54-2.63Zm.36-6.43c-.05-1.84-.52-3.24-1.43-4.2-.91-.96-2.01-1.44-3.31-1.44-1.39,0-2.54.51-3.44,1.52-.91,1.01-1.35,2.39-1.34,4.12h9.52Z" />
                <path class="cls-3"
                    d="m99.1,45.05h-6.37v-12.28c0-2.6-.14-4.28-.41-5.04-.27-.76-.71-1.36-1.33-1.78s-1.35-.63-2.21-.63c-1.1,0-2.09.3-2.97.91-.88.6-1.48,1.4-1.8,2.4s-.49,2.84-.49,5.53v10.9h-6.37v-24.06h5.91v3.53c2.1-2.72,4.74-4.08,7.93-4.08,1.4,0,2.69.25,3.85.76,1.16.51,2.04,1.15,2.64,1.94.6.79,1.01,1.68,1.25,2.67s.35,2.42.35,4.28v14.95Z" />
                <path class="cls-3"
                    d="m121.4,45.05v-3.6c-.88,1.28-2.03,2.3-3.46,3.04-1.43.74-2.93,1.11-4.52,1.11s-3.07-.36-4.35-1.06c-1.28-.71-2.21-1.71-2.79-2.99-.57-1.28-.86-3.06-.86-5.32v-15.23h6.37v11.06c0,3.38.12,5.46.35,6.22.23.76.66,1.37,1.28,1.81.62.45,1.4.67,2.36.67,1.09,0,2.06-.3,2.92-.9s1.45-1.34,1.77-2.22c.32-.88.48-3.05.48-6.49v-10.15h6.37v24.06h-5.91Z" />
            </g>
        </g>
    </g>
</svg>