<?xml version="1.0" encoding="UTF-8"?>
<svg id="_レイヤー_2" xmlns="http://www.w3.org/2000/svg" width="109" height="67.95" viewBox="0 0 109 67.95">
    <defs>
        <style>
            .cls-1 {
                fill: #fff;
            }

            .cls-2 {
                fill: #f77237;
            }

            .cls-3 {
                fill: #44190c;
            }

            .fade {
                opacity: 0;
                animation: fadein .8s linear forwards;
            }

            @keyframes fadein {
                0% {
                    opacity: 0;
                }

                100% {
                    opacity: 1;
                }
            }

            .anim {
                transform: scale(0);
                transform-origin: 28.25px 28.25px;
                animation: anim .4s cubic-bezier(.96, .2, .49, 1.15) .4s forwards;
                ;
            }

            @keyframes anim {
                0% {
                    transform: scale(0);
                }

                100% {
                    transform: scale(1);
                }
            }
        </style>
    </defs>
    <g class="fade">
        <g>
            <circle class="cls-2 anim" cx="28.25" cy="28.25" r="28.25" />
            <g>
                <path class="cls-1" d="m24.88,45.43v-27.65h-9.88v-5.63h26.45v5.63h-9.85v27.65h-6.72Z" />
                <path class="cls-3"
                    d="m51.85,45.43h-6.38v-24.11h5.93v3.43c1.01-1.62,1.93-2.69,2.74-3.2s1.73-.77,2.76-.77c1.45,0,2.85.4,4.2,1.2l-1.98,5.56c-1.07-.7-2.07-1.04-3-1.04s-1.65.25-2.27.74c-.62.49-1.11,1.38-1.46,2.67-.36,1.29-.53,3.98-.53,8.08v7.45Z" />
                <path class="cls-3" d="m63.84,18.04v-5.9h6.38v5.9h-6.38Zm0,27.38v-24.11h6.38v24.11h-6.38Z" />
                <path class="cls-3"
                    d="m81.52,28.67l-5.79-1.04c.65-2.33,1.77-4.06,3.36-5.18s3.95-1.68,7.08-1.68c2.85,0,4.96.34,6.36,1.01,1.39.67,2.37,1.53,2.94,2.57.57,1.04.85,2.94.85,5.71l-.07,7.45c0,2.12.1,3.68.31,4.69.2,1.01.59,2.08,1.15,3.24h-6.31c-.17-.42-.37-1.05-.61-1.88-.11-.38-.18-.63-.23-.75-1.09,1.06-2.26,1.85-3.5,2.38-1.24.53-2.57.79-3.97.79-2.48,0-4.44-.67-5.87-2.02-1.43-1.35-2.15-3.05-2.15-5.11,0-1.36.33-2.58.98-3.64.65-1.07,1.56-1.88,2.74-2.45,1.17-.57,2.86-1.06,5.07-1.49,2.98-.56,5.05-1.08,6.2-1.57v-.64c0-1.23-.3-2.1-.91-2.62-.61-.52-1.75-.78-3.43-.78-1.14,0-2.02.22-2.66.67-.64.45-1.15,1.23-1.54,2.35Zm8.54,5.18c-.82.27-2.11.6-3.88.98-1.77.38-2.93.75-3.47,1.11-.83.59-1.25,1.34-1.25,2.25s.33,1.67,1,2.32c.67.65,1.51.98,2.54.98,1.15,0,2.25-.38,3.29-1.14.77-.58,1.28-1.28,1.52-2.11.17-.54.25-1.58.25-3.11v-1.27Z" />
                <path class="cls-3" d="m102.62,45.43V12.14h6.38v33.29h-6.38Z" />
            </g>
            <g>
                <path
                    d="m47.32,61.83c-.27.31-.56.6-.84.84-.1-.1-.33-.31-.47-.38.74-.56,1.45-1.43,1.87-2.32l.56.17c-.14.29-.31.58-.49.86h5.57v.52h-.92v1.55h1.25v.52h-1.25v1.57h1.13v.52h-7.5v-.52h1.08v-1.57h-1.22v-.52h1.22v-1.23Zm-1.28,5.89c.46-.36.88-1.02,1.1-1.65l.53.14c-.22.65-.62,1.33-1.1,1.74l-.53-.23Zm1.81-4.66h1.03v-1.55h-1.03v1.55Zm0,2.08h1.03v-1.57h-1.03v1.57Zm1.33,1.08c.11.51.2,1.17.21,1.56l-.56.08c0-.4-.08-1.07-.18-1.58l.53-.05Zm1.28-3.17v-1.55h-1.08v1.55h1.08Zm-1.08.52v1.57h1.08v-1.57h-1.08Zm1.58,2.6c.24.5.48,1.17.56,1.58l-.55.12c-.09-.41-.32-1.09-.55-1.59l.54-.1Zm1.09-4.66h-1.09v1.55h1.09v-1.55Zm0,2.06h-1.09v1.57h1.09v-1.57Zm.69,2.46c.44.52.95,1.24,1.19,1.72l-.57.21c-.21-.46-.72-1.21-1.16-1.74l.53-.18Z" />
                <path
                    d="m56.77,63.58c.24.28,1.12,1.47,1.32,1.78l-.39.45c-.16-.33-.6-1.04-.93-1.55v3.68h-.54v-3.69c-.33.96-.81,1.97-1.24,2.56-.07-.16-.21-.41-.32-.56.53-.61,1.09-1.79,1.4-2.8h-1.26v-.54h1.42v-2.91h.54v2.91h1.44v.54h-1.44v.14Zm-1.4-1.02c-.04-.52-.25-1.31-.49-1.92l.44-.1c.25.6.46,1.38.52,1.9l-.46.12Zm2.82-1.92c-.21.65-.48,1.46-.72,1.95l-.38-.13c.21-.52.47-1.37.6-1.96l.5.14Zm3.43,4.82v2.48h-.55v-2.37l-2.77.5-.1-.54,2.86-.52v-5.03h.55v4.94l1.06-.19.08.53-1.14.2Zm-1.72-1.22c-.31-.32-.94-.76-1.46-1.04l.27-.4c.53.26,1.17.67,1.48.98l-.29.46Zm.38-2.12c-.28-.33-.88-.81-1.37-1.12l.29-.39c.52.31,1.1.75,1.38,1.08l-.3.44Z" />
                <path
                    d="m65.9,60.16c-.22.64-.49,1.29-.8,1.89v5.88h-.55v-4.93c-.25.4-.52.76-.79,1.08-.05-.14-.23-.43-.34-.57.78-.86,1.5-2.17,1.93-3.51l.54.16Zm3.26,2.17c.53,1.49,1.44,2.97,2.41,3.71-.13.1-.33.31-.45.46-.94-.83-1.81-2.35-2.35-3.9v3.17h1.45v.52h-1.45v1.61h-.56v-1.61h-1.49v-.52h1.49v-3.13c-.57,1.57-1.45,3.05-2.4,3.89-.1-.13-.29-.33-.42-.44.96-.76,1.9-2.26,2.44-3.75h-2.13v-.56h2.5v-1.78h.56v1.78h2.65v.56h-2.26Z" />
                <path
                    d="m72.16,67.26c.31-.43.42-1.21.45-1.94l.38.07c-.04.77-.14,1.6-.48,2.06l-.34-.19Zm3.66-2.98s0,.16,0,.24c-.1,2.17-.19,2.93-.4,3.19-.12.15-.25.21-.46.22-.18.02-.48.02-.78,0-.02-.14-.06-.34-.13-.47.3.03.59.03.69.03.12,0,.18-.02.25-.09.09-.11.16-.44.22-1.14l-.3.13c-.08-.31-.29-.8-.5-1.15l.3-.1c.21.34.42.81.51,1.11.03-.38.06-.86.09-1.48h-2.63v-4.42h3.08v.5h-1.2v.8h1.01v.47h-1.01v.83h1.01v.47h-1.01v.86h1.26Zm-2.64-3.44v.8h.89v-.8h-.89Zm.89,1.28h-.89v.83h.89v-.83Zm-.89,2.16h.89v-.86h-.89v.86Zm.35,1.14c.1.52.16,1.16.15,1.59l-.33.05c.02-.44-.04-1.08-.13-1.6l.31-.04Zm.67,1.36c-.03-.38-.19-.96-.35-1.41l.3-.07c.17.45.33,1.02.38,1.4l-.32.08Zm3.99-6.8c.53.87,1.39,1.7,2.2,2.14-.1.13-.24.33-.31.48-.8-.49-1.65-1.32-2.13-2.1-.42.76-1.22,1.63-2.07,2.18-.07-.14-.2-.34-.3-.46.86-.52,1.7-1.43,2.09-2.24h.52Zm.27,5.52c.33.9.97,1.62,1.85,1.96-.11.1-.29.32-.38.46-.88-.41-1.52-1.18-1.89-2.17-.25.82-.83,1.58-2.08,2.18-.08-.11-.25-.31-.37-.41,1.21-.55,1.73-1.27,1.96-2.02h-1.47v-2.13h1.63v-.74h-1.07v-.48h2.71v.48h-1.12v.74h1.68v2.13h-1.45Zm-.81-.46c.05-.29.06-.59.06-.88v-.34h-1.13v1.22h1.07Zm.59-1.22v.35c0,.29,0,.58-.04.87h1.22v-1.22h-1.17Z" />
            </g>
        </g>
    </g>
</svg>