<?xml version="1.0" encoding="UTF-8"?><svg id="_レイヤー_2" xmlns="http://www.w3.org/2000/svg" width="270.41"
    height="129.98" viewBox="0 0 270.41 129.98">
    <defs>
        <style>
            .cls-1 {
                fill: #fff;
            }

            .cls-2 {
                fill: #f77237;
            }

            .cls-3 {
                fill: #44190c;
            }

            .fade{
                opacity:0;
                animation: fadein 0.8s forwards;
            }
            @keyframes fadein{
                0%{
                    opacity:0;
                }
                100%{
                    opacity:1;
                }
            }

            .anim{
                transform:scale(0);
                transform-origin:56.5px 56.5px;
                animation: anim 0.4s forwards cubic-bezier(0.93,0.2,0.49,1.15) 0.4s;
            }
            @keyframes anim{
                0%{
                    transform:scale(0);
                }
                100%{
                    transform:scale(1);
                }
            }

        </style>
    </defs>
    <g class="fade">
        <g>
            <circle class="cls-2 anim" cx="56.5" cy="56.5" r="56.5" />
            <g>
                <path class="cls-1"
                    d="m49.75,90.85L25.95,24.28h14.58l16.85,49.27,16.3-49.27h14.26l-23.84,66.57h-14.35Z" />
                <path class="cls-3"
                    d="m91.75,66.06c0-4.24,1.04-8.34,3.13-12.31s5.05-6.99,8.88-9.08c3.83-2.09,8.11-3.13,12.83-3.13,7.3,0,13.27,2.37,17.94,7.11,4.66,4.74,6.99,10.72,6.99,17.96s-2.35,13.34-7.06,18.14-10.63,7.2-17.78,7.2c-4.42,0-8.64-1-12.65-3s-7.06-4.93-9.15-8.79c-2.09-3.86-3.13-8.56-3.13-14.1Zm13.08.68c0,4.78,1.14,8.45,3.41,10.99s5.07,3.81,8.4,3.81,6.12-1.27,8.38-3.81,3.38-6.24,3.38-11.08-1.13-8.36-3.38-10.9-5.05-3.81-8.38-3.81-6.13,1.27-8.4,3.81-3.41,6.21-3.41,10.99Z" />
                <path class="cls-3" d="m151.51,36.09v-11.81h12.76v11.81h-12.76Zm0,54.76v-48.23h12.76v48.23h-12.76Z" />
                <path class="cls-3"
                    d="m219.4,56.88l-12.58,2.27c-.42-2.51-1.38-4.41-2.88-5.68-1.5-1.27-3.44-1.91-5.83-1.91-3.18,0-5.71,1.1-7.61,3.29s-2.84,5.87-2.84,11.01c0,5.72.96,9.76,2.88,12.12,1.92,2.36,4.5,3.54,7.74,3.54,2.42,0,4.4-.69,5.95-2.07s2.63-3.75,3.27-7.11l12.53,2.13c-1.3,5.75-3.8,10.1-7.49,13.03-3.69,2.94-8.64,4.4-14.85,4.4-7.05,0-12.68-2.22-16.87-6.68-4.19-4.45-6.29-10.61-6.29-18.48s2.1-14.16,6.31-18.6c4.21-4.43,9.9-6.65,17.07-6.65,5.87,0,10.54,1.26,14.01,3.79s5.96,6.38,7.47,11.56Z" />
                <path class="cls-3"
                    d="m257,75.5l12.71,2.13c-1.63,4.66-4.22,8.21-7.74,10.65-3.53,2.44-7.94,3.66-13.24,3.66-8.39,0-14.59-2.74-18.62-8.22-3.18-4.39-4.77-9.93-4.77-16.62,0-7.99,2.09-14.25,6.27-18.78s9.46-6.79,15.85-6.79c7.17,0,12.84,2.37,16.98,7.11,4.15,4.74,6.13,12,5.95,21.77h-31.97c.09,3.78,1.12,6.73,3.09,8.83,1.97,2.1,4.42,3.16,7.36,3.16,2,0,3.68-.54,5.04-1.63s2.39-2.85,3.09-5.27Zm.73-12.9c-.09-3.69-1.04-6.5-2.86-8.42-1.82-1.92-4.03-2.88-6.63-2.88-2.79,0-5.09,1.01-6.9,3.04s-2.71,4.78-2.68,8.26h19.07Z" />
            </g>
            <g>
                <path
                    d="m116.91,120.6c1.23,1.45,3.12,2.78,4.87,3.45-.26.23-.59.63-.77.91-1.98-.86-4.08-2.55-5.39-4.36h-3.94c-1.43,1.94-3.36,3.41-5.55,4.45-.16-.25-.61-.68-.86-.91,1.98-.81,3.69-2,4.99-3.54h-4.39v-1.02h5.16c.35-.53.67-1.07.93-1.65-2,.05-3.82.11-5.29.14l-.14-1.08c.84-.02,1.82-.02,2.91-.05.7-.89,1.49-2.12,1.96-3.01l1.22.37c-.58.86-1.28,1.84-1.91,2.62,2.13-.04,4.53-.11,6.91-.16-.7-.54-1.42-1.07-2.1-1.51l.89-.58c1.61.98,3.55,2.49,4.48,3.57l-.95.65c-.3-.35-.72-.77-1.19-1.19-1.86.05-3.75.12-5.55.18-.24.59-.54,1.17-.86,1.7h9.07v1.02h-4.52Zm2.42,5.41c-2.1,2.17-6.12,3.4-10.54,3.97-.1-.28-.33-.7-.56-.96,4.27-.47,8.17-1.59,10.1-3.5l1,.49Zm-2.38-2.01c-1.68,1.38-4.52,2.43-7.11,3.03-.12-.25-.39-.61-.65-.82,2.47-.53,5.3-1.49,6.83-2.66l.93.46Zm-1.86-2.05c-1.29,1-3.38,1.85-5.13,2.36-.17-.21-.44-.54-.7-.72,1.7-.46,3.78-1.24,4.9-2.1l.93.46Z" />
                <path
                    d="m130.91,117.88c-.14,7.79-.25,10.31-.81,11.04-.3.44-.61.58-1.12.63-.47.07-1.28.05-2.05,0-.03-.35-.14-.84-.35-1.16.84.05,1.61.07,1.92.07.28,0,.46-.05.58-.28.4-.51.56-2.92.7-9.8h-2.8c-.16,4.71-.77,8.94-3.15,11.5-.17-.25-.59-.61-.88-.79,2.24-2.31,2.77-6.28,2.89-10.71h-2.49v-1.12h2.52c.02-1.01.02-2.05.02-3.1h1.14c0,1.05,0,2.08-.04,3.1h3.9v.61Zm7.37-1.75v13.37h-1.16v-1.17h-3.61v1.29h-1.12v-13.49h5.88Zm-1.16,11.08v-9.96h-3.61v9.96h3.61Z" />
                <path
                    d="m149.76,120.65c-.96.68-1.96,1.31-2.98,1.91h7.42v7.25h-1.19v-.51h-7.28v.58h-1.16v-6.13c-1.08.53-2.17,1.02-3.29,1.44-.16-.25-.52-.72-.75-.96,2.59-.91,5.08-2.12,7.33-3.57h-6.98v-1.05h6.07v-2.36h-4.53v-1.03h4.53v-2.26h1.14v2.26h4.45v.68c.74-.74,1.4-1.52,2.03-2.33l.98.54c-1.26,1.65-2.78,3.17-4.43,4.5h5.23v1.05h-6.6Zm3.25,2.91h-7.28v1.84h7.28v-1.84Zm0,4.73v-1.94h-7.28v1.94h7.28Zm-3.64-8.68c1-.74,1.94-1.52,2.8-2.36h-4.08v2.36h1.28Z" />
                <path
                    d="m166.64,129.05l-.72-1.16c.54-.05,1.08-.12,1.49-.21,2.24-.51,4.53-2.19,4.53-5.3,0-2.66-1.77-4.94-4.87-5.16-.23,1.66-.56,3.48-1.05,5.11-1.07,3.61-2.45,5.39-4.01,5.39s-3.04-1.72-3.04-4.6c0-3.75,3.36-7.04,7.58-7.04s6.65,2.87,6.65,6.35c0,3.68-2.45,6.09-6.56,6.62Zm-4.57-2.75c.82,0,1.82-1.17,2.73-4.25.46-1.49.8-3.19.98-4.81-3.43.38-5.6,3.33-5.6,5.79,0,2.28,1.07,3.27,1.89,3.27Z" />
                <path
                    d="m189.95,126.44h-1.15v-.88h-10.26c-.28,1.54-.91,3.15-2.21,4.41-.16-.25-.63-.63-.88-.81,1.87-1.8,2.15-4.29,2.15-6.12v-2.33h12.34v5.72Zm-5.78-10.01v1.84h6.14v1.01h-13.11v-1.01h5.79v-1.84h-6.83v-1.01h6.83v-1.52h1.17v1.52h6.91v1.01h-6.91Zm-5.41,5.29v1.35c0,.45-.02.96-.07,1.49h4.32v-2.83h-4.25Zm10.03,0h-4.64v2.83h4.64v-2.83Z" />
            </g>
        </g>
    </g>
</svg>