<?xml version="1.0" encoding="UTF-8"?><svg id="_レイヤー_2" xmlns="http://www.w3.org/2000/svg" width="135.2" height="64.99"
    viewBox="0 0 135.2 64.99">
    <defs>
        <style>
            .cls-1 {
                fill: #fff;
            }

            .cls-2 {
                fill: #f77237;
            }

            .cls-3 {
                fill: #44190c;
            }

            .fade {
                opacity: 0;
                animation: fadein .8s linear forwards;
            }

            @keyframes fadein {
                0% {
                    opacity: 0;
                }

                100% {
                    opacity: 1;
                }
            }

            .anim {
                transform: scale(0);
                transform-origin: 28.25px 28.25px;
                animation: anim .4s cubic-bezier(.96, .2, .49, 1.15) .4s forwards;
                ;
            }

            @keyframes anim {
                0% {
                    transform: scale(0);
                }

                100% {
                    transform: scale(1);
                }
            }
        </style>
    </defs>
    <g class="fade">
        <g>
            <circle class="cls-2 anim" cx="28.25" cy="28.25" r="28.25" />
            <g>
                <path class="cls-1" d="m24.87,45.43L12.98,12.14h7.29l8.42,24.64,8.15-24.64h7.13l-11.92,33.29h-7.17Z" />
                <path class="cls-3"
                    d="m45.88,33.03c0-2.12.52-4.17,1.57-6.15,1.04-1.98,2.52-3.5,4.44-4.54,1.91-1.04,4.05-1.57,6.41-1.57,3.65,0,6.64,1.18,8.97,3.55,2.33,2.37,3.5,5.36,3.5,8.98s-1.18,6.67-3.53,9.07-5.32,3.6-8.89,3.6c-2.21,0-4.32-.5-6.32-1.5s-3.53-2.46-4.57-4.39c-1.04-1.93-1.57-4.28-1.57-7.05Zm6.54.34c0,2.39.57,4.22,1.7,5.5s2.54,1.91,4.2,1.91,3.06-.64,4.19-1.91,1.69-3.12,1.69-5.54-.56-4.18-1.69-5.45c-1.13-1.27-2.52-1.91-4.19-1.91s-3.07.64-4.2,1.91-1.7,3.1-1.7,5.49Z" />
                <path class="cls-3" d="m75.76,18.04v-5.9h6.38v5.9h-6.38Zm0,27.38v-24.11h6.38v24.11h-6.38Z" />
                <path class="cls-3"
                    d="m109.7,28.44l-6.29,1.14c-.21-1.26-.69-2.2-1.44-2.84-.75-.64-1.72-.95-2.92-.95-1.59,0-2.86.55-3.8,1.65s-1.42,2.93-1.42,5.51c0,2.86.48,4.88,1.44,6.06.96,1.18,2.25,1.77,3.87,1.77,1.21,0,2.2-.34,2.97-1.03s1.32-1.87,1.63-3.55l6.27,1.07c-.65,2.88-1.9,5.05-3.75,6.52-1.85,1.47-4.32,2.2-7.42,2.2-3.53,0-6.34-1.11-8.43-3.34-2.1-2.22-3.14-5.31-3.14-9.24s1.05-7.08,3.16-9.3c2.1-2.22,4.95-3.33,8.54-3.33,2.94,0,5.27.63,7,1.9,1.73,1.26,2.98,3.19,3.74,5.78Z" />
                <path class="cls-3"
                    d="m128.5,37.75l6.36,1.07c-.82,2.33-2.11,4.11-3.87,5.32-1.76,1.22-3.97,1.83-6.62,1.83-4.19,0-7.3-1.37-9.31-4.11-1.59-2.19-2.38-4.96-2.38-8.31,0-4,1.04-7.13,3.13-9.39,2.09-2.26,4.73-3.39,7.92-3.39,3.59,0,6.42,1.18,8.49,3.55,2.07,2.37,3.07,6,2.97,10.89h-15.98c.05,1.89.56,3.36,1.54,4.42.98,1.05,2.21,1.58,3.68,1.58,1,0,1.84-.27,2.52-.82s1.2-1.42,1.54-2.63Zm.36-6.45c-.05-1.85-.52-3.25-1.43-4.21-.91-.96-2.01-1.44-3.31-1.44-1.39,0-2.54.51-3.45,1.52s-1.35,2.39-1.34,4.13h9.54Z" />
            </g>
            <g>
                <path
                    d="m58.45,60.3c.61.73,1.56,1.39,2.43,1.72-.13.11-.3.31-.38.46-.99-.43-2.04-1.28-2.7-2.18h-1.97c-.72.97-1.68,1.71-2.77,2.22-.08-.12-.31-.34-.43-.46.99-.4,1.85-1,2.49-1.77h-2.2v-.51h2.58c.18-.26.33-.53.46-.82-1,.03-1.91.05-2.64.07l-.07-.54c.42,0,.91,0,1.45-.03.35-.45.74-1.06.98-1.51l.61.18c-.29.43-.64.92-.95,1.31,1.07-.02,2.27-.05,3.46-.08-.35-.27-.71-.53-1.05-.75l.45-.29c.81.49,1.78,1.24,2.24,1.79l-.47.32c-.15-.17-.36-.38-.59-.6-.93.03-1.87.06-2.77.09-.12.3-.27.59-.43.85h4.53v.51h-2.26Zm1.21,2.7c-1.05,1.09-3.06,1.7-5.27,1.99-.05-.14-.17-.35-.28-.48,2.14-.24,4.09-.8,5.05-1.75l.5.24Zm-1.19-1.01c-.84.69-2.26,1.22-3.55,1.51-.06-.12-.19-.31-.32-.41,1.23-.26,2.65-.74,3.41-1.33l.46.23Zm-.93-1.02c-.65.5-1.69.93-2.56,1.18-.09-.1-.22-.27-.35-.36.85-.23,1.89-.62,2.45-1.05l.46.23Z" />
                <path
                    d="m65.45,58.94c-.07,3.89-.12,5.15-.4,5.52-.15.22-.31.29-.56.32-.24.03-.64.03-1.02,0-.02-.18-.07-.42-.17-.58.42.03.81.03.96.03.14,0,.23-.03.29-.14.2-.25.28-1.46.35-4.9h-1.4c-.08,2.35-.38,4.47-1.58,5.75-.09-.12-.3-.31-.44-.39,1.12-1.16,1.38-3.14,1.44-5.36h-1.24v-.56h1.26c0-.51,0-1.02,0-1.55h.57c0,.53,0,1.04-.02,1.55h1.95v.31Zm3.68-.88v6.69h-.58v-.59h-1.8v.65h-.56v-6.75h2.94Zm-.58,5.54v-4.98h-1.8v4.98h1.8Z" />
                <path
                    d="m74.88,60.32c-.48.34-.98.66-1.49.95h3.71v3.62h-.6v-.25h-3.64v.29h-.58v-3.06c-.54.26-1.09.51-1.65.72-.08-.12-.26-.36-.38-.48,1.29-.46,2.54-1.06,3.67-1.79h-3.49v-.52h3.04v-1.18h-2.27v-.52h2.27v-1.13h.57v1.13h2.22v.34c.37-.37.7-.76,1.02-1.16l.49.27c-.63.82-1.39,1.58-2.21,2.25h2.62v.52h-3.3Zm1.63,1.45h-3.64v.92h3.64v-.92Zm0,2.36v-.97h-3.64v.97h3.64Zm-1.82-4.34c.5-.37.97-.76,1.4-1.18h-2.04v1.18h.64Z" />
                <path
                    d="m83.32,64.52l-.36-.58c.27-.03.54-.06.74-.1,1.12-.25,2.27-1.09,2.27-2.65,0-1.33-.88-2.47-2.43-2.58-.11.83-.28,1.74-.52,2.56-.53,1.8-1.23,2.7-2,2.7s-1.52-.86-1.52-2.3c0-1.87,1.68-3.52,3.79-3.52s3.33,1.44,3.33,3.18c0,1.84-1.23,3.05-3.28,3.31Zm-2.28-1.37c.41,0,.91-.59,1.37-2.13.23-.74.4-1.59.49-2.41-1.72.19-2.8,1.66-2.8,2.9,0,1.14.53,1.64.95,1.64Z" />
                <path
                    d="m94.98,63.22h-.58v-.44h-5.13c-.14.77-.46,1.58-1.1,2.21-.08-.12-.31-.32-.44-.4.94-.9,1.08-2.14,1.08-3.06v-1.16h6.17v2.86Zm-2.89-5.01v.92h3.07v.51h-6.55v-.51h2.9v-.92h-3.41v-.51h3.41v-.76h.59v.76h3.46v.51h-3.46Zm-2.7,2.64v.67c0,.23,0,.48-.03.74h2.16v-1.42h-2.13Zm5.01,0h-2.32v1.42h2.32v-1.42Z" />
            </g>
        </g>
    </g>
</svg>