<?xml version="1.0" encoding="UTF-8"?>
<svg id="_レイヤー_2" xmlns="http://www.w3.org/2000/svg" width="345.28" height="129.28" viewBox="0 0 345.28 129.28">
    <defs>
        <style>
            .cls-1 {
                fill: #fff;
            }

            .cls-2 {
                fill: #f77237;
            }

            .cls-3 {
                fill: #44190c;
            }

            .fade {
                opacity: 0;
                animation: fadein .8s linear forwards;
            }

            @keyframes fadein {
                0% {
                    opacity: 0;
                }

                100% {
                    opacity: 1;
                }
            }

            .anim {
                transform: scale(0);
                transform-origin: 56.5px 56.5px;
                animation: anim .4s cubic-bezier(.96, .2, .49, 1.15) .4s forwards;
                ;
            }

            @keyframes anim {
                0% {
                    transform: scale(0);
                }

                100% {
                    transform: scale(1);
                }
            }
        </style>
    </defs>
    <g class="fade">
        <g>
            <circle class="cls-2 anim" cx="56.5" cy="56.5" r="56.5" />
            <g>
                <path class="cls-1"
                    d="m90.8,86.85h-14.62l-5.81-15.12h-26.61l-5.49,15.12h-14.26L49.93,20.28h14.21l26.66,66.57Zm-24.75-26.34l-9.17-24.7-8.99,24.7h18.16Z" />
                <path class="cls-3"
                    d="m139.89,52.88l-12.58,2.27c-.42-2.51-1.38-4.41-2.88-5.68-1.5-1.27-3.44-1.91-5.83-1.91-3.18,0-5.71,1.1-7.61,3.29s-2.84,5.87-2.84,11.01c0,5.72.96,9.76,2.88,12.12,1.92,2.36,4.5,3.54,7.74,3.54,2.42,0,4.4-.69,5.95-2.07s2.63-3.75,3.27-7.11l12.53,2.13c-1.3,5.75-3.8,10.1-7.49,13.03-3.69,2.94-8.64,4.4-14.85,4.4-7.05,0-12.68-2.22-16.87-6.68-4.19-4.45-6.29-10.61-6.29-18.48s2.1-14.16,6.31-18.6c4.21-4.43,9.9-6.65,17.07-6.65,5.87,0,10.54,1.26,14.01,3.79s5.96,6.38,7.47,11.56Z" />
                <path class="cls-3"
                    d="m191.61,52.88l-12.58,2.27c-.42-2.51-1.38-4.41-2.88-5.68-1.5-1.27-3.44-1.91-5.83-1.91-3.18,0-5.71,1.1-7.61,3.29s-2.84,5.87-2.84,11.01c0,5.72.96,9.76,2.88,12.12,1.92,2.36,4.5,3.54,7.74,3.54,2.42,0,4.4-.69,5.95-2.07s2.63-3.75,3.27-7.11l12.53,2.13c-1.3,5.75-3.8,10.1-7.49,13.03-3.69,2.94-8.64,4.4-14.85,4.4-7.05,0-12.68-2.22-16.87-6.68-4.19-4.45-6.29-10.61-6.29-18.48s2.1-14.16,6.31-18.6c4.21-4.43,9.9-6.65,17.07-6.65,5.87,0,10.54,1.26,14.01,3.79s5.96,6.38,7.47,11.56Z" />
                <path class="cls-3"
                    d="m229.21,71.5l12.71,2.13c-1.63,4.66-4.22,8.21-7.74,10.65-3.53,2.44-7.94,3.66-13.24,3.66-8.39,0-14.59-2.74-18.62-8.22-3.18-4.39-4.77-9.93-4.77-16.62,0-7.99,2.09-14.25,6.27-18.78s9.46-6.79,15.85-6.79c7.17,0,12.84,2.37,16.98,7.11,4.15,4.74,6.13,12,5.95,21.77h-31.97c.09,3.78,1.12,6.73,3.09,8.83,1.97,2.1,4.42,3.16,7.36,3.16,2,0,3.68-.54,5.04-1.63s2.39-2.85,3.09-5.27Zm.73-12.9c-.09-3.69-1.04-6.5-2.86-8.42-1.82-1.92-4.03-2.88-6.63-2.88-2.79,0-5.09,1.01-6.9,3.04s-2.71,4.78-2.68,8.26h19.07Z" />
                <path class="cls-3"
                    d="m248.51,73.09l12.81-1.95c.54,2.48,1.65,4.37,3.31,5.65,1.66,1.29,4,1.93,6.99,1.93,3.3,0,5.78-.6,7.45-1.82,1.12-.85,1.68-1.98,1.68-3.41,0-.97-.3-1.77-.91-2.41-.64-.6-2.06-1.17-4.27-1.68-10.29-2.27-16.82-4.34-19.57-6.22-3.81-2.6-5.72-6.22-5.72-10.85,0-4.18,1.65-7.69,4.95-10.54,3.3-2.85,8.42-4.27,15.35-4.27s11.5,1.08,14.71,3.22c3.21,2.15,5.42,5.33,6.63,9.54l-12.03,2.22c-.52-1.88-1.49-3.31-2.93-4.31-1.44-1-3.49-1.5-6.15-1.5-3.36,0-5.77.47-7.22,1.41-.97.67-1.45,1.53-1.45,2.59,0,.91.42,1.68,1.27,2.32,1.15.85,5.12,2.04,11.92,3.59s11.54,3.44,14.24,5.68c2.66,2.27,4,5.43,4,9.49,0,4.42-1.85,8.22-5.54,11.4-3.69,3.18-9.16,4.77-16.39,4.77-6.57,0-11.77-1.33-15.6-4-3.83-2.66-6.33-6.28-7.52-10.85Z" />
                <path class="cls-3"
                    d="m300.23,73.09l12.81-1.95c.54,2.48,1.65,4.37,3.31,5.65,1.66,1.29,4,1.93,6.99,1.93,3.3,0,5.78-.6,7.45-1.82,1.12-.85,1.68-1.98,1.68-3.41,0-.97-.3-1.77-.91-2.41-.64-.6-2.06-1.17-4.27-1.68-10.29-2.27-16.82-4.34-19.57-6.22-3.81-2.6-5.72-6.22-5.72-10.85,0-4.18,1.65-7.69,4.95-10.54,3.3-2.85,8.42-4.27,15.35-4.27s11.5,1.08,14.71,3.22c3.21,2.15,5.42,5.33,6.63,9.54l-12.03,2.22c-.52-1.88-1.49-3.31-2.93-4.31-1.44-1-3.49-1.5-6.15-1.5-3.36,0-5.77.47-7.22,1.41-.97.67-1.45,1.53-1.45,2.59,0,.91.42,1.68,1.27,2.32,1.15.85,5.12,2.04,11.92,3.59s11.54,3.44,14.24,5.68c2.66,2.27,4,5.43,4,9.49,0,4.42-1.85,8.22-5.54,11.4-3.69,3.18-9.16,4.77-16.39,4.77-6.57,0-11.77-1.33-15.6-4-3.83-2.66-6.33-6.28-7.52-10.85Z" />
            </g>
            <g>
                <path
                    d="m167.67,117.3c-.68,1.16-2.34,3.43-4.38,4.83l-1.05-.82c1.64-.94,3.34-2.91,3.94-4.04h-10.13c-.63,0-1.29.05-1.96.11v-1.44c.61.09,1.33.16,1.96.16h10.17c.31,0,.88-.05,1.12-.11l.77.74c-.12.16-.31.4-.44.58Zm-11.41,11.85l-1.16-.94c.46-.16,1.07-.44,1.52-.75,2.8-1.68,3.18-4.29,3.18-7.21,0-.4-.02-.77-.07-1.21h1.4c0,4.81-.47,7.95-4.88,10.12Z" />
                <path
                    d="m177.95,116.27c-.14.28-.3.56-.47.86h4.95c.47,0,.82-.05,1.08-.16l1.05.63c-.14.23-.3.63-.38.88-.47,1.8-1.56,4.17-3.1,6.06-1.59,1.92-3.68,3.54-6.97,4.74l-1.12-1.03c3.15-.91,5.37-2.52,6.98-4.39,1.38-1.65,2.47-3.96,2.85-5.6h-6.09c-1.05,1.47-2.5,3.04-4.45,4.32l-1.08-.81c3.01-1.79,4.76-4.38,5.51-5.95.16-.3.4-.89.51-1.31l1.43.47c-.26.42-.54.98-.72,1.29Z" />
                <path
                    d="m192.31,120.95c-1.8.37-3.4.68-4.1.84l-.25-1.31c.79-.1,2.47-.4,4.34-.75v-3.1c0-.51-.02-1.03-.11-1.54h1.47c-.07.51-.1,1.05-.1,1.54v2.85c3.04-.6,6.25-1.24,6.97-1.42.35-.07.67-.17.86-.28l.93.7c-.12.17-.3.46-.42.67-.81,1.44-2.14,3.61-3.57,5.08l-1.08-.65c1.33-1.22,2.64-3.2,3.17-4.27-.26.05-3.64.74-6.84,1.38v5.32c0,1.23.47,1.61,2.59,1.61s3.71-.17,5.44-.51l-.05,1.35c-1.58.23-3.27.37-5.51.37-3.12,0-3.73-.84-3.73-2.5v-5.37Z" />
                <path
                    d="m217.88,117.58c-.6,1.52-1.73,3.64-2.98,5.2,1.86,1.59,3.99,3.85,5.15,5.25l-1.08.95c-1.17-1.54-3.08-3.64-4.88-5.25-1.89,2.03-4.24,3.96-6.88,5.15l-1-1.03c2.82-1.1,5.39-3.19,7.23-5.23,1.19-1.35,2.5-3.48,2.96-4.97h-6.98c-.61,0-1.56.07-1.71.07v-1.42c.19.04,1.17.1,1.71.1h6.86c.52,0,.96-.05,1.22-.12l.79.61c-.11.12-.32.49-.4.7Z" />
            </g>
        </g>
    </g>
</svg>