<?xml version="1.0" encoding="UTF-8"?><svg id="_レイヤー_2" xmlns="http://www.w3.org/2000/svg" width="131.36" height="67.73"
    viewBox="0 0 131.36 67.73">
    <defs>
        <style>
            .cls-1 {
                fill: #fff;
            }

            .cls-2 {
                fill: #f77237;
            }

            .cls-3 {
                fill: #44190c;
            }
            .fade{
                opacity:0;
                animation:fadein .8s linear forwards;
            }
            @keyframes fadein {
                0% {
                    opacity: 0;
                }

                100% {
                    opacity: 1;
                }
            }

            .anim {
                transform: scale(0);
                transform-origin: 28.25px 28.25px;
                animation: anim .4s cubic-bezier(.96, .2, .49, 1.15) .4s forwards;
                ;
            }

            @keyframes anim {
                0% {
                    transform: scale(0);
                }

                100% {
                    transform: scale(1);
                }
            }
        </style>
    </defs>
    <g class="fade">
        <g>
            <g>
                <path class="cls-3"
                    d="m57,59.7c-.01.23-.02.65-.04,1.14.74-.09,1.52-.24,2.09-.41l.02.7c-.59.14-1.39.27-2.13.36-.01.49-.02,1.01-.02,1.43v.34c.77-.25,1.58-.38,2.25-.38,1.45,0,2.47.79,2.47,1.95s-.79,1.96-2.12,2.28c-.45.1-.89.12-1.23.13l-.25-.71c.37,0,.79.01,1.17-.07.89-.18,1.71-.66,1.71-1.62,0-.88-.8-1.35-1.76-1.35-.78,0-1.49.15-2.23.41.01.86.04,1.77.04,2.22,0,.87-.32,1.16-.85,1.16-.74,0-2.03-.75-2.03-1.62,0-.81,1.04-1.67,2.18-2.16v-.54c0-.42.01-.92.01-1.41-.29.03-.55.04-.77.04-.55,0-.92-.01-1.26-.05v-.68c.53.07.88.08,1.24.08.24,0,.51,0,.8-.04.01-.55.02-1.01.02-1.19,0-.19-.02-.51-.05-.67h.8c-.03.17-.05.42-.06.66Zm-1.05,6.83c.24,0,.37-.17.37-.5,0-.39-.02-1.11-.04-1.87-.84.4-1.49,1-1.49,1.48s.74.89,1.16.89Zm6.51-4.91l-.36.57c-.49-.48-1.58-1.16-2.22-1.51l.33-.53c.7.38,1.78,1.06,2.25,1.47Z" />
                <path class="cls-3"
                    d="m66.25,62.32c0,.11,0,.23-.01.36h1.92v.63h-1.95c-.03.23-.06.48-.11.72.46.45,1.7,1.84,2,2.2l-.44.56c-.33-.47-1.17-1.46-1.72-2.08-.3,1.1-.92,2.19-2.1,3.02-.07-.14-.31-.39-.45-.49,1.55-1.11,2.03-2.59,2.16-3.93h-2.06v-.63h2.09c.01-.13.01-.26.01-.37v-1.7h-.83c-.24.62-.51,1.18-.83,1.62-.11-.11-.39-.3-.54-.38.59-.79,1.01-1.99,1.26-3.21l.64.12c-.09.43-.2.84-.33,1.23h2.9v.62h-1.61v1.71Zm5.78-2.81v7.86h-.67v-.7h-2.22v.8h-.65v-7.96h3.54Zm-.67,6.53v-5.9h-2.22v5.9h2.22Z" />
                <path class="cls-3"
                    d="m75.66,63.88c.97-.87,2.08-1.27,3.31-1.27,1.49,0,2.51.89,2.51,2.06,0,1.77-1.61,2.95-5.24,2.65l-.22-.73c3.19.38,4.72-.56,4.72-1.95,0-.82-.77-1.41-1.81-1.41-1.35,0-2.44.51-3.16,1.37-.14.17-.22.33-.28.49l-.67-.17c.2-.9.45-3.02.51-4.03l.75.1c-.14.7-.31,2.23-.42,2.89Zm4.54-3.91l-.17.68c-.94-.13-3.1-.56-3.86-.77l.18-.68c.84.27,2.97.68,3.85.77Z" />
                <path class="cls-3"
                    d="m90.31,60.01c0,.47,0,1-.02,1.46.43-.04.82-.06,1.17-.08.26-.02.52-.03.74-.05v.71c-.14,0-.5,0-.75,0-.31.01-.72.03-1.18.06-.02.72-.04,1.63-.14,2.1-.09.43-.3.56-.75.56-.37,0-1.03-.09-1.29-.14l.02-.62c.35.08.77.13,1.01.13.26,0,.36-.04.4-.27.05-.34.09-1.07.11-1.72-1.05.08-2.27.2-3.29.3,0,1.05,0,2.12,0,2.5.04,1.1.04,1.5,1.81,1.5,1.11,0,2.34-.11,2.98-.22l-.03.74c-.67.08-1.89.17-2.91.17-2.27,0-2.47-.53-2.52-2.09,0-.43,0-1.51,0-2.53-.47.05-.87.1-1.14.13-.31.04-.7.1-.98.14l-.07-.74c.31,0,.67-.02,1-.06.26-.02.68-.06,1.19-.11,0-.71,0-1.29,0-1.45,0-.29,0-.5-.05-.8h.77c-.02.21-.03.48-.03.77,0,.35-.01.86-.01,1.42.99-.1,2.19-.21,3.29-.3v-1.48c0-.22-.02-.56-.05-.73h.76c-.02.17-.04.49-.04.7Z" />
            </g>
            <circle class="cls-2 anim" cx="28.25" cy="28.25" r="28.25" />
            <g>
                <path class="cls-1"
                    d="m15.84,45.05V11.84h6.53l13.59,22.18V11.84h6.23v33.22h-6.73l-13.39-21.66v21.66h-6.23Z" />
                <path class="cls-3"
                    d="m63.17,37.4l6.34,1.06c-.82,2.33-2.1,4.1-3.86,5.31-1.76,1.22-3.96,1.82-6.6,1.82-4.18,0-7.28-1.37-9.29-4.1-1.59-2.19-2.38-4.95-2.38-8.29,0-3.99,1.04-7.11,3.13-9.37,2.08-2.26,4.72-3.39,7.91-3.39,3.58,0,6.4,1.18,8.47,3.55,2.07,2.36,3.06,5.99,2.97,10.86h-15.95c.05,1.89.56,3.36,1.54,4.41.98,1.05,2.21,1.57,3.67,1.57,1,0,1.84-.27,2.51-.82.68-.54,1.19-1.42,1.54-2.63Zm.36-6.43c-.05-1.84-.52-3.24-1.43-4.2-.91-.96-2.01-1.44-3.31-1.44-1.39,0-2.54.51-3.44,1.52-.91,1.01-1.35,2.39-1.34,4.12h9.52Z" />
                <path class="cls-3"
                    d="m79.53,45.05l-7.61-24.06h6.19l4.51,15.77,4.15-15.77h6.14l4.01,15.77,4.6-15.77h6.28l-7.73,24.06h-6.12l-4.15-15.47-4.08,15.47h-6.19Z" />
                <path class="cls-3"
                    d="m108.89,38.19l6.39-.97c.27,1.24.82,2.18,1.65,2.82.83.64,1.99.96,3.49.96,1.65,0,2.89-.3,3.72-.91.56-.42.84-.99.84-1.7,0-.48-.15-.88-.45-1.2-.32-.3-1.03-.58-2.13-.84-5.14-1.13-8.39-2.17-9.77-3.1-1.9-1.3-2.85-3.1-2.85-5.42,0-2.08.82-3.84,2.47-5.26,1.65-1.42,4.2-2.13,7.66-2.13s5.74.54,7.34,1.61c1.6,1.07,2.7,2.66,3.31,4.76l-6,1.11c-.26-.94-.74-1.65-1.46-2.15-.72-.5-1.74-.75-3.07-.75-1.68,0-2.88.23-3.6.7-.48.33-.73.76-.73,1.29,0,.45.21.84.63,1.16.57.42,2.56,1.02,5.95,1.79,3.39.77,5.76,1.71,7.1,2.83,1.33,1.13,1.99,2.71,1.99,4.74,0,2.21-.92,4.1-2.76,5.69-1.84,1.59-4.57,2.38-8.18,2.38-3.28,0-5.87-.66-7.78-1.99-1.91-1.33-3.16-3.13-3.75-5.42Z" />
            </g>
        </g>
    </g>
</svg>